<svg width="194" height="206" viewBox="0 0 194 206" fill="none" xmlns="http://www.w3.org/2000/svg">
<path d="M27.1953 37.3551L38.5597 41.7599L35.4457 45.249L31.5473 43.7559L30.6701 44.7388L32.6058 48.4311L29.4918 51.9202L23.8291 41.1268L27.1953 37.3551ZM29.3135 43.4396L30.1139 42.5427L28.5165 41.9336L29.3135 43.4396Z" fill="#136953"/>
<path d="M39.8597 34.9817L45.8726 30.0826L48.6808 33.5297L39.221 41.2371L31.9198 32.2748L35.3666 29.4664L39.8597 34.9817Z" fill="#136953"/>
<path d="M51.7699 17.9492C53.4564 16.984 55.6279 17.5627 56.6011 19.2636L59.1036 23.6371C60.0687 25.3237 59.4756 27.5034 57.7892 28.4686L52.7869 31.3313C51.9722 31.7975 50.9981 31.9186 50.0849 31.6822C49.1779 31.4234 48.4076 30.8397 47.9557 30.0169L45.4531 25.6433C44.9727 24.8368 44.8516 23.8626 45.0962 22.9637C45.355 22.0567 45.9387 21.2862 46.7676 20.8119L51.7699 17.9492ZM54.4496 24.8206L53.2229 22.6767C52.9039 22.1193 52.1849 21.9237 51.6275 22.2427L50.527 22.8725C49.9696 23.1915 49.7739 23.9106 50.0929 24.468L51.3196 26.6119C51.6386 27.1693 52.3576 27.3649 52.915 27.0459L54.0155 26.4161C54.5729 26.0971 54.7686 25.3781 54.4496 24.8206Z" fill="#136953"/>
<path d="M65.6311 12.289L69.837 10.7489L73.8057 21.5887L69.5997 23.1288L68.1844 19.263L65.0299 20.418L66.4453 24.2839L62.2393 25.824L58.2707 14.9842L62.4766 13.4441L63.7334 16.8769L66.8879 15.7219L65.6311 12.289Z" fill="#136953"/>
<path d="M81.6833 8.3772L88.0072 18.7966L83.4117 19.6642L81.2315 16.1041L79.937 16.3485L79.2207 20.4554L74.6252 21.3229L76.7157 9.31501L81.6833 8.3772ZM79.6535 14.4916L80.8347 14.2686L79.9397 12.8121L79.6535 14.4916Z" fill="#136953"/>
<path d="M97.9868 14.3933C97.5152 14.3856 97.0863 14.2637 96.7003 14.0274C96.3143 13.7872 96.0075 13.4703 95.78 13.0767C95.5563 12.6831 95.4483 12.2505 95.456 11.7789C95.4637 11.3033 95.5857 10.8745 95.8219 10.4923C96.0621 10.1063 96.379 9.8015 96.7725 9.57785C97.1661 9.3503 97.5987 9.24035 98.0704 9.24801C98.5459 9.25573 98.9747 9.37966 99.3568 9.6198C99.7429 9.85611 100.048 10.171 100.271 10.5646C100.499 10.9542 100.609 11.3869 100.601 11.8624C100.594 12.3341 100.47 12.7629 100.229 13.1489C99.9932 13.535 99.6782 13.8418 99.2846 14.0693C98.895 14.293 98.4624 14.401 97.9868 14.3933Z" fill="#136953"/>
<path d="M118.761 9.60776L120.682 21.644L116.099 20.7116L115.425 16.5917L114.134 16.3291L111.92 19.8613L107.337 18.9288L113.808 8.59981L118.761 9.60776ZM114.573 14.5027L115.751 14.7423L115.472 13.0556L114.573 14.5027Z" fill="#136953"/>
<path d="M127.221 19.3667L134.476 22.1097L132.903 26.2685L121.49 21.9532L125.578 11.1401L129.736 12.7125L127.221 19.3667Z" fill="#136953"/>
<path d="M147.917 21.1316C149.598 22.1073 150.185 24.2766 149.202 25.9712L146.672 30.329C145.696 32.0094 143.513 32.5887 141.832 31.613L136.848 28.7189C136.036 28.2476 135.443 27.4653 135.19 26.5566C134.959 25.642 135.078 24.6828 135.564 23.8793L138.094 19.5216C138.551 18.7016 139.333 18.1085 140.234 17.8696C141.148 17.639 142.107 17.758 142.933 18.2376L147.917 21.1316ZM143.315 26.8947L144.555 24.7585C144.877 24.2031 144.686 23.4828 144.131 23.1603L143.034 22.5236C142.479 22.2011 141.759 22.3922 141.436 22.9476L140.196 25.0838C139.874 25.6392 140.065 26.3595 140.62 26.682L141.717 27.3187C142.272 27.6412 142.992 27.4501 143.315 26.8947Z" fill="#136953"/>
<path d="M159.753 30.2746L163.197 33.1388L155.815 42.0142L152.372 39.15L155.004 35.9847L152.422 33.8366L149.789 37.0018L146.346 34.1376L153.727 25.2623L157.17 28.1265L154.833 30.9372L157.415 33.0854L159.753 30.2746Z" fill="#136953"/>
<path d="M171.206 42.1635L165.392 52.8758L162.327 49.343L164.304 45.666L163.441 44.6708L159.533 46.1211L156.468 42.5883L167.894 38.3446L171.206 42.1635ZM164.902 43.4904L165.69 44.3985L166.497 42.8916L164.902 43.4904Z" fill="#136953"/>
<path d="M173.059 60.0193C172.824 59.61 172.71 59.179 172.716 58.7264C172.725 58.2719 172.84 57.8462 173.062 57.4494C173.286 57.0561 173.603 56.7421 174.012 56.5076C174.425 56.2711 174.856 56.1568 175.305 56.1645C175.76 56.1736 176.184 56.2901 176.577 56.5141C176.974 56.736 177.289 57.0517 177.524 57.461C177.76 57.8737 177.873 58.3056 177.862 58.7568C177.856 59.2094 177.741 59.6324 177.517 60.0258C177.299 60.4206 176.983 60.7363 176.57 60.9727C176.161 61.2072 175.729 61.3199 175.275 61.3108C174.822 61.305 174.397 61.1911 174.001 60.9691C173.609 60.7486 173.295 60.432 173.059 60.0193Z" fill="#136953"/>
<path d="M188.801 74.8563L179.353 82.5559L177.86 78.1237L181.086 75.4736L180.666 74.2252L176.499 74.0817L175.007 69.6496L187.188 70.0652L188.801 74.8563ZM182.466 73.6885L182.849 74.8277L184.169 73.7405L182.466 73.6885Z" fill="#136953"/>
<path d="M184.598 87.0725L185.866 94.7242L181.479 95.4512L179.484 83.4132L190.889 81.5231L191.616 85.9094L184.598 87.0725Z" fill="#136953"/>
<path d="M193.518 105.54C193.55 107.483 191.995 109.106 190.036 109.137L184.997 109.219C183.054 109.251 181.431 107.68 181.4 105.737L181.306 99.9739C181.291 99.0354 181.655 98.1237 182.303 97.4379C182.967 96.7684 183.85 96.3753 184.789 96.3765L189.827 96.2947C190.765 96.263 191.677 96.627 192.346 97.2749C193.016 97.9393 193.409 98.8222 193.424 99.7772L193.518 105.54ZM186.206 104.572L188.676 104.532C189.318 104.521 189.837 103.986 189.826 103.344L189.806 102.076C189.795 101.434 189.26 100.915 188.618 100.926L186.148 100.966C185.506 100.976 184.987 101.512 184.998 102.154L185.018 103.422C185.029 104.064 185.564 104.582 186.206 104.572Z" fill="#136953"/>
<path d="M191.547 120.651L190.809 125.069L179.424 123.168L180.161 118.75L184.222 119.428L184.775 116.115L180.715 115.436L181.452 111.019L192.838 112.92L192.1 117.338L188.495 116.736L187.941 120.049L191.547 120.651Z" fill="#136953"/>
<path d="M187.026 136.545L174.843 136.901L176.357 132.476L180.529 132.338L180.956 131.091L177.738 128.441L179.252 124.016L188.663 131.762L187.026 136.545ZM182.711 131.761L182.321 132.899L184.03 132.839L182.711 131.761Z" fill="#136953"/>
<path d="M173.548 147.526C173.785 147.117 174.1 146.802 174.495 146.58C174.892 146.36 175.319 146.247 175.773 146.24C176.226 146.237 176.656 146.353 177.064 146.59C177.476 146.828 177.791 147.144 178.009 147.537C178.229 147.934 178.341 148.36 178.345 148.812C178.351 149.267 178.237 149.698 178 150.106C177.761 150.518 177.444 150.832 177.048 151.049C176.654 151.27 176.23 151.383 175.778 151.387C175.326 151.395 174.895 151.281 174.484 151.042C174.076 150.805 173.762 150.488 173.542 150.09C173.32 149.696 173.205 149.271 173.198 148.817C173.193 148.367 173.309 147.937 173.548 147.526Z" fill="#136953"/>
<path d="M167.584 168.168L156.179 163.868L159.261 160.351L163.173 161.808L164.041 160.817L162.071 157.142L165.152 153.625L170.915 164.365L167.584 168.168ZM165.409 162.103L164.617 163.007L166.22 163.602L165.409 162.103Z" fill="#136953"/>
<path d="M154.92 170.676L148.951 175.628L146.112 172.206L155.503 164.415L162.884 173.312L159.462 176.151L154.92 170.676Z" fill="#136953"/>
<path d="M143.185 187.808C141.507 188.788 139.331 188.23 138.342 186.538L135.799 182.188C134.818 180.51 135.391 178.325 137.068 177.344L142.044 174.435C142.854 173.962 143.827 173.832 144.743 174.059C145.652 174.31 146.428 174.886 146.887 175.705L149.43 180.055C149.918 180.857 150.048 181.83 149.812 182.731C149.561 183.641 148.985 184.417 148.16 184.899L143.185 187.808ZM140.442 180.961L141.688 183.094C142.012 183.648 142.733 183.837 143.287 183.513L144.382 182.873C144.937 182.549 145.126 181.828 144.801 181.274L143.555 179.141C143.231 178.587 142.51 178.398 141.956 178.722L140.861 179.362C140.306 179.686 140.117 180.407 140.442 180.961Z" fill="#136953"/>
<path d="M129.378 193.598L125.187 195.177L121.118 184.375L125.309 182.796L126.76 186.648L129.904 185.464L128.453 181.612L132.644 180.033L136.713 190.835L132.522 192.414L131.233 188.993L128.089 190.177L129.378 193.598Z" fill="#136953"/>
<path d="M113.36 197.656L106.94 187.295L111.528 186.385L113.741 189.925L115.033 189.669L115.711 185.555L120.298 184.645L118.319 196.672L113.36 197.656ZM115.333 191.523L114.154 191.757L115.063 193.205L115.333 191.523Z" fill="#136953"/>
<path d="M97.0149 191.855C97.4865 191.847 97.9191 191.955 98.3126 192.179C98.7062 192.406 99.0231 192.713 99.2633 193.099C99.4996 193.485 99.6216 193.914 99.6293 194.386C99.637 194.861 99.529 195.294 99.3053 195.683C99.0777 196.077 98.7709 196.392 98.3849 196.628C97.9989 196.869 97.57 196.992 97.0984 197C96.6228 197.008 96.1902 196.898 95.8005 196.67C95.407 196.447 95.0921 196.142 94.8558 195.756C94.6156 195.374 94.4917 194.945 94.484 194.469C94.4763 193.998 94.5863 193.565 94.8138 193.171C95.0375 192.778 95.3423 192.461 95.7283 192.221C96.1105 191.985 96.5393 191.863 97.0149 191.855Z" fill="#136953"/>
<path d="M76.2538 196.761L74.2242 184.742L78.8152 185.633L79.5268 189.747L80.8201 189.998L83.0021 186.445L87.5931 187.336L81.2166 197.724L76.2538 196.761ZM80.3979 191.828L79.2178 191.599L79.5117 193.283L80.3979 191.828Z" fill="#136953"/>
<path d="M67.7219 187.086L60.4421 184.41L61.9758 180.237L73.4288 184.447L69.4412 195.297L65.268 193.763L67.7219 187.086Z" fill="#136953"/>
<path d="M47.0005 185.512C45.3114 184.552 44.7041 182.388 45.6726 180.684L48.1629 176.304C49.1232 174.615 51.3012 174.016 52.9904 174.976L58.0006 177.825C58.8166 178.289 59.4167 179.066 59.6781 179.972C59.917 180.884 59.8068 181.845 59.3286 182.652L56.8383 187.033C56.3887 187.857 55.6118 188.457 54.7137 188.704C53.8012 188.943 52.841 188.833 52.0108 188.361L47.0005 185.512ZM51.5506 179.708L50.3299 181.855C50.0125 182.413 50.2101 183.132 50.7684 183.449L51.8707 184.076C52.4289 184.393 53.1475 184.196 53.4648 183.637L54.6856 181.49C55.003 180.932 54.8054 180.213 54.2471 179.896L53.1448 179.269C52.5865 178.952 51.868 179.149 51.5506 179.708Z" fill="#136953"/>
<path d="M35.089 176.485L31.619 173.652L38.9177 164.709L42.3876 167.541L39.7847 170.731L42.3871 172.855L44.99 169.665L48.46 172.498L41.1614 181.441L37.6914 178.609L40.0028 175.776L37.4004 173.652L35.089 176.485Z" fill="#136953"/>
<path d="M23.5405 164.706L29.254 153.94L32.3515 157.444L30.4093 161.139L31.2819 162.126L35.1764 160.639L38.2739 164.143L26.8889 168.494L23.5405 164.706ZM29.8319 163.32L29.0357 162.42L28.2426 163.934L29.8319 163.32Z" fill="#136953"/>
<path d="M21.4847 147.845C21.723 148.252 21.8414 148.682 21.8399 149.135C21.835 149.589 21.7235 150.016 21.5053 150.415C21.2851 150.81 20.9714 151.127 20.5644 151.366C20.1539 151.606 19.7241 151.725 19.2748 151.721C18.8202 151.716 18.3952 151.604 17.9998 151.383C17.6009 151.165 17.2824 150.853 17.044 150.445C16.8037 150.035 16.687 149.604 16.6938 149.153C16.6953 148.7 16.8062 148.276 17.0264 147.881C17.2413 147.484 17.5539 147.165 17.9643 146.925C18.3714 146.687 18.8022 146.57 19.2568 146.575C19.7094 146.576 20.1352 146.686 20.534 146.904C20.9275 147.121 21.2444 147.435 21.4847 147.845Z" fill="#136953"/>
<path d="M5.63773 132.163L15.0148 124.376L16.5481 128.794L13.3471 131.474L13.779 132.719L17.9464 132.824L19.4797 137.242L7.29519 136.939L5.63773 132.163ZM11.9839 133.272L11.5898 132.136L10.2805 133.236L11.9839 133.272Z" fill="#136953"/>
<path d="M9.72912 119.926L8.38905 112.287L12.7683 111.519L14.8765 123.537L3.49053 125.535L2.72234 121.156L9.72912 119.926Z" fill="#136953"/>
<path d="M0.657999 101.346C0.626462 99.4028 2.18117 97.7801 4.1405 97.7483L9.17877 97.6665C11.1216 97.6349 12.7447 99.2061 12.7762 101.149L12.8697 106.912C12.885 107.85 12.521 108.762 11.8733 109.448C11.209 110.117 10.326 110.51 9.38723 110.509L4.34896 110.591C3.41073 110.623 2.49901 110.259 1.82972 109.611C1.16017 108.946 0.76704 108.063 0.751539 107.108L0.657999 101.346ZM7.96961 102.314L5.49986 102.354C4.85773 102.365 4.33941 102.9 4.34983 103.542L4.37041 104.81C4.38083 105.452 4.91626 105.97 5.55839 105.96L8.02813 105.92C8.67027 105.909 9.18859 105.374 9.17817 104.732L9.15759 103.464C9.14717 102.822 8.61174 102.304 7.96961 102.314Z" fill="#136953"/>
<path d="M2.46461 86.3811L3.16216 81.9567L14.5647 83.7547L13.8672 88.1791L9.80064 87.5379L9.27748 90.8562L13.344 91.4974L12.6465 95.9218L1.2439 94.1238L1.94145 89.6994L5.55253 90.2688L6.07569 86.9505L2.46461 86.3811Z" fill="#136953"/>
<path d="M6.83761 70.4598L19.0169 69.991L17.5439 74.4297L13.3731 74.6069L12.9581 75.8572L16.2005 78.4776L14.7275 82.9162L5.24532 75.2579L6.83761 70.4598ZM11.1972 75.2034L11.5758 74.0624L9.86792 74.1376L11.1972 75.2034Z" fill="#136953"/>
<path d="M20.2245 59.3036C19.9917 59.7139 19.6791 60.0318 19.2867 60.2574C18.8909 60.481 18.4657 60.5984 18.0112 60.6094C17.5587 60.6171 17.1272 60.5045 16.717 60.2717C16.3033 60.037 15.9854 59.7244 15.7632 59.3338C15.5396 58.938 15.4239 58.5138 15.4162 58.0612C15.4052 57.6067 15.516 57.1743 15.7488 56.764C15.9835 56.3503 16.2978 56.0334 16.6917 55.8131C17.0841 55.5876 17.5066 55.471 17.9592 55.4633C18.4103 55.4503 18.8427 55.5612 19.2563 55.7959C19.6666 56.0287 19.9835 56.343 20.2072 56.7389C20.4327 57.1313 20.5511 57.5548 20.5621 58.0093C20.5717 58.4585 20.4592 58.8899 20.2245 59.3036Z" fill="#136953"/>
</svg>
