<svg width="1504" height="1242" viewBox="0 0 1504 1242" fill="none" xmlns="http://www.w3.org/2000/svg">
<g style="mix-blend-mode:luminosity" opacity="0.1">
<g style="mix-blend-mode:luminosity">
<g style="mix-blend-mode:luminosity">
<g opacity="0.21">
<path opacity="0.6" d="M1024.03 1128.05C1288.59 1128.05 1503.06 909.774 1503.06 640.523C1503.06 371.271 1288.59 153 1024.03 153C759.469 153 545 371.271 545 640.523C545 909.774 759.469 1128.05 1024.03 1128.05Z" fill="#535F57"/>
</g>
<g opacity="0.21">
<path opacity="0.5" d="M1024.03 1023C1231.59 1023 1399.84 851.757 1399.84 640.523C1399.84 429.288 1231.59 258.049 1024.03 258.049C816.476 258.049 648.22 429.288 648.22 640.523C648.22 851.757 816.476 1023 1024.03 1023Z" fill="#535F57"/>
</g>
<g style="mix-blend-mode:luminosity">
<path d="M1024.03 903.408C1166.69 903.408 1282.34 785.71 1282.34 640.522C1282.34 495.334 1166.69 377.636 1024.03 377.636C881.372 377.636 765.724 495.334 765.724 640.522C765.724 785.71 881.372 903.408 1024.03 903.408Z" fill="#535F57"/>
</g>
</g>
</g>
<mask id="mask0_518_4745" style="mask-type:luminance" maskUnits="userSpaceOnUse" x="0" y="-307" width="1440" height="1704">
<path d="M1440 -307H0V1397H1440V-307Z" fill="white"/>
</mask>
<g mask="url(#mask0_518_4745)">
<path d="M1442.92 750.062V1161.52H0.188477V750.062C0.188477 750.062 303.049 672.301 647.929 738.396C907.446 788.136 1364.82 745.812 1441.77 750.003C1442.55 750.003 1442.92 750.062 1442.92 750.062Z" fill="#ADA993"/>
<path opacity="0.3" d="M0.188477 816.302C0.188477 816.302 439.849 756.596 651.126 815.715C862.403 874.835 1242.56 895 1443.21 802.584V1079.63C1443.21 1079.63 935.901 1130.31 622.672 1071.19C309.443 1012.07 0.188477 1095.22 0.188477 1095.22V816.302Z" fill="white"/>
<path style="mix-blend-mode:multiply" opacity="0.44" d="M0.188596 901.54C0.188596 901.54 405.981 880.173 563.776 995.539L-1.0498 1013.18L0.188596 901.54Z" fill="#CDC8A9"/>
<path d="M-2.51855 838.139C137.161 830.284 278.656 822.517 416.003 847.284C524.176 866.805 626.819 905.993 732.544 934.718C881.613 975.196 1045.74 993.984 1189.92 940.551C1277.67 908.016 1354.25 850.098 1446.35 830.255V1160.03H0.188647L-2.51855 838.139Z" fill="#ADA993"/>
<path d="M0.188477 942.808L1444.74 1042.87V1241.52H0.188477V942.808Z" fill="#535F57"/>
<path d="M1492.49 877.854C1493.21 875.07 1493.7 872.168 1493.7 869.237C1493.7 868.24 1493.64 867.244 1493.58 866.218C1493.58 865.807 1493.61 865.397 1493.58 864.987C1493.3 859.476 1492.35 853.966 1490.3 848.895C1490.91 848.514 1491.14 847.606 1490.5 847.019C1490.5 847.019 1413.89 749.708 1387.23 728.781C1358.45 706.241 1335.9 701.991 1335.9 701.991L1337 699.089C1340.6 689.534 1335.9 678.835 1326.51 675.172C1317.13 671.508 1306.61 676.285 1303.01 685.841L1301.83 688.948C1301.83 688.948 1276.23 670.57 1233.66 671.303C1203.77 671.801 1091.62 691.351 1091.62 691.351C1091.19 691.351 1090.9 691.615 1090.7 691.908C1090.56 691.908 1090.41 691.937 1090.27 691.967C1090.35 691.937 1090.44 691.879 1090.53 691.849C1089.55 692.054 1088.6 692.348 1087.62 692.611C1083.76 693.579 1079.99 694.956 1076.36 696.715C1073.48 698.268 1070.68 699.998 1068.18 702.167C1065.7 704.365 1063.6 706.944 1062.07 709.875C1063.02 708.732 1064.06 707.648 1065.1 706.651C1063.2 709.084 1061.67 711.81 1060.78 714.741C1061.79 712.924 1062.97 711.282 1064.23 709.699C1063.66 710.549 1063.02 711.37 1062.53 712.308C1064.67 709.758 1067.06 707.53 1069.65 705.625C1067.43 707.706 1065.5 710.051 1064.12 712.718C1068.29 707.706 1073.51 704.013 1079.18 701.199C1079.24 701.17 1079.32 701.141 1079.38 701.111C1077.68 702.167 1076.01 703.31 1074.46 704.629C1071.98 706.827 1069.88 709.406 1068.35 712.337C1068.9 711.663 1069.53 711.077 1070.14 710.461C1069.19 711.663 1068.32 712.953 1067.63 714.301C1069.33 712.249 1071.26 710.461 1073.31 708.82C1071.58 710.637 1069.99 712.572 1068.87 714.799C1069.22 714.389 1069.62 714.037 1069.96 713.627C1069.73 714.008 1069.45 714.36 1069.24 714.741C1073.22 709.934 1078.17 706.387 1083.56 703.661C1083.27 703.837 1082.98 704.013 1082.69 704.189C1080.07 706.124 1077.51 708.234 1075.38 710.755C1073.28 713.305 1071.63 716.265 1070.71 719.401C1072.47 716.177 1074.75 713.393 1077.31 710.93C1076.33 712.161 1075.47 713.48 1074.75 714.858C1075.29 714.184 1075.93 713.598 1076.5 712.982C1075.55 714.184 1074.69 715.474 1074 716.822C1075.7 714.77 1077.63 712.982 1079.67 711.341C1077.94 713.158 1076.36 715.093 1075.23 717.32C1077.63 714.448 1080.36 712.074 1083.33 709.992C1082.35 710.901 1081.4 711.78 1080.53 712.806C1078.43 715.356 1076.79 718.317 1075.87 721.453C1075.87 721.424 1075.93 721.394 1075.93 721.336C1075.78 721.746 1075.52 722.156 1075.41 722.567C1076.16 721.189 1076.99 719.899 1077.91 718.668C1079.9 716.324 1082.12 714.242 1084.51 712.455C1083.21 713.979 1082 715.591 1081.08 717.349C1081.63 716.675 1082.26 716.089 1082.87 715.474C1081.92 716.675 1081.05 717.965 1080.36 719.313C1082.06 717.261 1083.99 715.474 1086.03 713.832C1084.31 715.649 1082.72 717.584 1081.6 719.812C1082.84 718.317 1084.22 716.968 1085.63 715.679C1083.87 717.496 1082.29 719.46 1081.14 721.687C1081.97 720.691 1082.87 719.782 1083.76 718.874C1083.24 719.636 1082.69 720.368 1082.26 721.16C1082.64 720.691 1083.1 720.281 1083.5 719.841C1083.27 720.222 1082.95 720.574 1082.75 720.984C1084.45 718.932 1086.38 717.144 1088.4 715.503C1086.67 717.32 1085.08 719.255 1083.96 721.482C1084.59 720.72 1085.31 720.017 1086.01 719.313C1085.23 720.368 1084.48 721.424 1083.87 722.567C1086.03 719.987 1088.45 717.76 1091.07 715.825C1090.93 716.001 1090.82 716.148 1090.7 716.324C1089.63 717.467 1088.71 718.698 1087.88 720.017C1086.52 721.57 1085.29 723.212 1084.36 724.999C1086.73 722.156 1089.43 719.782 1092.37 717.701C1090.44 719.636 1088.71 721.746 1087.47 724.15C1088.63 722.772 1089.87 721.512 1091.16 720.31C1090.41 721.336 1089.66 722.362 1089.09 723.475C1090.73 721.482 1092.6 719.753 1094.53 718.17C1094.21 718.522 1093.84 718.815 1093.52 719.167C1093.44 719.255 1093.41 719.372 1093.32 719.46C1092.17 720.867 1091.1 722.332 1090.27 723.944C1090.38 723.827 1090.5 723.71 1090.59 723.593C1089.87 724.941 1089.26 726.348 1088.83 727.784C1089.75 726.113 1090.82 724.589 1091.94 723.124C1090.99 724.325 1090.15 725.615 1089.43 726.963C1090.73 725.381 1092.17 724.003 1093.67 722.684C1092.31 724.706 1091.13 726.846 1090.44 729.162C1092.98 724.531 1096.49 720.779 1100.49 717.643C1101.56 716.998 1102.65 716.411 1103.78 715.855C1103.49 716.03 1103.2 716.206 1102.91 716.382C1100.29 718.317 1097.73 720.427 1095.6 722.948C1093.49 725.498 1091.85 728.458 1090.93 731.594C1092.31 729.044 1094.04 726.787 1095.94 724.706C1095.48 725.41 1094.93 726.113 1094.53 726.875C1096.14 724.912 1097.96 723.212 1099.89 721.658C1098.65 723.124 1097.5 724.677 1096.6 726.406C1097.84 724.912 1099.23 723.563 1100.64 722.274C1098.88 724.091 1097.3 726.055 1096.14 728.282C1096.98 727.286 1097.87 726.377 1098.76 725.468C1098.25 726.231 1097.7 726.963 1097.27 727.755C1099.83 724.677 1102.8 722.156 1105.99 719.987C1104.09 721.512 1102.25 723.094 1100.69 724.97C1098.59 727.52 1096.95 730.481 1096.03 733.617C1097.81 730.334 1100.15 727.52 1102.74 724.999C1102.16 725.703 1101.73 726.494 1101.27 727.256C1099.92 728.81 1098.68 730.451 1097.76 732.239C1098.91 730.862 1100.15 729.601 1101.44 728.4C1100.69 729.425 1099.95 730.451 1099.37 731.565C1101.73 728.722 1104.44 726.348 1107.38 724.267C1105.45 726.201 1103.72 728.312 1102.48 730.715C1103.4 729.601 1104.41 728.546 1105.45 727.579C1105.36 727.872 1105.65 728.194 1105.96 728.106C1106.31 728.165 1106.63 728.106 1106.97 728.106C1105.68 730.07 1104.55 732.151 1103.89 734.379C1104.81 732.708 1105.88 731.184 1107 729.719C1106.05 730.92 1105.22 732.21 1104.5 733.558C1106.43 731.213 1108.61 729.191 1110.98 727.374C1111.35 727.286 1111.75 727.198 1112.13 727.081C1111.81 727.374 1111.52 727.725 1111.21 728.018C1111 728.194 1110.75 728.312 1110.54 728.517C1109.62 729.337 1108.76 730.246 1107.95 731.213C1106.6 732.562 1105.45 734.086 1104.5 735.815C1104.78 735.434 1105.19 735.17 1105.5 734.819C1105.04 735.698 1104.64 736.606 1104.35 737.574C1104.7 736.9 1105.22 736.372 1105.62 735.786C1105.16 736.812 1104.64 737.808 1104.32 738.893C1105.16 737.398 1106.08 735.991 1107.09 734.672C1106.74 735.2 1106.37 735.698 1106.08 736.255C1106.43 735.815 1106.89 735.493 1107.26 735.082C1106.77 736.108 1106.28 737.134 1105.94 738.219C1107.12 736.05 1108.59 734.115 1110.14 732.298C1110.26 732.21 1110.37 732.151 1110.49 732.093C1110.2 732.591 1109.82 733.031 1109.54 733.529C1110.17 732.767 1110.86 732.093 1111.55 731.389C1111.95 731.125 1112.36 730.862 1112.76 730.598C1112.76 730.627 1112.76 730.656 1112.73 730.686C1112.16 732.21 1111.72 733.793 1111.23 735.346C1110.63 736.137 1110.08 736.958 1109.59 737.867C1109.94 737.398 1110.43 737.075 1110.8 736.665C1110.37 738.072 1109.85 739.479 1109.42 740.915C1110.31 739.127 1111.12 737.31 1111.98 735.493C1112.99 734.555 1114.03 733.705 1115.12 732.913C1113.42 734.467 1111.9 736.225 1110.77 738.306C1111.03 737.955 1111.41 737.72 1111.7 737.398C1111.52 737.691 1111.32 737.955 1111.15 738.248C1112.7 736.284 1114.58 734.789 1116.56 733.412C1116.07 734.174 1115.5 734.877 1115.09 735.669C1116.1 734.467 1117.17 733.324 1118.29 732.269C1118.49 732.122 1118.67 731.975 1118.87 731.829C1122.21 729.865 1125.81 728.37 1129.52 727.256C1129.98 727.081 1130.47 726.993 1130.93 726.817C1129.98 727.198 1129.03 727.52 1128.08 727.931C1124.8 729.513 1121.55 731.301 1118.78 733.822C1116.02 736.255 1113.68 739.332 1112.62 742.879C1114.32 739.625 1116.88 737.075 1119.64 734.906C1122.44 732.737 1125.55 731.008 1128.8 729.601C1132 728.048 1135.34 726.846 1138.74 725.703C1139.49 725.468 1140.29 725.263 1141.04 724.999C1137.24 726.436 1133.61 728.312 1130.19 730.569C1127.56 732.503 1125 734.613 1122.87 737.134C1120.77 739.684 1119.13 742.644 1118.2 745.781C1121.34 740.065 1125.95 735.61 1131.19 732.093C1133.76 730.217 1136.52 728.693 1139.31 727.139C1141.24 726.113 1143.2 725.205 1145.19 724.237L1147.81 725.703C1144.07 726.67 1140.38 728.019 1136.87 729.719C1133.99 731.272 1131.19 733.001 1128.69 735.17C1126.21 737.369 1124.11 739.948 1122.58 742.879C1124.28 740.827 1126.21 739.039 1128.23 737.398C1126.5 739.215 1124.91 741.15 1123.79 743.377C1126.18 740.505 1128.92 738.131 1131.88 736.05C1130.91 736.958 1129.95 737.838 1129.09 738.863C1126.99 741.413 1125.35 744.374 1124.43 747.51C1125.43 745.693 1126.61 744.051 1127.88 742.469C1127.31 743.319 1126.67 744.139 1126.18 745.048C1129.7 740.827 1133.96 737.574 1138.62 734.965C1137.39 735.786 1136.15 736.665 1135.02 737.662C1132.55 739.86 1130.44 742.439 1128.92 745.37C1130.62 743.319 1132.55 741.531 1134.56 739.889C1132.83 741.707 1131.25 743.641 1130.13 745.869C1133.3 742.058 1137.04 739.039 1141.16 736.577C1139.86 737.427 1138.59 738.365 1137.39 739.391C1134.91 741.589 1132.81 744.169 1131.28 747.1C1132.98 745.048 1134.91 743.26 1136.95 741.619C1135.23 743.436 1133.64 745.37 1132.52 747.598C1136.03 743.377 1140.29 740.124 1144.96 737.515C1143.72 738.336 1142.48 739.215 1141.36 740.212C1139.43 741.912 1137.82 743.963 1136.43 746.103C1135.08 747.657 1133.84 749.298 1132.92 751.086C1136 747.363 1139.66 744.403 1143.63 741.97C1141.22 744.139 1139.11 746.719 1137.64 749.562C1139.34 747.51 1141.27 745.722 1143.32 744.081C1141.59 745.898 1140.01 747.832 1138.88 750.06C1143.06 745.048 1148.27 741.355 1153.95 738.541C1156.74 737.046 1159.71 735.874 1162.67 734.672C1162.84 734.613 1163.05 734.555 1163.22 734.467L1165 735.463C1160.63 736.431 1156.39 737.955 1152.33 739.919C1149.45 741.472 1146.66 743.201 1144.15 745.37C1141.68 747.569 1139.57 750.148 1138.05 753.079C1142.02 748.272 1146.98 744.726 1152.36 742C1152.07 742.176 1151.79 742.351 1151.5 742.527C1148.88 744.462 1146.31 746.572 1144.18 749.093C1142.08 751.643 1140.44 754.603 1139.52 757.739C1141.13 754.808 1143.12 752.229 1145.39 749.913C1144.93 750.617 1144.38 751.291 1144.01 752.053C1145.71 750.001 1147.64 748.213 1149.68 746.572C1147.95 748.389 1146.37 750.324 1145.25 752.551C1149.42 747.539 1154.64 743.846 1160.31 741.032C1162.9 739.625 1165.67 738.541 1168.43 737.427L1169.64 738.131C1165.06 739.625 1160.71 741.853 1156.65 744.52C1154.03 746.455 1151.47 748.565 1149.34 751.086C1147.23 753.636 1145.59 756.596 1144.67 759.732C1147.49 754.603 1151.5 750.529 1156.08 747.188C1154.32 748.829 1152.79 750.705 1151.53 752.698C1150.17 754.251 1148.93 755.893 1148.01 757.681C1148.53 757.065 1149.11 756.508 1149.68 755.922C1149.54 756.186 1149.34 756.391 1149.19 756.655C1150.17 755.453 1151.24 754.369 1152.33 753.313C1155.07 750.881 1158.12 748.858 1161.35 747.129C1159.19 748.8 1157.11 750.558 1155.33 752.669C1153.23 755.219 1151.58 758.179 1150.66 761.315C1152.45 758.033 1154.78 755.219 1157.4 752.698C1155.56 754.574 1153.92 756.596 1152.71 758.912C1153.66 757.769 1154.69 756.713 1155.73 755.688C1154.75 756.948 1153.89 758.267 1153.14 759.645C1153.14 759.645 1153.14 759.645 1153.14 759.674C1152.45 760.993 1151.84 762.37 1151.41 763.777C1154.2 758.677 1158.18 754.632 1162.73 751.32C1164.26 750.324 1165.81 749.415 1167.42 748.595C1167.14 748.77 1166.85 748.946 1166.56 749.122C1163.94 751.057 1161.38 753.167 1159.24 755.688C1157.14 758.238 1155.5 761.198 1154.58 764.334C1156.39 761.051 1158.7 758.238 1161.32 755.717C1159.47 757.593 1157.83 759.615 1156.62 761.931C1157.57 760.788 1158.61 759.703 1159.65 758.707C1157.75 761.139 1156.22 763.865 1155.33 766.796C1158.47 761.081 1163.07 756.626 1168.32 753.108C1170.48 751.526 1172.81 750.177 1175.17 748.888C1175.4 748.77 1175.63 748.682 1175.89 748.565C1174.45 749.357 1173.04 750.207 1171.66 751.115C1169.47 752.727 1167.37 754.515 1165.49 756.538C1165.26 756.743 1164.98 756.889 1164.75 757.095C1162.27 759.293 1160.17 761.872 1158.64 764.803C1159.65 763.602 1160.71 762.488 1161.84 761.403C1160.94 762.986 1160.17 764.627 1159.68 766.327C1161.52 762.986 1163.88 760.114 1166.56 757.564C1168.83 755.951 1171.23 754.515 1173.73 753.284C1173.79 753.255 1173.87 753.226 1173.93 753.196C1172.23 754.251 1170.56 755.395 1169.01 756.714C1166.53 758.912 1164.43 761.491 1162.9 764.422C1163.45 763.748 1164.08 763.162 1164.69 762.546C1163.74 763.748 1162.87 765.038 1162.18 766.386C1163.88 764.334 1165.81 762.546 1167.83 760.905C1166.1 762.722 1164.51 764.657 1163.39 766.884C1163.74 766.474 1164.14 766.122 1164.49 765.712C1164.26 766.093 1163.97 766.445 1163.77 766.826C1167.74 762.019 1172.69 758.472 1178.08 755.717C1177.79 755.893 1177.5 756.069 1177.22 756.245C1174.59 758.179 1172.03 760.289 1169.9 762.81C1167.8 765.36 1166.16 768.32 1165.23 771.457C1166.99 768.233 1169.27 765.448 1171.83 762.986C1170.85 764.217 1169.99 765.536 1169.27 766.914C1169.81 766.239 1170.45 765.653 1171.02 765.038C1170.07 766.239 1169.21 767.529 1168.52 768.877C1172.69 763.865 1177.91 760.172 1183.58 757.358C1183.81 757.241 1184.1 757.153 1184.33 757.036C1183.67 757.446 1182.98 757.827 1182.34 758.238C1179.72 760.172 1177.16 762.283 1175.03 764.803C1172.92 767.353 1171.28 770.314 1170.36 773.45C1170.36 773.421 1170.42 773.391 1170.42 773.333C1170.27 773.743 1170.02 774.124 1169.9 774.564C1170.65 773.186 1171.48 771.896 1172.41 770.665C1174.39 768.321 1176.61 766.269 1179 764.452C1177.71 765.976 1176.5 767.558 1175.57 769.346C1176.12 768.672 1176.75 768.086 1177.33 767.471C1176.38 768.672 1175.52 769.962 1174.83 771.31C1179 766.298 1184.21 762.605 1189.89 759.791C1192.68 758.296 1195.65 757.124 1198.61 755.922C1199.13 755.717 1199.68 755.57 1200.2 755.365L1201.41 756.039C1200.98 756.157 1200.57 756.274 1200.14 756.391C1197 757.329 1193.95 758.531 1190.98 759.967C1190.95 759.967 1190.92 759.996 1190.9 760.026C1190.55 760.172 1190.2 760.319 1189.86 760.495C1186.98 762.048 1184.19 763.777 1181.68 765.946C1179.2 768.145 1177.1 770.724 1175.57 773.655C1176.41 772.658 1177.3 771.75 1178.19 770.841C1177.68 771.603 1177.13 772.336 1176.7 773.127C1177.07 772.658 1177.53 772.248 1177.94 771.808C1177.71 772.189 1177.39 772.541 1177.19 772.952C1178.89 770.9 1180.82 769.112 1182.83 767.471C1181.1 769.288 1179.52 771.222 1178.4 773.45C1179.03 772.688 1179.75 771.984 1180.44 771.281C1179.66 772.336 1178.91 773.391 1178.31 774.534C1180.47 771.955 1182.89 769.727 1185.51 767.793C1185.37 767.969 1185.25 768.115 1185.14 768.291C1183.58 769.991 1182.17 771.779 1181.13 773.802C1185.31 768.79 1190.52 765.096 1196.19 762.283C1198.99 760.788 1201.95 759.615 1204.92 758.414C1205.04 758.355 1205.15 758.326 1205.3 758.296L1206.39 758.912C1206.04 759.029 1205.7 759.176 1205.35 759.322C1203.91 759.791 1202.47 760.319 1201.06 760.905C1199.42 761.55 1197.78 762.224 1196.19 762.986C1193.31 764.539 1190.52 766.269 1188.02 768.438C1185.54 770.636 1183.44 773.215 1181.91 776.146C1183.06 774.769 1184.3 773.508 1185.6 772.307C1184.85 773.333 1184.1 774.358 1183.52 775.472C1185.16 773.479 1187.04 771.75 1188.97 770.167C1188.65 770.519 1188.27 770.812 1187.96 771.164C1187.87 771.252 1187.84 771.369 1187.76 771.457C1186.6 772.864 1185.54 774.329 1184.7 775.941C1184.82 775.824 1184.93 775.707 1185.02 775.59C1184.3 776.938 1183.7 778.345 1183.26 779.781C1184.19 778.11 1185.25 776.586 1186.37 775.121C1185.42 776.322 1184.59 777.612 1183.87 778.96C1185.16 777.377 1186.6 776 1188.1 774.681C1186.75 776.703 1185.57 778.843 1184.88 781.159C1187.41 776.527 1190.92 772.776 1194.93 769.639C1196.22 768.848 1197.58 768.115 1198.96 767.441C1199.13 767.353 1199.31 767.295 1199.45 767.236C1197.66 768.35 1195.91 769.493 1194.29 770.9C1191.82 773.098 1189.71 775.677 1188.19 778.609C1189.17 777.436 1190.23 776.322 1191.3 775.296C1190.43 776.44 1189.6 777.641 1188.94 778.931C1190.55 776.967 1192.36 775.267 1194.29 773.714C1193.06 775.179 1191.9 776.733 1191.01 778.462C1192.25 776.967 1193.63 775.619 1195.04 774.329C1193.29 776.146 1191.7 778.11 1190.55 780.338C1191.39 779.341 1192.28 778.433 1193.17 777.524C1192.65 778.286 1192.11 779.019 1191.67 779.81C1195.82 774.798 1201 771.134 1206.68 768.35C1209.15 767.089 1211.72 766.005 1214.34 764.979C1214.86 764.774 1215.43 764.627 1215.95 764.422L1216.59 764.774C1215.61 765.126 1214.63 765.507 1213.65 765.888C1212.01 766.533 1210.36 767.207 1208.78 767.969C1205.9 769.522 1203.11 771.252 1200.6 773.421C1198.67 775.121 1197.06 777.143 1195.68 779.312C1194.32 780.865 1193.08 782.507 1192.16 784.295C1193.49 782.712 1194.93 781.305 1196.43 779.986C1196.34 780.133 1196.22 780.279 1196.14 780.426C1196.43 780.074 1196.74 779.781 1197.06 779.459C1198.9 777.876 1200.83 776.44 1202.91 775.179C1200.49 777.348 1198.38 779.898 1196.91 782.771C1199.54 779.605 1202.62 777.026 1205.93 774.798C1204.89 775.736 1203.88 776.703 1202.96 777.788C1201.9 779.077 1200.95 780.484 1200.17 781.979C1199.07 783.327 1198.1 784.764 1197.32 786.288C1197.92 785.555 1198.59 784.91 1199.25 784.236C1198.93 784.969 1198.56 785.672 1198.33 786.434C1199.05 785.115 1199.88 783.855 1200.75 782.653C1200.83 782.565 1200.92 782.507 1201 782.448C1200.26 783.474 1199.51 784.5 1198.93 785.614C1200.6 783.591 1202.5 781.833 1204.49 780.191C1203.68 781.276 1202.88 782.419 1202.24 783.621C1202.36 783.474 1202.5 783.357 1202.62 783.21C1201.78 784.295 1201 785.438 1200.37 786.64C1202.44 784.148 1204.78 781.979 1207.28 780.103C1205.99 781.628 1204.78 783.24 1203.86 784.998C1204.4 784.324 1205.04 783.738 1205.61 783.122C1204.66 784.324 1203.8 785.614 1203.11 786.962C1207.28 781.95 1212.5 778.257 1218.17 775.443C1220.96 773.948 1223.93 772.776 1226.9 771.574C1227.27 771.427 1227.67 771.31 1228.05 771.164L1229.2 771.808C1228.94 771.896 1228.65 771.955 1228.39 772.043C1225.25 772.981 1222.2 774.183 1219.26 775.619C1216.38 777.172 1213.59 778.902 1211.08 781.071C1210.8 781.334 1210.57 781.627 1210.31 781.891C1209.99 782.126 1209.64 782.272 1209.33 782.507C1206.99 784.295 1205.18 786.728 1203.86 789.278C1204.63 788.369 1205.47 787.548 1206.33 786.727C1205.9 787.402 1205.38 788.046 1205.01 788.75C1205.38 788.281 1205.84 787.871 1206.25 787.431C1206.02 787.812 1205.7 788.164 1205.5 788.574C1207.2 786.522 1209.13 784.734 1211.17 783.093C1209.44 784.91 1207.86 786.845 1206.74 789.072C1207.34 788.34 1208.03 787.695 1208.69 786.991C1207.95 787.988 1207.25 789.043 1206.68 790.128C1208.52 788.017 1210.51 786.141 1212.75 784.676C1211.52 786.141 1210.39 787.695 1209.5 789.395C1211.8 786.64 1214.43 784.295 1217.28 782.272C1218.31 781.803 1219.35 781.364 1220.44 781.041C1220.79 780.924 1221.16 780.865 1221.54 780.748C1220.3 781.569 1219.12 782.419 1218 783.386C1217.85 783.533 1217.71 783.709 1217.56 783.855C1216.96 784.236 1216.33 784.559 1215.75 784.998C1213.42 786.815 1211.6 789.219 1210.28 791.769C1211.34 790.538 1212.5 789.424 1213.68 788.369C1213.04 789.248 1212.41 790.128 1211.89 791.095C1213.59 789.043 1215.52 787.255 1217.54 785.614C1215.81 787.431 1214.22 789.365 1213.1 791.593C1213.19 791.505 1213.27 791.447 1213.33 791.329C1212.64 792.648 1212.09 794.026 1211.66 795.433C1212.44 794.114 1213.24 792.883 1214.14 791.71C1213.47 792.648 1212.81 793.586 1212.27 794.612C1213.5 793.176 1214.86 791.916 1216.27 790.743C1214.94 792.619 1213.91 794.671 1213.24 796.81C1214.68 794.378 1216.24 792.121 1218.23 790.274C1219.81 788.838 1221.54 787.578 1223.38 786.522C1223.53 786.464 1223.67 786.405 1223.81 786.347C1223.21 786.728 1222.58 787.05 1222.03 787.49C1219.7 789.307 1217.88 791.71 1216.56 794.26C1217.45 793.234 1218.4 792.238 1219.38 791.329C1218.6 792.355 1217.88 793.44 1217.31 794.553C1218.72 792.941 1220.24 791.534 1221.86 790.274C1220.93 791.476 1220.07 792.736 1219.38 794.055C1221.6 791.388 1224.1 789.131 1226.81 787.167C1228.19 786.493 1229.6 785.907 1231.07 785.438C1231.24 785.379 1231.45 785.35 1231.62 785.291C1230.78 785.643 1229.95 785.965 1229.14 786.376C1227.47 787.167 1225.86 788.047 1224.39 789.19C1222.06 791.007 1220.24 793.41 1218.92 795.96C1219.7 795.081 1220.5 794.26 1221.34 793.469C1220.91 794.114 1220.42 794.759 1220.07 795.433C1221.97 793.264 1224.02 791.329 1226.35 789.805C1227.39 789.16 1228.45 788.574 1229.55 788.047C1230.55 787.607 1231.56 787.167 1232.63 786.845C1231.94 787.343 1231.24 787.812 1230.58 788.369C1230.44 788.516 1230.29 788.691 1230.15 788.838C1229.55 789.219 1228.91 789.541 1228.34 789.981C1226.41 791.476 1224.94 793.41 1223.7 795.462C1222.46 796.84 1221.37 798.335 1220.53 799.947C1220.88 799.566 1221.25 799.214 1221.6 798.862C1221.6 798.891 1221.54 798.921 1221.54 798.979C1222.2 798.217 1222.92 797.514 1223.64 796.81C1224.65 795.902 1225.69 795.081 1226.81 794.348C1227.7 793.791 1228.65 793.293 1229.6 792.824C1227.85 794.466 1226.35 796.371 1225.25 798.481C1227.15 796.312 1229.2 794.348 1231.53 792.853C1232.02 792.531 1232.57 792.297 1233.09 792.003C1233.06 792.15 1233 792.326 1232.97 792.472C1232.17 793.147 1231.36 793.821 1230.67 794.612C1229.75 795.638 1229 796.781 1228.36 797.983C1227.33 799.243 1226.41 800.562 1225.66 801.998C1226.23 801.354 1226.84 800.767 1227.44 800.152C1227.18 800.826 1226.87 801.471 1226.64 802.145C1227.33 800.943 1228.08 799.8 1228.88 798.716C1228.94 798.657 1229 798.628 1229.03 798.598C1228.39 799.478 1227.76 800.357 1227.24 801.324C1228.65 799.624 1230.24 798.1 1231.88 796.693C1231.76 797.074 1231.68 797.485 1231.56 797.866C1230.06 799.507 1228.71 801.266 1227.7 803.229C1228.77 801.94 1229.92 800.738 1231.1 799.624C1231.04 799.8 1231.01 799.976 1230.96 800.152L1228.59 805.135C1229.2 804.372 1229.69 803.522 1230.27 802.76C1230.03 803.61 1229.8 804.431 1229.6 805.31C1230.35 803.874 1230.93 802.379 1231.59 800.914C1231.94 800.416 1232.31 799.947 1232.63 799.448L1230.24 804.519C1231.96 802.379 1233.58 800.152 1234.96 797.748C1235.36 797.133 1235.68 796.429 1236.05 795.755C1236.17 795.667 1236.31 795.579 1236.43 795.491C1236.03 796.371 1235.65 797.221 1235.22 798.129L1231.71 805.545C1233.43 803.405 1235.05 801.178 1236.43 798.774C1237.44 797.162 1238.3 795.403 1239.14 793.703C1240.06 793.176 1240.98 792.678 1241.93 792.179C1242.33 792.062 1242.74 791.945 1243.17 791.828C1242.39 793.821 1241.44 795.784 1240.46 797.748C1240.37 797.836 1240.26 797.895 1240.14 797.983C1237.67 800.181 1235.56 802.76 1234.04 805.691C1235.51 803.903 1237.15 802.35 1238.88 800.914C1237.64 803.317 1236.4 805.75 1235.19 808.212C1236.14 807.01 1237.03 805.809 1237.93 804.548C1237.41 805.604 1236.86 806.629 1236.34 807.685C1236.77 807.128 1237.18 806.571 1237.58 806.014C1237.32 806.512 1237.06 807.01 1236.83 807.509C1238.65 805.193 1240.35 802.79 1241.93 800.298C1240.63 802.848 1239.31 805.398 1238.04 807.978C1238.53 807.333 1238.99 806.688 1239.48 806.043C1238.96 807.04 1238.44 808.036 1237.95 809.062C1241.24 804.871 1244.15 800.445 1246.54 795.609C1246.74 795.491 1246.91 795.403 1247.11 795.286L1247.89 797.045C1247.75 797.602 1247.57 798.129 1247.43 798.686C1245.99 800.181 1244.69 801.852 1243.74 803.669C1244.64 802.643 1245.56 801.705 1246.51 800.797C1246.51 800.855 1246.45 800.885 1246.45 800.943C1245.73 801.91 1245.07 802.907 1244.52 803.962C1244.81 803.64 1245.13 803.376 1245.41 803.053C1244.12 805.574 1242.82 808.095 1241.58 810.645C1243.05 808.769 1244.41 806.835 1245.73 804.871C1245.73 804.959 1245.67 805.017 1245.67 805.105C1244.84 806.717 1244 808.329 1243.23 809.971C1243.8 809.209 1244.38 808.447 1244.92 807.685C1244.26 809.883 1243.57 812.081 1242.99 814.309C1243.8 812.726 1244.46 811.085 1245.18 809.473C1245.67 808.828 1246.19 808.154 1246.65 807.479C1245.64 809.473 1244.61 811.466 1243.63 813.488C1244.55 812.316 1245.44 811.085 1246.34 809.883C1245.76 811.817 1245.15 813.723 1244.64 815.716C1246.25 812.579 1247.66 809.326 1248.93 806.014C1249.53 805.076 1250.08 804.079 1250.63 803.112L1251.23 804.519C1251.23 804.519 1251.06 804.783 1250.97 804.9C1249.73 806.278 1248.64 807.773 1247.8 809.385C1249.01 807.978 1250.34 806.747 1251.69 805.604L1252.61 807.714C1252.61 807.714 1252.56 807.802 1252.53 807.86C1252.56 807.831 1252.61 807.802 1252.64 807.743L1254.11 811.085C1254.05 811.231 1254 811.378 1253.94 811.524C1254 811.407 1254.08 811.319 1254.17 811.202L1254.37 811.671C1254.05 811.759 1253.77 811.847 1253.45 811.876C1253.1 811.964 1252.7 811.817 1252.93 811.378C1252.56 811.729 1253.05 812.169 1253.42 812.081C1253.79 812.14 1254.14 812.081 1254.51 812.081L1257.05 817.885L1156.51 1084.64L1183.78 1095.28L1283.95 829.492L1295.04 824.48C1295.3 825.886 1295.67 827.264 1296.42 828.114C1295.9 827.645 1296.13 825.974 1296.04 824.948V824.362C1296.13 824.597 1296.22 824.802 1296.33 825.036C1296.65 825.593 1296.97 826.121 1297.34 826.649C1297.51 826.912 1297.71 827.176 1297.95 827.381C1297.97 827.44 1298.06 827.411 1298.12 827.44C1298.26 827.674 1298.38 827.967 1298.55 828.173C1298.41 828.026 1298.32 827.792 1298.26 827.498C1298.46 827.498 1298.69 827.411 1298.61 827.147C1298.49 827.499 1298.38 827.469 1298.23 827.352C1298.15 826.649 1298.23 825.681 1298.15 825.007L1298.06 823.102L1298.23 823.014C1298.41 823.278 1298.55 823.542 1298.72 823.805C1298.9 824.069 1299.1 824.333 1299.33 824.538C1299.47 824.802 1299.73 824.714 1299.85 824.538C1300.11 824.978 1300.36 825.417 1300.68 825.857C1300.85 826.121 1301.06 826.385 1301.29 826.59C1301.49 826.971 1302.03 826.766 1301.95 826.355C1301.66 827.235 1301.23 826.004 1301.06 825.623C1301 825.476 1300.94 825.3 1300.88 825.124C1301.08 825.124 1301.23 824.978 1301.17 824.743C1301.06 825.066 1300.94 825.066 1300.83 824.978C1300.71 824.597 1300.57 824.245 1300.45 823.864L1299.9 822.164L1301.11 821.607C1301.34 822.047 1301.52 822.516 1301.75 822.955C1302.06 823.512 1302.38 824.04 1302.75 824.567C1302.87 824.743 1303.04 824.919 1303.19 825.095C1303.24 825.212 1303.3 825.33 1303.36 825.447C1303.68 826.004 1303.99 826.531 1304.37 827.059C1304.54 827.323 1304.74 827.586 1304.97 827.792C1305.17 828.173 1305.72 827.968 1305.63 827.557C1305.35 828.436 1304.91 827.205 1304.74 826.824C1304.51 826.268 1304.34 825.652 1304.17 825.066L1304.02 824.597C1304.34 825.154 1304.66 825.681 1305.03 826.209C1305.2 826.473 1305.4 826.736 1305.63 826.942C1305.78 827.205 1306.04 827.117 1306.15 826.942C1306.41 827.381 1306.67 827.821 1306.99 828.261C1307.16 828.524 1307.36 828.788 1307.59 828.993C1307.79 829.374 1308.34 829.169 1308.26 828.759C1307.97 829.638 1307.54 828.407 1307.36 828.026C1307.36 827.997 1307.36 827.968 1307.33 827.938C1307.56 827.997 1307.82 827.88 1307.74 827.616C1307.59 828.055 1307.42 827.968 1307.25 827.733C1307.25 827.674 1307.22 827.616 1307.19 827.557C1307.39 827.557 1307.54 827.411 1307.48 827.176C1307.36 827.499 1307.25 827.498 1307.13 827.411C1307.02 827.03 1306.87 826.678 1306.76 826.297L1305.63 822.75L1304.77 819.907L1305.55 819.555C1305.87 820.376 1306.1 821.197 1306.44 821.988C1306.96 823.131 1307.48 824.274 1308.05 825.388C1308.37 825.945 1308.69 826.473 1309.06 827C1309.12 827.059 1309.18 827.118 1309.23 827.205C1309.32 829.228 1309.44 831.221 1309.38 833.273C1309.52 832.716 1309.61 832.1 1309.72 831.543C1309.55 832.481 1309.49 833.39 1309.29 834.328C1309.58 833.683 1309.81 833.009 1310.07 832.364C1310.07 833.214 1310.16 834.035 1310.13 834.885C1310.56 833.185 1310.88 831.426 1311.08 829.668C1311.19 829.345 1311.25 828.993 1311.34 828.671C1311.51 828.935 1311.71 829.199 1311.94 829.404C1312.14 829.785 1312.69 829.58 1312.6 829.169C1312.32 830.049 1311.88 828.817 1311.71 828.436C1311.63 828.261 1311.6 828.055 1311.54 827.88C1311.63 827.469 1311.77 827.088 1311.83 826.678C1311.91 826.854 1312 827.059 1312.09 827.235C1312.09 827.235 1312.09 827.235 1312.09 827.264C1312.26 827.645 1312.43 828.026 1312.6 828.378C1312.6 829.755 1312.75 831.104 1312.69 832.511C1312.95 831.543 1313.09 830.576 1313.3 829.58C1313.47 829.873 1313.64 830.166 1313.81 830.43C1313.99 830.693 1314.19 830.957 1314.42 831.162C1314.59 831.485 1314.94 831.338 1315.02 831.045C1315.05 832.511 1315.17 833.947 1315.11 835.412C1315.11 835.324 1315.14 835.237 1315.17 835.149C1315.17 835.705 1315.23 836.262 1315.2 836.819C1315.86 834.299 1316.26 831.661 1316.35 828.993C1316.61 827.411 1316.78 825.828 1316.75 824.216C1316.78 821.314 1316.49 818.383 1316.03 815.51C1315.97 815.276 1315.92 815.012 1315.86 814.778L1316.69 814.397C1317.99 820.757 1318.77 827.176 1318.51 833.771C1318.68 833.068 1318.8 832.335 1318.94 831.631C1318.94 832.745 1319.06 833.83 1319 834.943C1319.34 833.595 1319.63 832.218 1319.83 830.811C1319.83 831.631 1319.92 832.423 1319.89 833.243C1320.44 831.162 1320.75 828.993 1320.93 826.824C1321.13 829.55 1321.22 832.276 1321.1 835.031C1321.39 833.947 1321.59 832.833 1321.79 831.69C1321.79 832.892 1321.91 834.093 1321.88 835.324C1322.6 832.54 1323.09 829.638 1323.09 826.707C1323.12 823.805 1322.83 820.874 1322.37 818.002C1321.99 816.126 1321.5 814.309 1320.99 812.492L1321.45 812.286C1322.28 815.364 1323 818.442 1323.58 821.548C1323.89 824.743 1324.07 827.968 1323.98 831.221C1323.72 833.976 1323.32 836.731 1322.68 839.486C1323.55 837.611 1324.24 835.647 1324.76 833.624C1324.82 835.266 1324.93 836.878 1324.87 838.519C1325.02 837.962 1325.1 837.376 1325.22 836.79C1325.05 837.699 1324.99 838.637 1324.79 839.545C1325.94 837.083 1326.86 834.416 1327.38 831.69C1327.41 833.185 1327.52 834.65 1327.47 836.174C1327.72 835.119 1327.93 834.035 1328.13 832.95C1328.19 834.562 1328.3 836.145 1328.24 837.757C1328.96 834.973 1329.45 832.071 1329.45 829.14C1329.48 826.238 1329.19 823.307 1328.73 820.435C1328.36 818.617 1327.9 816.8 1327.38 815.042C1327.15 813.693 1326.86 812.374 1326.51 811.055L1327.23 811.231C1329.39 819.497 1330.69 827.88 1330.37 836.526C1331.04 833.918 1331.47 831.221 1331.53 828.495C1331.9 831.954 1332.1 835.471 1331.96 839.018C1332.22 838.05 1332.39 837.054 1332.56 836.087C1332.56 836.79 1332.65 837.464 1332.62 838.197C1333.17 836.028 1333.51 833.771 1333.69 831.485C1333.83 833.859 1333.95 836.233 1333.83 838.666C1333.92 838.314 1333.97 837.962 1334.06 837.611C1334.06 838.109 1334.12 838.607 1334.09 839.135C1334.26 838.431 1334.38 837.699 1334.52 836.995C1334.52 838.109 1334.64 839.193 1334.58 840.307C1335.3 837.523 1335.79 834.621 1335.79 831.69C1335.82 828.788 1335.53 825.857 1335.07 822.985C1334.35 819.35 1333.28 815.774 1331.87 812.374L1333.25 812.697C1335.59 821.314 1337.06 830.019 1336.71 839.076C1337 837.933 1337.23 836.79 1337.43 835.618C1337.43 836.116 1337.49 836.614 1337.46 837.112C1338.03 834.885 1338.38 832.569 1338.52 830.224C1338.87 833.683 1339.1 837.171 1338.96 840.718C1339.39 839.047 1339.68 837.318 1339.91 835.559C1340.17 834.386 1340.37 833.214 1340.51 832.042C1340.74 834.973 1340.86 837.933 1340.74 840.923C1340.89 840.366 1340.97 839.75 1341.09 839.193C1340.91 840.131 1340.86 841.04 1340.66 841.978C1340.94 841.333 1341.17 840.659 1341.43 840.014C1341.43 840.864 1341.52 841.685 1341.49 842.535C1341.92 840.835 1342.24 839.076 1342.44 837.318C1342.82 836.087 1343.16 834.826 1343.39 833.536C1343.56 832.511 1343.65 831.485 1343.77 830.43C1344.08 833.654 1344.23 836.907 1344.11 840.19C1344.83 837.406 1345.32 834.504 1345.32 831.573C1345.32 829.668 1345.21 827.733 1344.98 825.828C1345.47 828.319 1345.84 830.811 1346.1 833.302C1346.19 835.178 1346.3 837.024 1346.21 838.93C1346.33 838.519 1346.39 838.08 1346.47 837.669C1346.59 839.926 1346.7 842.212 1346.62 844.499C1347.28 841.949 1347.68 839.34 1347.77 836.673C1348.03 835.09 1348.2 833.507 1348.17 831.895C1348.2 828.993 1347.91 826.062 1347.45 823.19C1346.93 820.581 1346.24 818.002 1345.38 815.481L1346.67 815.774C1348.89 824.157 1350.25 832.657 1349.9 841.45C1350.07 840.747 1350.19 840.014 1350.33 839.311C1350.33 840.424 1350.45 841.509 1350.39 842.594C1350.74 841.245 1351.02 839.868 1351.23 838.461C1351.23 839.281 1351.31 840.073 1351.28 840.893C1351.83 838.812 1352.15 836.643 1352.32 834.445C1352.52 837.171 1352.61 839.897 1352.49 842.652C1352.78 841.568 1352.98 840.454 1353.18 839.311C1353.18 840.512 1353.3 841.714 1353.27 842.945C1353.99 840.161 1354.48 837.259 1354.48 834.328C1354.51 831.426 1354.22 828.495 1353.76 825.623C1353.15 822.633 1352.35 819.702 1351.31 816.829L1351.97 816.976C1353.15 820.992 1354.22 825.036 1354.94 829.14C1355.26 832.335 1355.43 835.559 1355.34 838.812C1355.08 841.568 1354.68 844.323 1354.05 847.078C1354.91 845.202 1355.6 843.238 1356.12 841.216C1356.18 842.857 1356.29 844.469 1356.24 846.111C1356.38 845.554 1356.47 844.968 1356.58 844.381C1356.41 845.29 1356.35 846.228 1356.15 847.137C1357.3 844.675 1358.22 842.007 1358.74 839.281C1358.77 840.776 1358.89 842.242 1358.83 843.766C1359.09 842.711 1359.29 841.626 1359.49 840.542C1359.55 842.154 1359.66 843.737 1359.61 845.349C1360.33 842.564 1360.82 839.662 1360.82 836.731C1360.84 833.83 1360.56 830.899 1360.1 828.026C1359.72 826.209 1359.26 824.392 1358.74 822.633C1358.48 821.167 1358.17 819.731 1357.79 818.295H1357.96C1359 821.812 1359.92 825.3 1360.64 828.818C1361.45 833.859 1361.91 838.93 1361.71 844.147C1362 843.033 1362.2 841.919 1362.4 840.776C1362.57 843.385 1362.66 846.052 1362.57 848.719C1362.86 847.576 1363.09 846.433 1363.29 845.261C1363.29 845.73 1363.35 846.169 1363.32 846.638C1363.38 846.404 1363.41 846.169 1363.47 845.964C1363.21 847.957 1363 849.95 1362.54 851.914C1363.72 849.423 1364.65 846.726 1365.14 843.971C1365.14 844.733 1365.22 845.495 1365.19 846.257C1365.28 845.906 1365.34 845.554 1365.42 845.202C1365.42 845.7 1365.48 846.199 1365.45 846.726C1365.63 846.023 1365.74 845.29 1365.88 844.587C1365.88 845.7 1366 846.785 1365.94 847.899C1366.2 846.902 1366.37 845.876 1366.58 844.85C1366.6 846.404 1366.75 847.928 1366.66 849.511C1366.72 849.276 1366.75 849.012 1366.81 848.778C1366.81 849.54 1366.89 850.302 1366.86 851.094C1367.5 848.661 1367.87 846.169 1367.99 843.619C1367.99 844.645 1368.1 845.671 1368.04 846.697C1368.19 846.081 1368.3 845.466 1368.42 844.85C1368.53 846.375 1368.62 848.016 1368.85 849.54C1368.59 851.299 1368.42 853.087 1368.02 854.845C1368.51 853.79 1368.91 852.706 1369.31 851.592C1369.4 851.885 1369.46 852.207 1369.57 852.442C1369.46 852.149 1369.43 851.768 1369.4 851.328C1369.51 851.035 1369.6 850.742 1369.71 850.449C1369.8 850.742 1369.86 851.035 1369.97 851.299C1369.83 851.006 1369.8 850.537 1369.8 850.068C1369.97 849.452 1370.12 848.837 1370.26 848.221C1370.26 848.221 1370.26 848.28 1370.26 848.309C1370.29 848.162 1370.32 847.987 1370.35 847.84C1370.46 847.342 1370.64 846.873 1370.72 846.404C1370.75 846.14 1370.78 845.906 1370.81 845.642C1370.98 844.821 1371.1 844 1371.21 843.15C1371.21 843.121 1371.21 843.092 1371.21 843.033C1371.53 844.235 1371.85 845.407 1372.22 846.609C1372.22 846.609 1372.22 846.668 1372.25 846.697C1372.25 847.488 1372.34 848.28 1372.31 849.071C1372.42 848.573 1372.51 848.075 1372.62 847.576C1372.77 847.987 1372.91 848.397 1373.11 848.778C1373.23 849.012 1373.37 849.247 1373.55 849.511C1373.55 849.511 1373.55 849.511 1373.55 849.54C1373.6 849.657 1373.63 849.745 1373.72 849.862C1374.01 850.097 1374.15 849.95 1374.24 849.775C1373.98 852.119 1373.66 854.494 1373.14 856.838C1374.38 854.171 1375.39 851.357 1375.88 848.397C1376.31 845.964 1376.45 843.473 1376.48 841.011C1376.48 841.216 1376.54 841.421 1376.57 841.626C1376.4 845.525 1376.05 849.423 1375.13 853.321C1375.96 851.533 1376.63 849.628 1377.15 847.723C1377.26 849.95 1377.38 852.149 1377.29 854.406C1378.01 851.621 1378.5 848.719 1378.5 845.788C1378.5 844.469 1378.44 843.15 1378.35 841.802C1378.67 845.026 1378.82 848.28 1378.7 851.563C1378.93 850.683 1379.07 849.804 1379.25 848.895C1379.25 849.54 1379.31 850.185 1379.28 850.859C1379.36 850.507 1379.42 850.156 1379.48 849.833C1379.48 850.273 1379.54 850.712 1379.48 851.152C1379.62 850.625 1379.68 850.068 1379.79 849.54C1379.79 850.39 1379.88 851.211 1379.85 852.031C1380.17 850.83 1380.4 849.569 1380.6 848.338C1380.6 849.423 1380.72 850.507 1380.66 851.621C1380.95 850.478 1381.18 849.335 1381.38 848.162C1381.38 848.661 1381.44 849.159 1381.41 849.657C1381.67 848.661 1381.84 847.664 1382.01 846.668C1382.3 849.862 1382.47 853.116 1382.36 856.399C1382.76 854.816 1383.05 853.204 1383.28 851.563C1383.63 850.742 1383.97 849.921 1384.26 849.071C1384.26 850.331 1384.4 851.592 1384.35 852.881C1384.58 852.002 1384.72 851.123 1384.89 850.244C1384.89 851.533 1385.04 852.794 1384.98 854.083C1385.53 851.914 1385.87 849.657 1386.04 847.371C1386.16 849.1 1386.19 850.83 1386.16 852.588C1385.93 853.937 1385.84 855.314 1385.53 856.663C1386.48 854.64 1387.2 852.5 1387.74 850.302C1387.74 850.918 1387.8 851.533 1387.77 852.178C1388.49 849.394 1388.98 846.492 1388.98 843.561C1388.98 842.564 1388.92 841.568 1388.87 840.571C1388.87 840.161 1388.9 839.75 1388.9 839.34C1388.64 834.504 1387.89 829.638 1386.3 825.095L1388.06 825.505C1389.53 835.5 1390.02 845.466 1387.71 855.373C1388.95 852.706 1389.96 849.892 1390.45 846.931C1390.88 844.499 1391.03 842.007 1391.06 839.545C1391.46 842.564 1391.72 845.583 1391.78 848.661C1391.52 851.475 1391.11 854.318 1390.45 857.132C1391.4 855.109 1392.12 852.969 1392.67 850.771C1392.67 851.387 1392.73 852.002 1392.7 852.647C1393.42 849.863 1393.91 846.961 1393.91 844.03C1393.91 843.033 1393.85 842.037 1393.79 841.04C1393.79 840.63 1393.82 840.219 1393.82 839.809C1393.59 835.237 1392.9 830.664 1391.52 826.326L1392.99 826.678C1393.04 826.912 1393.13 827.176 1393.22 827.411C1394.51 836.907 1394.86 846.404 1392.67 855.812C1393.91 853.145 1394.91 850.331 1395.4 847.371C1395.84 844.938 1395.98 842.447 1396.01 839.985C1396.27 841.597 1396.47 843.18 1396.64 844.792C1396.87 847.606 1396.93 850.449 1396.82 853.35C1396.87 853.116 1396.9 852.852 1396.96 852.618C1396.96 853.38 1397.05 854.142 1397.02 854.933C1397.68 852.413 1398.08 849.775 1398.17 847.107C1398.43 845.524 1398.6 843.942 1398.57 842.33C1398.6 839.428 1398.31 836.497 1397.85 833.624C1397.42 831.514 1396.87 829.433 1396.24 827.411L1398.4 827.909C1399.98 838.197 1400.56 848.485 1398.2 858.685C1399.44 856.018 1400.44 853.204 1400.93 850.244C1401.45 847.312 1401.63 844.323 1401.57 841.333C1401.42 838.49 1401.11 835.676 1400.56 832.892C1401.94 839.457 1402.78 846.111 1402.52 852.94C1403.07 850.771 1403.41 848.514 1403.58 846.228C1403.73 848.602 1403.84 850.976 1403.73 853.409C1404.33 851.064 1404.71 848.661 1404.82 846.228C1404.82 851.064 1404.42 855.871 1403.32 860.678C1404.56 858.011 1405.57 855.197 1406.06 852.237C1406.49 849.804 1406.64 847.312 1406.67 844.85C1407.27 849.247 1407.64 853.702 1407.47 858.245C1408.19 855.461 1408.68 852.559 1408.68 849.628C1408.68 848.309 1408.62 846.99 1408.54 845.642C1408.85 848.866 1409 852.119 1408.88 855.402C1409.43 853.233 1409.78 850.976 1409.95 848.69C1410.09 851.064 1410.21 853.438 1410.09 855.871C1410.81 853.087 1411.3 850.185 1411.3 847.254C1411.3 845.349 1411.19 843.414 1410.96 841.509C1412.17 847.635 1412.86 853.819 1412.63 860.209C1413.29 857.688 1413.69 855.05 1413.78 852.383C1414.04 850.8 1414.21 849.218 1414.18 847.606C1414.21 844.704 1413.92 841.773 1413.46 838.9C1412.91 836.174 1412.19 833.478 1411.27 830.84L1411.62 830.928C1414.04 839.721 1415.59 848.602 1415.22 857.835C1415.77 855.666 1416.11 853.409 1416.28 851.123C1416.43 853.497 1416.54 855.871 1416.43 858.304C1417.15 855.519 1417.64 852.618 1417.64 849.687C1417.64 848.661 1417.58 847.635 1417.52 846.609C1417.98 850.419 1418.24 854.259 1418.1 858.187C1418.65 856.018 1418.99 853.761 1419.16 851.475C1419.31 853.849 1419.42 856.223 1419.31 858.656C1420.03 855.871 1420.52 852.969 1420.52 850.038C1420.55 847.137 1420.26 844.206 1419.8 841.333C1419.16 838.226 1418.33 835.149 1417.21 832.188L1417.64 832.305C1420.23 841.45 1421.93 850.683 1421.55 860.297C1421.84 859.125 1422.07 857.923 1422.3 856.721C1422.04 858.919 1421.79 861.118 1421.27 863.316C1422.51 860.649 1423.51 857.835 1424 854.875C1424.12 854.142 1424.18 853.38 1424.26 852.647C1424.46 855.314 1424.55 857.982 1424.43 860.707C1424.98 858.538 1425.33 856.281 1425.5 853.995C1425.64 856.369 1425.76 858.744 1425.64 861.176C1426.36 858.392 1426.85 855.49 1426.85 852.559C1426.88 849.657 1426.6 846.726 1426.13 843.854C1425.41 840.366 1424.43 836.907 1423.08 833.624L1426.48 834.416C1426.54 834.65 1426.62 834.914 1426.71 835.149C1428.21 845.231 1428.73 855.314 1426.42 865.338C1427.66 862.671 1428.67 859.857 1429.16 856.897C1429.59 854.464 1429.73 851.973 1429.76 849.511C1430.37 853.907 1430.74 858.363 1430.57 862.906C1430.66 862.554 1430.71 862.202 1430.77 861.88C1430.77 862.319 1430.83 862.759 1430.77 863.199C1431.32 861.03 1431.66 858.773 1431.84 856.487C1431.98 858.861 1432.1 861.235 1431.98 863.668C1432.7 860.883 1433.19 857.982 1433.19 855.05C1433.22 852.149 1432.93 849.218 1432.47 846.345C1431.69 842.447 1430.57 838.607 1428.96 835.002L1431.35 835.559C1434.17 845.143 1436.04 854.816 1435.67 864.899C1436.33 862.349 1436.73 859.74 1436.82 857.073C1436.82 856.956 1436.88 856.838 1436.91 856.692C1437.02 858.099 1436.99 859.506 1437.05 860.942C1436.79 862.994 1436.56 865.016 1436.1 867.068C1436.5 866.247 1436.79 865.368 1437.14 864.488C1437.14 864.899 1437.16 865.28 1437.14 865.661C1437.34 864.84 1437.48 863.961 1437.65 863.111C1437.68 863.023 1437.71 862.935 1437.74 862.847C1437.48 864.782 1437.28 866.716 1436.82 868.651C1438.06 865.983 1439.07 863.169 1439.55 860.209C1440.07 857.278 1440.25 854.288 1440.19 851.299C1439.93 846.433 1439.15 841.568 1437.57 836.995L1438.26 837.171C1440.51 845.642 1441.92 854.2 1441.57 863.082C1441.86 861.997 1442.06 860.883 1442.26 859.74C1442.26 860.414 1442.32 861.088 1442.32 861.763C1442.06 864.195 1441.74 866.599 1441.17 869.032C1441.8 867.683 1442.38 866.276 1442.84 864.84C1442.58 866.775 1442.38 868.709 1441.92 870.644C1443.15 867.976 1444.16 865.163 1444.65 862.202C1444.88 860.883 1445.03 859.564 1445.11 858.245C1445.31 861.001 1445.4 863.785 1445.29 866.57C1445.43 866.013 1445.52 865.397 1445.63 864.84C1445.46 865.778 1445.4 866.687 1445.2 867.625C1445.49 866.98 1445.72 866.306 1445.98 865.661C1445.98 866.511 1446.06 867.332 1446.03 868.182C1446.47 866.482 1446.78 864.723 1446.99 862.964C1447.36 861.733 1447.71 860.473 1447.94 859.183C1448.11 858.157 1448.19 857.131 1448.31 856.076C1448.63 859.3 1448.77 862.554 1448.66 865.837C1449.38 863.052 1449.87 860.15 1449.87 857.219C1449.87 857.219 1449.87 857.19 1449.87 857.161C1450.3 860.913 1450.56 864.723 1450.41 868.563C1450.67 867.507 1450.87 866.423 1451.07 865.338C1451.13 866.951 1451.25 868.533 1451.19 870.145C1451.85 867.595 1452.26 864.987 1452.34 862.319C1452.6 860.737 1452.77 859.154 1452.75 857.542C1452.77 854.64 1452.49 851.709 1452.03 848.837C1451.39 845.73 1450.56 842.652 1449.43 839.692L1450.84 840.014C1451.51 842.418 1452.08 844.85 1452.57 847.283C1453.47 855.637 1453.49 863.99 1451.56 872.285C1452.8 869.618 1453.81 866.804 1454.3 863.844C1454.36 863.58 1454.36 863.316 1454.39 863.052C1454.39 864.4 1454.53 865.719 1454.47 867.068C1454.65 866.364 1454.76 865.632 1454.91 864.928C1454.91 866.042 1455.02 867.126 1454.96 868.211C1455.31 866.863 1455.6 865.485 1455.8 864.078C1455.8 864.899 1455.88 865.69 1455.86 866.511C1456.4 864.43 1456.72 862.261 1456.89 860.063C1457.09 862.788 1457.18 865.514 1457.07 868.269C1457.35 867.185 1457.55 866.071 1457.76 864.928C1457.76 865.602 1457.81 866.276 1457.81 866.951C1457.56 869.383 1457.24 871.787 1456.66 874.22C1457.9 871.552 1458.91 868.738 1459.4 865.778C1459.63 864.488 1459.74 863.169 1459.86 861.88C1459.86 862.73 1459.95 863.58 1459.92 864.459C1459.66 867.214 1459.25 869.97 1458.62 872.725C1459.48 870.849 1460.18 868.885 1460.69 866.863C1460.75 868.504 1460.87 870.116 1460.81 871.757C1460.95 871.201 1461.04 870.614 1461.15 870.028C1460.98 870.937 1460.92 871.875 1460.72 872.783C1461.87 870.321 1462.8 867.654 1463.31 864.928C1463.34 866.423 1463.46 867.888 1463.4 869.413C1463.66 868.357 1463.86 867.273 1464.06 866.188C1464.12 867.801 1464.24 869.383 1464.18 870.995C1464.9 868.211 1465.39 865.309 1465.39 862.378C1465.39 862.378 1465.39 862.349 1465.39 862.319C1465.82 866.071 1466.08 869.882 1465.94 873.721C1466.6 871.201 1467 868.563 1467.09 865.895C1467.32 864.518 1467.43 863.111 1467.46 861.704C1467.84 865.163 1468.04 868.68 1467.89 872.226C1468.15 871.259 1468.33 870.263 1468.5 869.295C1468.5 869.999 1468.59 870.673 1468.56 871.406C1469.1 869.237 1469.45 866.98 1469.62 864.694C1469.77 867.068 1469.88 869.442 1469.77 871.875C1469.85 871.523 1469.91 871.171 1470 870.819C1470 871.318 1470.05 871.816 1470.03 872.344C1470.2 871.64 1470.31 870.907 1470.46 870.204C1470.46 871.318 1470.57 872.402 1470.51 873.516C1470.86 872.168 1471.15 870.79 1471.35 869.383C1471.35 870.204 1471.44 870.995 1471.41 871.816C1471.95 869.647 1472.3 867.39 1472.47 865.104C1472.62 867.478 1472.73 869.852 1472.62 872.285C1472.91 871.142 1473.14 869.999 1473.34 868.826C1473.34 869.325 1473.39 869.823 1473.37 870.321C1473.94 868.094 1474.29 865.778 1474.43 863.433C1474.78 866.775 1474.98 870.175 1474.86 873.604C1474.63 875.099 1474.52 876.594 1474.17 878.059C1474.84 876.623 1475.41 875.128 1475.9 873.604C1476.51 871.933 1477.02 870.233 1477.31 868.475C1477.43 867.742 1477.48 866.98 1477.57 866.218C1477.77 868.885 1477.86 871.552 1477.74 874.278C1478.29 872.109 1478.64 869.852 1478.81 867.566C1478.95 869.94 1479.07 872.314 1478.95 874.747C1479.24 873.604 1479.47 872.461 1479.67 871.288C1479.67 871.787 1479.73 872.285 1479.7 872.783C1480.42 869.999 1480.91 867.097 1480.91 864.166C1480.94 861.264 1480.65 858.333 1480.19 855.461C1479.56 852.295 1478.69 849.188 1477.54 846.199L1479.39 846.638C1479.59 847.342 1479.82 848.045 1479.99 848.749C1481.49 858.831 1482.01 868.914 1479.7 878.939C1480.94 876.271 1481.95 873.457 1482.44 870.497C1482.87 868.064 1483.01 865.573 1483.04 863.111C1483.65 867.507 1484.02 871.963 1483.85 876.476C1483.94 876.125 1483.99 875.773 1484.05 875.451C1484.05 875.89 1484.11 876.33 1484.05 876.77C1484.6 874.601 1484.94 872.344 1485.12 870.057C1485.26 872.432 1485.38 874.806 1485.26 877.238C1485.55 876.095 1485.78 874.952 1485.98 873.78C1485.98 874.278 1486.04 874.776 1486.01 875.275C1486.73 872.49 1487.22 869.588 1487.22 866.657C1487.25 863.756 1486.96 860.825 1486.5 857.952C1485.78 854.406 1484.77 850.918 1483.39 847.576L1484.22 847.781C1487.28 857.806 1489.35 867.918 1488.95 878.47C1489.64 875.744 1490.13 872.901 1490.13 870.057C1490.39 873.076 1490.5 876.154 1490.39 879.232C1490.68 878.059 1490.91 876.858 1491.14 875.656C1490.88 877.854 1490.62 880.052 1490.1 882.251C1491.05 880.228 1491.77 878.089 1492.32 875.89C1492.32 876.506 1492.37 877.121 1492.35 877.766L1492.49 877.854ZM1490.07 849.012C1490.21 849.862 1490.33 850.742 1490.44 851.592C1490.13 850.742 1489.78 849.892 1489.41 849.071C1489.64 849.13 1489.84 849.071 1490.04 849.012H1490.07ZM1480.68 847.019H1480.83C1480.94 847.4 1481.03 847.723 1481.11 848.075C1480.97 847.723 1480.83 847.371 1480.65 847.019H1480.68ZM1457.41 842.066C1457.32 841.89 1457.21 841.714 1457.12 841.538H1457.3C1457.32 841.743 1457.35 841.919 1457.41 842.066ZM1457.7 848.104C1457.09 845.73 1456.35 843.385 1455.42 841.128L1456.29 841.333C1456.58 842.271 1456.86 843.238 1457.12 844.176C1457.32 845.495 1457.55 846.785 1457.7 848.104ZM1462.42 843.854C1462.31 843.473 1462.25 843.092 1462.13 842.711L1462.77 842.857C1463.17 844.323 1463.52 845.788 1463.86 847.283C1463.43 846.111 1462.94 844.968 1462.39 843.854H1462.42ZM1467.17 843.883L1467.66 844C1467.98 845.085 1468.3 846.14 1468.56 847.225C1468.12 846.081 1467.69 844.968 1467.17 843.883ZM1452.4 840.424L1452.63 840.483C1452.75 840.952 1452.89 841.421 1453 841.89C1452.83 841.392 1452.6 840.923 1452.4 840.424ZM1447.42 839.692C1447.36 839.545 1447.3 839.369 1447.22 839.223L1447.76 839.34C1447.94 840.014 1448.05 840.718 1448.22 841.421C1447.96 840.835 1447.71 840.278 1447.42 839.692ZM1441.57 838.871C1441.77 840.19 1442 841.48 1442.15 842.799C1441.72 841.069 1441.23 839.369 1440.65 837.699L1441.28 837.845C1441.37 838.197 1441.48 838.519 1441.6 838.871H1441.57ZM1381.49 823.893L1381.72 823.952C1381.87 824.392 1381.98 824.831 1382.1 825.271C1381.9 824.802 1381.7 824.362 1381.47 823.893H1381.49ZM1382.59 824.157L1383.28 824.333C1383.37 825.007 1383.51 825.681 1383.57 826.355C1383.25 825.623 1382.93 824.89 1382.56 824.157H1382.59ZM1377.92 823.043L1378.15 823.102C1378.3 823.63 1378.47 824.157 1378.59 824.685C1378.35 824.128 1378.15 823.571 1377.89 823.043H1377.92ZM1368.13 820.904C1368.13 820.904 1368.1 820.786 1368.07 820.757H1368.13V820.904ZM1367.93 820.728C1367.93 820.728 1367.93 820.816 1367.93 820.845C1367.93 820.786 1367.9 820.757 1367.87 820.699H1367.9L1367.93 820.728ZM1363.32 819.643L1363.7 819.731C1363.93 820.523 1364.16 821.314 1364.39 822.135C1364.04 821.314 1363.72 820.464 1363.35 819.643H1363.32ZM1374.84 842.418C1374.84 844.088 1374.84 845.73 1374.7 847.4C1374.61 847.166 1374.52 846.961 1374.47 846.726C1374.44 846.609 1374.44 846.492 1374.41 846.374C1374.64 845.056 1374.78 843.737 1374.84 842.418ZM1374.87 839.018C1374.87 839.311 1374.87 839.604 1374.9 839.897C1374.9 839.604 1374.9 839.311 1374.87 839.018ZM1336.68 813.429L1336.97 813.488C1337.08 813.928 1337.17 814.367 1337.26 814.836C1337.08 814.367 1336.85 813.898 1336.68 813.429ZM1305.38 813.166L1303.5 807.245C1303.33 806.688 1303.19 806.131 1303.01 805.574L1303.88 805.779C1304.02 806.922 1304.19 808.066 1304.43 809.209C1304.68 810.528 1305.06 811.817 1305.4 813.107H1305.35L1305.38 813.166ZM1261.11 798.335C1260.36 798.598 1259.64 798.979 1258.89 799.302C1259.76 798.803 1260.62 798.305 1261.51 797.866C1262.35 797.514 1263.15 797.162 1263.99 796.898C1264.36 796.781 1264.77 796.693 1265.14 796.576L1264.88 797.25C1264.51 797.397 1264.16 797.572 1263.79 797.719C1262.9 797.924 1261.97 798.1 1261.08 798.364L1261.11 798.335ZM1240.66 780.015C1240.66 780.015 1240.43 780.015 1240.32 779.957C1240.4 779.927 1240.49 779.869 1240.58 779.84L1240.66 780.015ZM1235.1 779.283C1234.76 779.283 1234.44 779.341 1234.1 779.371C1233.06 779.371 1232.05 779.371 1231.01 779.488C1231.42 779.283 1231.79 779.048 1232.19 778.843C1233.84 778.667 1235.45 778.433 1237.09 778.403C1236.43 778.667 1235.77 778.99 1235.1 779.283ZM1224.02 783.914C1226.2 782.8 1228.51 781.95 1230.87 781.217C1231.04 781.159 1231.22 781.159 1231.36 781.1C1230.99 781.305 1230.61 781.54 1230.24 781.774C1228.16 782.331 1226.09 783.034 1224.13 784.002C1223.81 784.177 1223.53 784.412 1223.21 784.588C1223.47 784.383 1223.73 784.148 1223.99 783.943L1224.02 783.914ZM1248.06 782.36L1250.34 783.65C1249.73 783.533 1249.13 783.474 1248.52 783.386L1248.09 782.39L1248.06 782.36ZM1242.19 786.64C1241.96 786.64 1241.73 786.698 1241.5 786.727C1241.04 786.727 1240.6 786.64 1240.14 786.61C1241.18 786.376 1242.25 786.171 1243.28 785.965L1243.46 786.405C1243.02 786.464 1242.59 786.552 1242.16 786.64H1242.19ZM1291 819.673L1290.28 817.386L1289.97 816.331C1290.43 817.386 1290.92 818.442 1291.47 819.467L1291.03 819.673H1291ZM1293.14 817.738L1291.03 810.821L1291.21 810.352C1291.55 811.7 1291.87 813.048 1292.21 814.367C1292.67 815.716 1293.19 817.064 1293.71 818.412L1293.39 818.559L1293.14 817.709V817.738ZM1293.57 811.407C1293.6 811.905 1293.63 812.433 1293.65 812.931L1292.1 808.007L1292.47 807.04C1292.85 808.505 1293.19 809.941 1293.57 811.407ZM1260.91 790.831C1260.71 790.86 1260.51 790.948 1260.27 790.978C1258.75 791.241 1257.22 791.505 1255.75 791.447C1255.64 791.447 1255.52 791.417 1255.41 791.388C1257.22 790.89 1258.95 790.186 1260.65 789.453L1262.18 790.303C1261.74 790.479 1261.31 790.626 1260.88 790.802L1260.91 790.831ZM1288.67 817.123C1288.67 817.123 1288.79 817.386 1288.87 817.533C1288.93 817.65 1288.96 817.767 1288.99 817.855C1289.33 818.617 1289.68 819.35 1290.05 820.112L1287.06 821.49L1288.7 817.152L1288.67 817.123ZM1295.73 817.298C1295.73 817.298 1295.79 817.416 1295.79 817.474H1295.73V817.298ZM1295.07 806.014C1294.81 805.193 1294.58 804.402 1294.35 803.581L1295.58 803.874C1295.55 805.017 1295.44 806.16 1295.47 807.304L1295.07 806.014ZM1253.97 788.515C1252.96 788.691 1251.95 788.809 1250.97 788.897L1250.66 788.164C1250.66 788.164 1250.89 788.134 1251.03 788.134C1250.94 788.134 1250.89 788.134 1250.8 788.105C1251.12 787.988 1251.4 787.812 1251.72 787.695C1252.61 787.343 1253.56 787.079 1254.46 786.727C1254.86 786.727 1255.26 786.64 1255.7 786.61L1257.48 787.607C1256.33 787.9 1255.15 788.252 1254 788.486L1253.97 788.515ZM1255.64 786.64C1255.44 786.61 1255.23 786.581 1255.03 786.552C1255.12 786.522 1255.21 786.493 1255.32 786.464L1255.64 786.64ZM1252.99 785.936C1252.33 785.907 1251.66 785.907 1250.97 785.936C1251.06 785.907 1251.12 785.878 1251.2 785.848C1251.81 785.614 1252.44 785.438 1253.05 785.203L1253.97 785.731C1253.62 785.819 1253.31 785.878 1252.96 785.965L1252.99 785.936ZM1250.6 784.559C1250.05 784.5 1249.5 784.383 1248.93 784.324L1248.87 784.207C1249.04 784.207 1249.19 784.177 1249.36 784.177C1249.19 784.148 1248.99 784.148 1248.81 784.09L1248.7 783.826C1249.27 783.796 1249.82 783.679 1250.4 783.679L1251.52 784.324C1251.2 784.412 1250.89 784.471 1250.6 784.588V784.559ZM1241.24 781.833C1239.25 781.774 1237.26 781.891 1235.28 782.184C1235.68 781.979 1236.08 781.833 1236.49 781.657C1237.84 781.334 1239.16 780.924 1240.58 780.69C1239.94 780.631 1239.34 780.69 1238.7 780.69C1239.16 780.484 1239.65 780.25 1240.11 780.074C1240.32 780.074 1240.49 780.015 1240.69 780.015L1241.47 781.774C1241.47 781.774 1241.32 781.833 1241.27 781.862L1241.24 781.833ZM1237.09 778.403C1236.11 778.169 1235.1 778.081 1234.1 777.964C1235.25 777.407 1236.43 776.908 1237.61 776.41L1239.6 777.524C1238.76 777.817 1237.93 778.081 1237.12 778.403H1237.09ZM1228.57 776.909C1228.02 776.909 1227.44 776.909 1226.9 776.909C1229.03 775.912 1231.16 774.915 1233.38 774.036L1234.5 774.681C1232.48 775.326 1230.52 776.088 1228.59 776.938L1228.57 776.909ZM1219.81 786.552C1219.44 786.786 1219.06 786.991 1218.69 787.255C1219.15 786.903 1219.55 786.522 1220.04 786.2C1219.95 786.317 1219.9 786.434 1219.81 786.552ZM1297.6 814.104L1297.2 810.469C1297.37 811.114 1297.51 811.788 1297.69 812.433C1298.09 813.635 1298.58 814.836 1299.01 816.038L1298.29 816.361L1297.6 814.104ZM1301.4 808.476C1301.03 807.304 1300.68 806.131 1300.36 804.959L1301.83 805.31C1301.95 806.073 1302.03 806.835 1302.18 807.597C1302.58 809.736 1303.19 811.788 1303.76 813.869L1303.19 814.133L1301.4 808.447V808.476ZM1310.76 817.533C1310.76 817.533 1310.7 817.357 1310.7 817.269L1311.02 817.123C1311.02 817.797 1310.96 818.5 1310.96 819.174C1310.88 818.617 1310.85 818.09 1310.76 817.533ZM1312.49 823.336C1312.49 823.483 1312.52 823.659 1312.55 823.805C1312.6 824.128 1312.66 824.479 1312.75 824.831C1312.75 824.89 1312.75 824.949 1312.75 825.007V824.89L1312.43 823.952C1312.43 823.747 1312.49 823.542 1312.52 823.336H1312.49ZM1310.56 810.792L1309.21 811.407C1308.72 809.766 1308.14 808.183 1307.45 806.6L1309.75 807.128C1310.07 808.329 1310.3 809.56 1310.56 810.762V810.792ZM1305.78 808.886C1305.46 807.948 1305.2 806.981 1304.94 806.043L1305.72 806.219C1305.87 807.304 1306.04 808.388 1306.21 809.443C1306.41 810.469 1306.73 811.436 1306.96 812.433H1306.9L1305.78 808.857V808.886ZM1220.85 767.324C1220.85 767.324 1221.11 767.236 1221.25 767.177L1222.6 767.94C1220.59 768.672 1218.6 769.464 1216.67 770.402C1215.58 770.988 1214.51 771.662 1213.42 772.307C1212.84 772.571 1212.27 772.776 1211.72 773.04C1210.34 773.802 1208.95 774.593 1207.63 775.443C1208.84 774.446 1210.11 773.508 1211.43 772.629C1213.5 771.105 1215.75 769.815 1218.03 768.555C1218.98 768.174 1219.9 767.676 1220.85 767.295V767.324ZM1214.4 763.308C1214.17 763.396 1213.94 763.484 1213.71 763.543C1213.91 763.455 1214.11 763.338 1214.34 763.25H1214.4V763.308ZM1206.16 762.458C1207.34 761.843 1208.58 761.286 1209.79 760.67L1210.94 761.315C1209.07 761.726 1207.2 762.283 1205.35 762.898C1205.61 762.752 1205.9 762.605 1206.16 762.429V762.458ZM1183.95 746.103L1185.74 747.129C1182.66 747.803 1179.66 748.77 1176.73 749.943C1178.08 749.151 1179.46 748.389 1180.84 747.627C1181.85 747.1 1182.92 746.631 1183.95 746.103ZM1188.19 748.477L1188.79 748.829C1187.32 749.181 1185.88 749.562 1184.44 750.031C1185.25 749.708 1186 749.298 1186.83 748.976C1187.3 748.8 1187.76 748.653 1188.22 748.477H1188.19ZM1194.67 754.105C1195.27 753.783 1195.91 753.489 1196.51 753.196L1196.8 753.372C1196.08 753.607 1195.36 753.841 1194.67 754.105ZM1191.39 750.294L1191.7 750.47C1190.95 750.705 1190.2 750.969 1189.48 751.232C1190.12 750.91 1190.78 750.588 1191.41 750.294H1191.39ZM1172.87 739.831C1172.32 740.006 1171.77 740.182 1171.23 740.358C1171.71 740.153 1172.2 739.919 1172.69 739.713L1172.87 739.831ZM1147.67 727.96C1148.53 727.637 1149.42 727.374 1150.29 727.051L1151.64 727.813C1147.84 728.781 1144.1 730.158 1140.52 731.858C1139.95 732.181 1139.37 732.532 1138.83 732.855C1140.84 731.506 1142.91 730.275 1145.05 729.103C1145.94 728.751 1146.77 728.282 1147.67 727.931V727.96ZM1154 730.451C1154.46 730.275 1154.95 730.129 1155.41 729.953L1155.64 730.1C1154.64 730.393 1153.66 730.715 1152.65 731.037C1153.11 730.862 1153.54 730.627 1154 730.451ZM1150.4 736.284C1153.2 734.789 1156.16 733.617 1159.13 732.415C1159.27 732.356 1159.42 732.327 1159.56 732.269L1160.68 732.913C1159.65 733.236 1158.64 733.587 1157.63 733.968C1154.58 734.789 1151.61 735.903 1148.73 737.193C1149.31 736.9 1149.86 736.548 1150.43 736.255L1150.4 736.284ZM1110.6 725.791C1110.34 726.025 1110.14 726.318 1109.88 726.553C1109.77 726.582 1109.68 726.641 1109.56 726.67C1111.78 724.384 1114.26 722.391 1116.88 720.603C1118.95 719.079 1121.2 717.789 1123.47 716.529C1124.43 716.148 1125.35 715.649 1126.3 715.268C1126.96 715.034 1127.62 714.829 1128.28 714.565L1130.88 716.03C1126.73 716.998 1122.67 718.463 1118.78 720.339C1115.9 721.893 1113.11 723.622 1110.6 725.791ZM1091.1 693.579L1092.17 694.194C1086.87 695.044 1081.71 696.803 1076.82 699.118C1076.24 699.441 1075.7 699.792 1075.12 700.115C1076.91 698.913 1078.75 697.799 1080.65 696.744C1082.38 695.982 1084.11 695.132 1085.89 694.429C1087.42 693.842 1089 693.344 1090.56 692.787C1090.64 693.08 1090.79 693.373 1091.1 693.549V693.579ZM1092.92 694.604L1093.09 694.692C1092.86 694.722 1092.63 694.751 1092.37 694.78C1092.54 694.722 1092.75 694.663 1092.92 694.575V694.604ZM1095.19 695.894L1096.03 696.363C1093.93 696.773 1091.88 697.33 1089.84 697.975C1090.64 697.653 1091.42 697.242 1092.23 696.92C1093.21 696.539 1094.21 696.246 1095.22 695.865L1095.19 695.894ZM1105.65 704.336C1105.1 704.482 1104.58 704.717 1104.06 704.892C1104.5 704.717 1104.9 704.511 1105.36 704.336C1106.31 703.984 1107.32 703.661 1108.3 703.31L1108.73 703.544C1107.69 703.779 1106.68 704.042 1105.68 704.336H1105.65ZM1100.09 702.079C1101.15 701.551 1102.19 701.024 1103.26 700.525C1103.26 700.525 1103.29 700.525 1103.31 700.525L1103.83 700.818C1102.57 701.199 1101.33 701.639 1100.09 702.108V702.079ZM1100.69 699.236C1100.69 699.236 1100.84 699.177 1100.92 699.148H1100.95C1100.95 699.148 1100.78 699.206 1100.69 699.236ZM1098.16 697.565L1098.76 697.917C1097.44 698.298 1096.14 698.737 1094.85 699.206C1095.94 698.649 1097.04 698.092 1098.16 697.594V697.565ZM1101.76 710.168C1104.55 708.673 1107.52 707.501 1110.49 706.299C1111.12 706.065 1111.81 705.86 1112.44 705.625L1113.48 706.211C1112.62 706.504 1111.75 706.856 1110.92 707.208C1110.28 707.413 1109.62 707.648 1108.99 707.882C1105.94 708.703 1102.97 709.817 1100.09 711.106C1100.67 710.813 1101.21 710.461 1101.79 710.168H1101.76ZM1111.58 710.432C1113.22 709.582 1114.92 708.791 1116.59 707.97L1118.26 708.908C1115.73 709.377 1113.25 710.051 1110.8 710.872C1111.06 710.725 1111.35 710.579 1111.61 710.403L1111.58 710.432ZM1116.79 716.793C1119.21 715.474 1121.8 714.477 1124.37 713.451C1124.74 713.305 1125.15 713.187 1125.52 713.041L1126.5 713.598C1125.84 713.862 1125.15 714.067 1124.51 714.36C1121.92 715.034 1119.39 715.884 1116.91 716.939C1116.42 717.144 1115.93 717.349 1115.44 717.555C1115.9 717.32 1116.33 717.027 1116.82 716.793H1116.79ZM1120.71 713.129C1121.6 712.689 1122.47 712.249 1123.36 711.839L1123.79 712.074C1122.75 712.396 1121.72 712.748 1120.71 713.129ZM1121.29 710.637L1121.52 710.755C1120.71 710.989 1119.9 711.224 1119.13 711.487C1119.56 711.311 1119.96 711.106 1120.42 710.93C1120.71 710.813 1121 710.725 1121.29 710.637ZM1134.13 720.427C1131.14 720.837 1128.17 721.453 1125.23 722.244C1126.79 721.629 1128.37 721.072 1129.95 720.544C1132.03 720.193 1134.07 719.665 1136.06 718.991L1136.9 719.46C1135.97 719.753 1135.05 720.075 1134.13 720.427ZM1134.45 718.082C1133.87 718.17 1133.32 718.317 1132.78 718.434L1133.12 718.229L1133.41 718.053C1133.61 717.965 1133.81 717.906 1134.02 717.848L1134.45 718.082ZM1134.94 722.332C1136.67 721.951 1138.42 721.658 1140.18 721.306L1141.68 722.156C1137.62 722.537 1133.58 723.329 1129.61 724.413C1129.81 724.296 1130.01 724.179 1130.24 724.062C1131.25 723.534 1132.32 723.153 1133.35 722.684C1133.87 722.567 1134.42 722.42 1134.94 722.303V722.332ZM1099.4 715.796C1099.63 715.649 1099.86 715.474 1100.09 715.327C1099.57 715.825 1099.08 716.353 1098.59 716.91C1097.55 717.643 1096.52 718.346 1095.54 719.196C1094.5 720.105 1093.58 721.131 1092.69 722.186C1094.67 719.812 1096.92 717.701 1099.37 715.825L1099.4 715.796ZM1106.97 727.608C1106.63 727.696 1106.28 727.813 1105.96 727.813C1105.68 727.872 1105.42 727.755 1105.47 727.462C1107.35 725.674 1109.39 724.091 1111.52 722.655C1110.49 723.593 1109.48 724.56 1108.56 725.644C1108.1 726.201 1107.75 726.846 1107.35 727.462C1107.23 727.491 1107.12 727.55 1107 727.579L1106.97 727.608ZM1108.53 727.872C1108.53 727.872 1108.59 727.872 1108.64 727.872C1108.35 728.194 1108.04 728.487 1107.75 728.81C1108.01 728.487 1108.27 728.194 1108.56 727.872H1108.53ZM1114.95 724.56C1115.15 724.443 1115.38 724.296 1115.58 724.15C1115.58 724.15 1115.58 724.179 1115.55 724.208C1115.47 724.267 1115.38 724.355 1115.3 724.413L1114.95 724.56ZM1114.03 731.125C1114.35 730.481 1114.63 729.806 1114.95 729.132C1117.95 727.491 1121.14 726.172 1124.43 725.175C1124.68 725.087 1124.94 725.029 1125.17 724.941C1124.25 725.527 1123.39 726.231 1122.52 726.905C1119.04 728.458 1115.7 730.451 1113.05 733.119C1113.37 732.444 1113.71 731.77 1114 731.096L1114.03 731.125ZM1170.91 738.717C1170.39 738.893 1169.87 739.039 1169.38 739.244C1169.81 739.01 1170.27 738.805 1170.71 738.6L1170.91 738.717ZM1163.68 747.539C1166.24 745.663 1169.01 744.139 1171.8 742.586C1172.55 742.175 1173.36 741.853 1174.13 741.443C1174.48 741.325 1174.83 741.208 1175.14 741.091L1176.7 741.97C1173.39 742.908 1170.13 744.169 1166.99 745.663C1165.58 746.426 1164.2 747.217 1162.87 748.096C1163.13 747.891 1163.39 747.686 1163.68 747.51V747.539ZM1167.63 750.558C1170.19 748.682 1172.95 747.158 1175.75 745.605C1177.04 744.931 1178.4 744.315 1179.69 743.67L1181.62 744.755C1177.96 745.722 1174.39 747.041 1170.94 748.712C1169.53 749.474 1168.14 750.265 1166.82 751.145C1167.08 750.939 1167.34 750.734 1167.63 750.558ZM1193.98 767.822C1194.21 767.676 1194.44 767.5 1194.67 767.353C1194.15 767.852 1193.66 768.379 1193.17 768.936C1192.13 769.669 1191.1 770.372 1190.12 771.222C1189.08 772.131 1188.16 773.157 1187.27 774.212C1189.25 771.838 1191.5 769.727 1193.95 767.852L1193.98 767.822ZM1211.37 768.819C1213.68 767.588 1216.12 766.621 1218.54 765.653L1219.55 766.21C1219.23 766.357 1218.92 766.474 1218.6 766.62C1218.05 766.796 1217.51 767.002 1216.96 767.207C1214.6 767.852 1212.27 768.643 1210.02 769.581C1210.48 769.346 1210.91 769.053 1211.4 768.819H1211.37ZM1216.64 780.572C1216.64 780.572 1216.64 780.572 1216.67 780.572C1216.59 780.631 1216.53 780.719 1216.44 780.807C1216.33 780.865 1216.18 780.895 1216.07 780.983C1216.27 780.865 1216.44 780.719 1216.64 780.602V780.572ZM1216.76 788.838C1216.76 788.838 1216.93 788.691 1217.05 788.603C1216.82 788.809 1216.61 789.043 1216.38 789.278C1216.53 789.131 1216.61 788.984 1216.76 788.838ZM1247.57 803.933C1247.57 803.933 1247.63 803.845 1247.66 803.816C1247.78 803.669 1247.92 803.552 1248.03 803.435C1247.75 803.991 1247.49 804.548 1247.2 805.105C1247.34 804.724 1247.43 804.343 1247.57 803.962V803.933ZM1255.06 798.335C1255.67 797.983 1256.27 797.631 1256.88 797.338C1257.91 796.869 1258.95 796.429 1260.02 796.107C1260.25 796.019 1260.48 795.99 1260.68 795.931C1260.76 795.931 1260.88 795.931 1260.97 795.872C1261.11 795.843 1261.25 795.755 1261.4 795.726C1262.06 795.521 1262.69 795.345 1263.36 795.198C1260.62 796.166 1257.97 797.484 1255.67 799.272C1255.61 799.331 1255.55 799.39 1255.49 799.448L1255.03 798.364L1255.06 798.335ZM1256.76 802.145C1256.76 802.145 1256.91 802.057 1256.96 802.028C1256.91 802.086 1256.85 802.145 1256.79 802.203V802.145H1256.76ZM1257.25 803.317C1257.8 802.907 1258.29 802.438 1258.86 802.057C1259.9 801.412 1260.94 800.855 1262.03 800.328C1260.56 801.354 1259.18 802.467 1258 803.816C1257.86 803.962 1257.8 804.138 1257.68 804.285L1257.25 803.317ZM1259.01 804.812C1260.33 803.61 1261.74 802.555 1263.24 801.617L1260.36 809.267C1260.36 809.267 1260.07 809.385 1259.93 809.443L1258.29 805.662C1258.55 805.398 1258.75 805.076 1259.01 804.841V804.812ZM1297.34 824.831C1297.34 824.831 1297.25 824.597 1297.23 824.48L1296.91 823.483L1297.08 823.395C1297.17 823.864 1297.25 824.333 1297.34 824.802V824.831ZM1299.21 823.454C1299.1 823.19 1299.01 822.897 1298.92 822.604L1299.04 822.545C1299.3 823.073 1299.5 823.6 1299.79 824.098C1299.85 824.186 1299.9 824.274 1299.96 824.362C1299.7 824.597 1299.36 823.747 1299.21 823.424V823.454ZM1305.55 825.916C1305.32 825.359 1305.15 824.743 1304.97 824.157V824.069C1305.09 824.362 1305.23 824.685 1305.38 824.978C1305.38 824.978 1305.38 824.978 1305.38 825.007C1305.63 825.535 1305.84 826.062 1306.12 826.561C1306.18 826.649 1306.24 826.736 1306.3 826.824C1306.04 827.059 1305.69 826.209 1305.55 825.886V825.916ZM1309.03 825.007L1307.91 821.461L1307.13 818.881C1307.68 820.464 1308.2 822.047 1308.86 823.6C1309 823.923 1309.18 824.274 1309.32 824.597C1309.35 825.066 1309.32 825.564 1309.35 826.033C1309.23 825.681 1309.12 825.359 1309 825.007H1309.03ZM1314.42 830.195C1314.36 830.049 1314.3 829.873 1314.25 829.697C1314.45 829.697 1314.59 829.55 1314.53 829.316C1314.42 829.638 1314.3 829.638 1314.19 829.55C1314.19 829.521 1314.19 829.492 1314.16 829.433C1314.07 828.73 1314.16 827.821 1314.07 827.176L1313.99 825.3C1313.99 824.831 1314.1 824.333 1314.1 823.864C1314.1 821.959 1313.99 820.024 1313.76 818.119C1314.25 820.611 1314.62 823.102 1314.88 825.623C1314.97 827.469 1315.08 829.316 1314.99 831.192C1314.76 831.104 1314.51 830.459 1314.39 830.195H1314.42ZM1315.02 831.192C1315.11 830.869 1315.14 830.547 1315.23 830.224C1315.23 830.488 1315.23 830.752 1315.23 830.986C1315.17 831.104 1315.08 831.192 1315.02 831.162V831.192ZM1314.53 809.004C1314.45 808.74 1314.39 808.476 1314.3 808.212L1315.6 808.505L1314.53 808.974V809.004ZM1326.28 829.931C1326.28 828.818 1326.23 827.674 1326.14 826.561C1326.14 826.443 1326.14 826.326 1326.14 826.209C1326.28 827.704 1326.28 829.228 1326.34 830.752C1326.28 831.426 1326.11 832.13 1326.05 832.804C1326.14 831.836 1326.28 830.899 1326.28 829.931ZM1342.35 826.824C1342.27 826.268 1342.24 825.74 1342.15 825.183C1341.38 821.402 1340.31 817.679 1338.78 814.133C1338.78 814.045 1338.73 813.986 1338.73 813.898L1341.06 814.455C1341.4 815.804 1341.66 817.152 1341.98 818.5C1342.24 821.285 1342.38 824.04 1342.38 826.824H1342.35ZM1343.42 815.012H1343.56C1343.62 815.276 1343.65 815.511 1343.71 815.716C1343.59 815.481 1343.54 815.247 1343.42 815.012ZM1357.65 837.611C1357.65 836.497 1357.59 835.354 1357.5 834.24C1357.5 834.123 1357.5 834.006 1357.5 833.888C1357.65 835.383 1357.65 836.907 1357.71 838.431C1357.65 839.105 1357.47 839.809 1357.42 840.483C1357.5 839.516 1357.65 838.578 1357.65 837.611ZM1373.31 846.433L1373.23 845.847C1373.29 845.583 1373.34 845.349 1373.37 845.114C1373.46 845.378 1373.57 845.642 1373.69 845.906C1373.69 846.843 1373.78 847.752 1373.75 848.69C1373.57 847.957 1373.43 847.195 1373.31 846.462V846.433ZM1374.12 849.745C1374.01 849.569 1373.95 849.306 1373.89 849.071C1374.03 848.456 1374.15 847.84 1374.27 847.195C1374.38 847.459 1374.5 847.693 1374.7 847.928C1374.67 848.397 1374.55 848.866 1374.52 849.364C1374.41 849.687 1374.27 850.097 1374.12 849.745ZM1374.58 835.002C1374.47 834.093 1374.38 833.185 1374.24 832.305C1373.49 828.583 1372.42 824.919 1370.95 821.461L1372.22 821.754C1372.74 823.395 1373.2 825.066 1373.69 826.707C1374.09 829.462 1374.41 832.247 1374.61 835.002H1374.58ZM1373.63 823.981C1373.4 823.395 1373.23 822.809 1372.97 822.223C1373.03 822.486 1373.03 822.721 1373.08 822.985C1372.85 822.574 1372.65 822.164 1372.42 821.783L1374.55 822.281C1375.22 824.567 1375.82 826.854 1376.37 829.169C1376.45 829.961 1376.48 830.752 1376.54 831.543C1375.76 828.935 1374.81 826.414 1373.63 823.981ZM1383.8 847.137C1383.8 844.44 1383.54 841.743 1383.11 839.076C1382.99 838.578 1382.88 838.05 1382.76 837.552C1382.65 835.823 1382.44 834.064 1382.16 832.364C1381.55 829.345 1380.72 826.326 1379.65 823.454L1380.31 823.6C1382.19 829.961 1383.6 836.38 1384.23 842.887C1384.14 844.293 1383.97 845.7 1383.8 847.137ZM1387.28 840.337C1387.17 839.311 1387.05 838.255 1386.88 837.23C1386.59 835.852 1386.27 834.504 1385.93 833.156C1385.84 832.1 1385.7 831.074 1385.55 830.048C1386.3 833.273 1386.88 836.526 1387.31 839.809C1387.31 839.985 1387.31 840.161 1387.31 840.337H1387.28ZM1385.96 825.886C1385.81 825.535 1385.67 825.183 1385.53 824.831L1385.81 824.89C1385.87 825.212 1385.9 825.564 1385.96 825.886ZM1390.88 826.326C1390.88 826.326 1390.8 826.15 1390.77 826.033H1390.85C1390.85 826.033 1390.85 826.238 1390.88 826.326ZM1399.52 828.085H1399.67C1399.98 829.316 1400.21 830.517 1400.47 831.719C1400.21 830.488 1399.9 829.286 1399.52 828.085ZM1405.02 842.799C1405.02 843.092 1405.02 843.385 1405.05 843.678C1405.05 843.385 1405.05 843.092 1405.02 842.799ZM1404.71 838.783C1404.59 837.874 1404.51 836.966 1404.36 836.087C1403.87 833.624 1403.21 831.162 1402.4 828.788L1403.32 828.993C1403.47 829.492 1403.61 829.99 1403.76 830.488C1404.16 833.243 1404.48 836.028 1404.68 838.783H1404.71ZM1404.48 829.257L1405.71 829.55C1406.67 833.155 1407.41 836.79 1407.99 840.454C1407.18 836.614 1406.06 832.804 1404.48 829.257ZM1410.55 833.566C1410.15 832.481 1409.72 831.397 1409.2 830.342L1409.83 830.488C1410.09 831.514 1410.29 832.54 1410.55 833.566ZM1414.3 831.543L1414.7 831.631C1415.07 832.98 1415.36 834.328 1415.68 835.676C1415.28 834.269 1414.82 832.892 1414.3 831.543ZM1422.56 855.666C1422.68 854.816 1422.71 853.966 1422.76 853.087C1422.71 853.937 1422.65 854.787 1422.56 855.666ZM1422.82 850.654C1422.79 848.104 1422.56 845.525 1422.13 843.004C1421.41 839.457 1420.4 835.969 1419.02 832.628L1420.69 833.009C1421.38 835.471 1421.96 837.933 1422.51 840.395C1422.82 843.795 1422.91 847.225 1422.82 850.625V850.654ZM1432.76 835.852C1432.9 836.35 1433.05 836.849 1433.19 837.376C1432.99 836.849 1432.79 836.321 1432.56 835.823L1432.76 835.881V835.852ZM1436.62 843.854C1436.62 843.854 1436.62 843.678 1436.59 843.59C1436.1 841.128 1435.44 838.666 1434.63 836.292L1436.42 836.702C1436.99 840.454 1437.39 844.206 1437.6 847.928C1437.31 846.55 1436.99 845.202 1436.62 843.824V843.854ZM1446.87 852.5C1446.78 851.943 1446.75 851.416 1446.67 850.859C1445.78 846.462 1444.48 842.124 1442.55 838.109L1445.14 838.724C1445.63 840.542 1446.06 842.359 1446.5 844.176C1446.75 846.961 1446.9 849.745 1446.9 852.5H1446.87ZM1462.16 863.287C1462.16 862.173 1462.11 861.03 1462.02 859.916C1462.02 859.799 1462.02 859.681 1462.02 859.564C1462.16 861.059 1462.16 862.583 1462.22 864.107C1462.16 864.782 1461.99 865.456 1461.93 866.159C1462.02 865.192 1462.16 864.254 1462.16 863.287ZM1475.47 856.721C1474.66 852.676 1473.48 848.69 1471.78 844.968L1473.63 845.407C1474 846.726 1474.43 848.045 1474.78 849.364C1475.21 852.354 1475.5 855.373 1475.67 858.363C1475.58 857.835 1475.55 857.278 1475.47 856.721ZM1483.1 850.419C1482.7 849.364 1482.27 848.309 1481.78 847.283L1482.24 847.4C1482.52 848.397 1482.84 849.393 1483.1 850.419ZM1485.2 848.075L1485.69 848.192C1485.98 849.159 1486.27 850.097 1486.53 851.064C1486.12 850.038 1485.69 849.042 1485.2 848.075ZM1491.45 874.688C1491.57 873.838 1491.6 872.988 1491.65 872.109C1491.6 872.959 1491.54 873.809 1491.45 874.688ZM1491.71 869.676C1491.68 867.126 1491.45 864.547 1491.02 862.026C1490.07 857.278 1488.6 852.618 1486.38 848.338L1488.26 848.778C1489.87 854.288 1491.11 859.828 1491.8 865.456C1491.83 866.863 1491.74 868.24 1491.68 869.647L1491.71 869.676Z" fill="#535F57"/>
<path d="M440.742 88.7566C440.742 88.7566 438.524 86.5583 434.55 83.041C439.273 85.8841 440.742 88.7566 440.742 88.7566Z" fill="#535F57"/>
<path d="M126.937 279.657C126.937 279.657 37.9164 204.446 -58.0164 340.359C-58.0164 340.359 -76.1316 156.464 91.8876 214.499L152.396 253.101C152.396 253.101 110.665 155.409 -0.272427 184.28C-0.272427 184.28 73.3692 77.1793 150.208 205.237C135.721 177.304 124.864 141.721 133.561 104.497C152.828 21.9875 235.283 0.59082 235.283 0.59082C235.283 0.59082 186.985 71.8741 183.932 177.978C184.883 185.834 187.964 208.403 193.523 225.403L195.395 204.153C254.377 -57.9717 402.496 54.8447 434.579 83.0414C422.454 75.7431 388.931 68.562 303.942 110.476C282.4 121.087 261.577 145.297 243.721 171.97C236.204 185.13 224.425 208.139 217.916 232.701C354.025 28.4945 465.712 252.867 465.712 252.867C399.184 197.704 325.686 208.725 271.312 231.265C262.758 234.812 254.694 238.651 247.206 242.549C239.315 253.57 232.374 265.969 227.305 275.846C273.299 249.232 360.16 225.139 413.353 374.887C413.353 374.887 291.5 301.669 223.849 295.484C240.611 303.896 266.329 335.992 277.82 450.567C277.82 450.567 229.926 442.154 211.292 317.731C175.811 802.088 420.553 1062.42 423.75 1069.17L291.76 1098.36C288.534 1091.56 142.316 815.043 178 321.659L81.318 459.389C81.318 459.389 55.5996 373.509 155.708 306.476C155.708 306.476 37.974 328.84 -6.00363 443.591C-6.00363 443.591 -57.0084 263.917 126.995 279.686L126.937 279.657Z" fill="#535F57"/>
<path d="M1365.83 969.803C1365.83 969.803 1366.75 969.245 1368.36 968.365C1366.55 968.952 1365.83 969.803 1365.83 969.803Z" fill="#535F57"/>
<path d="M1436.16 1069.87L1457.93 1124.24C1457.93 1124.24 1473.37 1097.36 1444.88 1066.55C1444.88 1066.55 1482.87 1083.7 1488.66 1126.06C1488.66 1126.06 1520.05 1069.57 1456.69 1059.87C1456.69 1059.87 1492.66 1041.76 1514.35 1095.45C1514.35 1095.45 1534.97 1034.87 1473.65 1040.73L1450.18 1048.82C1450.18 1048.82 1471.96 1019.25 1507.15 1038.06C1507.15 1038.06 1490.73 995.887 1454.7 1032.85C1461.79 1024.61 1468.27 1013.47 1468.27 1000.2C1468.27 970.768 1442.12 956.816 1442.12 956.816C1442.12 956.816 1452.8 984.837 1445.46 1020.89C1444.51 1023.47 1441.69 1030.83 1438.49 1036.13L1439.53 1028.8C1440.28 935.507 1381.38 961.506 1368.33 968.394C1373 966.928 1384.89 967.25 1410.27 988.325C1416.69 993.659 1421.81 1003.54 1425.73 1014C1427.23 1019.07 1429.39 1027.78 1429.65 1036.6C1399.81 956.552 1344.43 1023.18 1344.43 1023.18C1371.24 1009.99 1395.17 1019.72 1411.73 1031.76C1414.36 1033.67 1416.75 1035.6 1418.99 1037.54C1420.78 1041.9 1422.16 1046.65 1423.08 1050.4C1409.66 1037.65 1382.24 1022.44 1352.46 1068.64C1352.46 1068.64 1399.38 1053.86 1422.68 1057.29C1416.37 1058.76 1405.14 1067.49 1392.24 1105.24C1392.24 1105.24 1409.06 1106.33 1425.16 1065.82" fill="#535F57"/>
<path d="M65.6221 1020.51C73.6861 1015.2 74.6077 1003.89 77.1133 994.481C77.7757 992.019 78.6973 989.44 80.7133 987.916C82.7293 986.391 84.6301 986.626 85.7821 988.912C89.4109 997.529 101.392 999.845 109.456 995.36C117.52 990.876 122.041 981.672 124.115 972.557C127.6 957.14 125.296 940.403 117.75 926.569C118.585 932.577 117.808 938.82 115.59 944.477C114.726 946.676 113.171 949.079 110.838 949.079C108.102 949.079 106.605 945.533 107.209 942.836C107.814 940.139 109.715 937.941 110.982 935.479C113.229 931.053 113.315 925.513 111.155 921.029C109.024 916.544 104.704 913.174 99.8941 912.236C102.745 924.986 99.2605 938.996 90.8509 948.845C88.8637 944.067 90.1885 938.527 92.2333 933.75C94.2781 928.972 97.0141 924.429 97.9069 919.329C99.6349 909.422 93.0109 898.724 83.5069 896.027C86.7613 910.184 84.5725 925.572 77.4589 938.205C74.8957 933.662 74.7517 928.093 75.6733 922.934C76.5949 917.775 78.5245 912.881 79.8493 907.839C81.0877 903.179 81.7213 897.815 78.9853 893.887C77.4013 891.601 74.8957 890.165 72.4765 888.817L56.3773 879.818C59.7757 886.618 63.2029 893.448 65.1901 900.805C67.1773 908.162 67.7245 916.105 65.3053 923.315C59.5165 917.424 62.6845 907.37 60.3517 899.398C57.8173 890.722 49.1773 885.622 40.9981 882.104C32.7037 878.558 24.0925 875.744 15.3085 873.722C18.2749 878.353 13.4077 884.01 12.5725 889.461C11.6221 895.88 16.4317 901.567 20.9533 906.168C25.5037 910.741 30.4861 916.163 29.9677 922.641C26.4829 926.51 19.8589 924.282 16.6045 920.208C13.3501 916.163 11.9677 910.829 8.8285 906.696C4.3933 910.096 3.9613 917.101 6.6109 922.084C9.2605 927.067 14.2429 930.262 19.3117 932.577C24.3805 934.922 29.7373 936.593 34.4317 939.612C37.7437 941.751 40.9117 946.207 38.5213 949.372C36.7357 951.776 33.0781 951.424 30.3133 950.398C25.8205 948.727 21.7597 945.884 18.6205 942.22C16.5181 939.729 13.9261 936.534 10.8157 937.413C8.88611 937.97 7.6765 940.051 7.6189 942.103C7.5613 944.126 8.39651 946.089 9.43331 947.819C16.4605 959.66 31.1485 963.705 44.4253 966.753C38.4061 969.919 31.1197 969.626 24.6685 967.515C18.2461 965.405 12.4861 961.595 6.8125 957.843C4.5085 963.852 6.6685 974.96 12.4573 977.569C18.2461 980.178 24.9277 979.533 31.1773 978.536C33.5965 978.155 36.0445 977.745 38.4637 978.155C40.8541 978.595 43.2445 980.06 44.0509 982.405C45.2605 985.864 42.3805 989.762 38.8669 990.7C35.3821 991.638 31.6669 990.407 28.4413 988.707C25.2445 987.007 22.2205 984.838 18.7933 983.695C17.4685 983.255 15.8269 983.079 14.8765 984.076C13.8685 985.102 14.1277 986.802 14.5021 988.179C18.7933 1004.15 31.7245 1017.4 47.3629 1021.92C53.4397 1023.67 60.3517 1024.03 65.6797 1020.57L65.6221 1020.51ZM51.6829 954.121C50.4445 953.153 49.2637 952.01 48.6877 950.515C48.1405 949.02 48.3421 947.145 49.5805 946.148C50.7901 945.151 52.6045 945.327 53.9581 946.119C55.3117 946.91 55.3981 946.881 56.3197 948.141C58.2205 949.548 60.3517 951.688 59.5453 953.945C59.0269 955.41 57.3277 956.172 55.8013 956.055C54.2749 955.938 52.8925 955.088 51.6829 954.15V954.121ZM76.3357 956.964C75.0397 956.407 74.3773 954.853 74.4637 953.417C74.5213 951.981 75.1549 950.662 75.7885 949.372C76.6525 947.584 78.2365 945.445 80.1085 946.089C81.4909 946.558 81.6349 948.786 81.1453 950.164C81.2605 951.834 81.2605 953.593 80.4541 955.088C79.6765 956.553 77.8621 957.608 76.3357 956.964ZM47.3053 972.791C46.4989 972.029 47.1901 970.622 48.2845 970.798C52.5181 971.56 56.8957 971.384 61.0429 970.271C62.1949 969.597 63.2317 969.567 64.3549 969.802C65.5357 970.065 65.9677 971.59 65.1037 972.469C62.6557 974.96 59.1997 976.455 55.7437 976.367C52.6333 976.309 49.5805 974.96 47.3053 972.791ZM94.6813 979.093C92.6941 978.184 90.8509 976.983 89.2669 975.488C88.3741 974.667 87.4813 973.436 87.9421 972.293C88.5469 970.798 90.8221 971.091 92.0605 972.088C93.2989 973.114 93.1837 972.557 94.7389 972.879C96.1501 973.407 97.6189 973.993 98.5693 975.195C99.4909 976.397 99.6061 978.419 98.3677 979.269C97.3021 980.002 95.8621 979.621 94.7101 979.093H94.6813ZM52.6333 1002.45C52.2013 1001.43 52.4317 1000.26 52.7485 999.2C54.4765 993.045 58.6237 987.652 64.0669 984.428C65.4493 984.105 65.4781 984.779 66.0541 985.571C66.6301 986.333 66.4861 987.417 66.2845 988.355C65.3341 992.693 63.5485 996.855 61.0717 1000.52C60.0637 1001.98 58.8541 1003.45 57.2125 1004.07C55.5421 1004.68 53.3533 1004.12 52.6909 1002.48L52.6333 1002.45Z" fill="#535F57"/>
</g>
<path d="M988.72 1102.43C988.72 1102.43 934.633 929.822 1000.59 756.978C1002.92 750.852 1011.21 750.207 1014.47 755.893C1036.04 793.44 1093.41 909.979 1097.15 1093.84L988.72 1102.43Z" fill="#535F57"/>
<path d="M501.165 329.131C501.165 329.131 503.037 327.958 506.406 326.2C502.662 327.372 501.165 329.131 501.165 329.131Z" fill="#535F57"/>
<path d="M687.961 514.229C687.961 514.229 761.92 477.004 806.445 587.388C806.445 587.388 848.809 462.847 722.838 474.923L674.598 491.542C674.598 491.542 719.382 430.752 791.67 469.413C791.67 469.413 757.917 382.742 683.872 458.715C698.445 441.773 711.75 418.911 711.75 391.623C711.75 331.126 658.009 302.46 658.009 302.46C658.009 302.46 679.955 360.026 664.893 434.152C662.963 439.458 657.145 454.582 650.55 465.456L652.71 450.39C654.265 258.641 533.219 312.045 506.406 326.231C515.997 323.183 540.419 323.857 592.605 367.178C605.824 378.169 616.336 398.423 624.429 419.937C627.51 430.342 631.974 448.251 632.493 466.394C571.149 301.874 457.331 438.813 457.331 438.813C512.425 411.7 561.616 431.69 595.686 456.458C601.043 460.356 606.025 464.372 610.605 468.328C614.291 477.298 617.113 487.058 619.014 494.767C591.424 468.592 535.062 437.289 473.891 532.255C473.891 532.255 570.285 501.889 618.237 508.953C605.248 511.972 582.208 529.939 555.654 607.495C555.654 607.495 590.243 609.693 623.334 526.481C569.449 868.476 357.481 1008.02 354.169 1012.16L441.001 1054.57C444.342 1050.38 590.589 883.102 645.769 534.805L690.525 646.595C690.525 646.595 722.291 591.316 663.712 528.034C663.712 528.034 741.76 563.295 753.683 650.318C753.683 650.318 818.195 534.219 687.961 514.287V514.229Z" fill="#535F57"/>
<path d="M555.653 831.281C555.653 831.281 557.41 831.281 560.405 831.516C557.381 830.722 555.653 831.281 555.653 831.281Z" fill="#535F57"/>
<path d="M569.103 1031.94L553.522 1126.64C553.522 1126.64 597.702 1102.73 584.022 1034.99C584.022 1034.99 622.383 1092.06 594.735 1156.01C594.735 1156.01 686.031 1104.84 606.082 1036.02C606.082 1036.02 671.43 1042.26 656.252 1135.91C656.252 1135.91 736.028 1069.61 645.826 1024.23L606.37 1014.97C606.37 1014.97 661.638 992.87 694.7 1049.76C694.7 1049.76 707.43 976.749 626.127 996.681C642.947 991.405 661.321 981.586 672.524 963.12C697.35 922.173 672.755 879.907 672.755 879.907C672.755 879.907 663.999 928.211 623.362 971.972C619.878 974.727 609.74 982.524 600.812 987.067L608.444 977.805C688.191 848.662 584.339 833.362 560.348 831.574C568.095 833.597 584.339 844.412 601.878 895.94C606.313 909.013 605.132 927.185 601.762 945.182C599.574 953.535 595.225 967.546 588.14 980.062C614.146 842.624 480.889 886.913 480.889 886.913C529.302 891.983 554.415 926.423 567.318 957.668C569.334 962.592 571.062 967.399 572.53 972.03C571.35 979.68 569.247 987.477 567.375 993.515C559.455 964.058 534.14 918.92 453.759 957.199C453.759 957.199 531.462 977.629 561.01 1002.78C550.988 999.289 528.006 1001.66 478.21 1042.87C478.21 1042.87 500.703 1059.05 557.266 1016.82" fill="#535F57"/>
<path d="M111.414 1092.97C111.414 1092.97 110.032 1092.09 107.756 1090.47C109.772 1092.56 111.414 1092.97 111.414 1092.97Z" fill="#535F57"/>
<path d="M194.905 926.803L251.757 859.066C251.757 859.066 205.388 856.604 184.451 917.16C184.451 917.16 180.736 853.116 232.72 815.687C232.72 815.687 136.067 811.994 167.344 905.641C167.344 905.641 118.297 868.915 174.313 801.793C174.313 801.793 79.7341 815.716 130.192 895.704L157.235 922.26C157.235 922.26 102.918 912.968 103.321 851.621C103.321 851.621 58.9117 903.501 132.956 927.184C117.088 923.198 97.8781 922.084 80.2813 931.317C41.3149 951.805 41.0557 997.383 41.0557 997.383C41.0557 997.383 70.6909 963.236 123.539 948.17C127.6 947.672 139.321 946.412 148.566 947.115L138.14 950.779C14.0701 1014.73 89.4973 1077.4 107.728 1090.47C102.515 1085.11 94.6813 1068.58 104.905 1019.07C107.497 1006.53 117.001 992.635 128.118 979.972C133.763 974.403 143.814 965.346 155.334 958.839C70.1437 1055.51 196.921 1085.08 196.921 1085.08C160.777 1057.5 157.004 1017.9 161.382 986.772C162.073 981.877 162.966 977.188 163.974 972.791C168.496 967.281 173.852 962.093 178.144 958.224C170.627 985.512 169.561 1033.73 251.469 1042.35C251.469 1042.35 199.254 988.297 187.561 953.915C193.897 961.565 213.28 970.857 272.262 962.269C272.262 962.269 261.952 938.439 197.152 944.565" fill="#535F57"/>
<path d="M318.141 1000.49C326.982 1004.27 336.688 998.673 345.76 995.449C348.122 994.599 350.742 993.924 353.104 994.775C355.466 995.595 356.358 997.325 355.149 999.581C350.195 1007.5 355.091 1018.87 363.27 1023.12C371.478 1027.37 381.472 1025.99 390.054 1022.56C404.541 1016.79 416.781 1005.41 423.779 991.257C419.373 995.331 413.872 998.233 408.026 999.523C405.75 1000.02 402.928 1000.08 401.603 998.116C400.077 995.8 402.093 992.547 404.627 991.55C407.162 990.524 410.013 990.906 412.72 990.554C417.587 989.938 422.109 986.89 424.528 982.552C426.947 978.214 427.264 972.704 425.277 968.131C416.55 977.716 403.216 982.728 390.458 981.204C393.194 976.836 398.464 974.814 403.475 973.847C408.486 972.88 413.728 972.616 418.394 970.476C427.408 966.343 432.333 954.736 429.165 945.21C419.517 955.938 405.779 962.767 391.552 963.94C393.77 959.221 398.234 955.967 402.928 953.828C407.622 951.717 412.691 950.545 417.53 948.816C421.994 947.233 426.717 944.741 428.358 940.198C429.309 937.56 429.05 934.659 428.79 931.874C428.186 925.69 427.581 919.476 427.005 913.291C423.405 919.974 419.776 926.715 414.966 932.548C410.157 938.381 403.994 943.305 396.765 945.357C398.291 937.179 408.227 934.16 413.382 927.712C418.998 920.707 418.25 910.565 416.493 901.713C414.707 892.744 412.115 883.922 408.803 875.393C406.701 880.493 399.386 879.584 394.49 881.987C388.73 884.801 386.829 892.07 385.677 898.46C384.525 904.85 382.941 912.089 377.411 915.343C372.314 914.61 370.384 907.751 371.824 902.739C373.264 897.727 376.806 893.565 378.419 888.582C373.149 886.765 367.216 890.37 364.71 895.412C362.205 900.453 362.406 906.433 363.357 912.002C364.307 917.571 365.978 923.022 366.179 928.679C366.323 932.665 364.509 937.853 360.563 937.648C357.597 937.502 355.84 934.248 355.091 931.317C353.91 926.598 353.91 921.586 355.12 916.867C355.926 913.702 357.078 909.715 354.602 907.605C353.075 906.286 350.685 906.462 348.986 907.546C347.286 908.631 346.192 910.448 345.357 912.295C339.712 924.869 344.723 939.495 349.734 952.362C343.773 949.109 339.885 942.807 337.984 936.183C336.083 929.559 335.91 922.612 335.766 915.724C329.574 917.16 321.798 925.25 322.95 931.61C324.102 937.941 328.394 943.188 332.714 947.907C334.384 949.724 336.112 951.541 337.12 953.828C338.128 956.085 338.272 958.928 336.832 960.921C334.701 963.881 329.92 963.647 327.184 961.243C324.448 958.84 323.354 955.029 322.922 951.366C322.49 947.702 322.576 943.95 321.539 940.433C321.136 939.084 320.387 937.59 319.005 937.355C317.594 937.091 316.384 938.264 315.462 939.348C304.922 951.952 301.466 970.3 306.65 985.981C308.666 992.078 312.266 998.116 318.083 1000.61L318.141 1000.49ZM364.134 951.307C364.221 949.724 364.48 948.083 365.373 946.764C366.266 945.445 367.907 944.595 369.405 945.034C370.902 945.503 371.795 947.116 371.91 948.698C372.026 950.281 372.083 950.34 371.594 951.835C371.536 954.238 370.989 957.228 368.714 957.814C367.216 958.195 365.661 957.198 364.912 955.85C364.163 954.502 364.077 952.86 364.134 951.307ZM375.741 973.642C375.453 972.235 376.346 970.798 377.555 970.066C378.765 969.304 380.176 969.098 381.587 968.893C383.546 968.6 386.138 968.747 386.685 970.681C387.088 972.117 385.36 973.466 383.978 973.876C382.682 974.902 381.242 975.898 379.6 976.074C377.958 976.25 376.086 975.312 375.77 973.671L375.741 973.642ZM346.538 958.166C346.71 957.052 348.237 956.847 348.698 957.873C350.454 961.859 353.075 965.435 356.33 968.278C357.51 968.864 358.144 969.714 358.576 970.798C359.037 971.942 358.029 973.173 356.848 972.938C353.45 972.293 350.31 970.242 348.41 967.281C346.71 964.614 346.077 961.302 346.538 958.166ZM368.138 1001.52C367.763 999.347 367.706 997.119 367.994 994.921C368.166 993.69 368.656 992.254 369.837 991.99C371.392 991.668 372.429 993.719 372.314 995.331C372.198 996.943 372.573 996.533 373.178 998.028C373.552 999.523 373.898 1001.08 373.466 1002.54C373.034 1004.01 371.45 1005.21 370.038 1004.68C368.829 1004.21 368.339 1002.78 368.109 1001.49L368.138 1001.52ZM325.456 979.386C326.061 978.449 327.126 977.98 328.163 977.628C334.125 975.605 340.864 976.045 346.538 978.8C347.574 979.797 347.027 980.178 346.739 981.087C346.451 981.995 345.501 982.493 344.608 982.845C340.547 984.516 336.17 985.366 331.792 985.307C330.035 985.307 328.163 985.102 326.723 984.047C325.283 982.992 324.506 980.852 325.456 979.328V979.386Z" fill="#535F57"/>
<g style="mix-blend-mode:luminosity">
<path d="M798.029 177.212C802.752 177.74 807.36 179.205 811.738 181.198C816.115 183.25 820.291 185.917 823.92 189.317C825.821 190.929 827.405 192.864 829.046 194.769C830.429 196.85 832.013 198.843 833.078 201.159C835.642 205.555 836.909 210.538 838.003 215.462L832.042 215.198C833.05 211.828 834.403 209.454 836.045 206.962C837.629 204.5 839.472 202.272 841.373 200.133C845.261 195.912 849.754 192.453 854.448 189.434C859.114 186.357 864.154 184.041 869.222 181.931C871.814 180.993 874.406 180.114 876.998 179.264C879.648 178.56 882.298 177.915 884.918 177.3C882.499 178.59 880.08 179.791 877.661 180.993L870.576 184.862C865.997 187.617 861.418 190.372 857.299 193.655C853.123 196.85 849.149 200.309 845.779 204.236C844.109 206.2 842.496 208.223 841.171 210.362C839.846 212.443 838.579 214.905 837.946 216.781V216.898C837.341 218.54 835.613 219.39 834 218.833C832.934 218.452 832.214 217.543 831.984 216.517C831.091 212.15 830.026 207.783 828.038 203.797C826.195 199.752 823.69 196 820.666 192.688C817.642 189.376 814.186 186.327 810.355 183.777C806.525 181.198 802.406 179 798 177.271L798.029 177.212Z" fill="#535F57"/>
<path d="M861.562 271.622C866.746 272.208 871.815 273.82 876.653 276.018C881.463 278.275 886.042 281.235 890.045 284.929C892.119 286.717 893.876 288.827 895.69 290.908C897.216 293.194 898.944 295.392 900.154 297.942C902.976 302.779 904.388 308.289 905.568 313.682L899.002 313.389C900.125 309.696 901.623 307.058 903.408 304.303C905.165 301.606 907.181 299.144 909.284 296.799C913.575 292.168 918.5 288.329 923.655 285.017C928.781 281.646 934.34 279.066 939.927 276.751C942.778 275.725 945.629 274.758 948.48 273.82C951.389 273.058 954.298 272.325 957.207 271.651C954.557 273.058 951.879 274.406 949.229 275.696L941.453 279.975C936.413 283.023 931.402 286.042 926.823 289.648C922.215 293.165 917.866 296.975 914.151 301.284C912.308 303.453 910.551 305.651 909.082 308.025C907.613 310.312 906.231 313.037 905.54 315.089L905.482 315.236C904.877 317.024 902.948 317.991 901.191 317.375C900.01 316.965 899.204 315.968 898.973 314.825C897.994 310.018 896.813 305.211 894.624 300.815C892.608 296.36 889.844 292.256 886.503 288.592C883.162 284.929 879.389 281.587 875.156 278.773C870.951 275.96 866.4 273.527 861.562 271.592V271.622Z" fill="#535F57"/>
<path d="M911.098 125.186C915.533 125.684 919.853 127.062 923.971 128.938C928.061 130.872 931.978 133.393 935.405 136.559C937.19 138.083 938.688 139.9 940.215 141.659C941.511 143.622 943.008 145.498 944.016 147.638C946.435 151.771 947.616 156.46 948.624 161.091L943.037 160.828C943.987 157.662 945.254 155.435 946.81 153.09C948.307 150.774 950.035 148.693 951.821 146.671C955.479 142.714 959.683 139.46 964.09 136.617C968.467 133.745 973.219 131.546 977.971 129.553C980.39 128.674 982.838 127.853 985.258 127.062C987.734 126.417 990.211 125.772 992.717 125.215C990.442 126.417 988.166 127.56 985.891 128.674L979.238 132.308C974.918 134.917 970.656 137.496 966.768 140.574C962.851 143.564 959.136 146.817 955.968 150.51C954.413 152.357 952.887 154.233 951.648 156.285C950.41 158.219 949.2 160.564 948.624 162.293V162.41C948.077 163.935 946.435 164.755 944.909 164.228C943.901 163.876 943.21 163.026 943.008 162.029C942.173 157.926 941.165 153.822 939.322 150.071C937.594 146.26 935.232 142.743 932.381 139.636C929.53 136.529 926.304 133.657 922.704 131.283C919.104 128.879 915.245 126.798 911.098 125.157V125.186Z" fill="#535F57"/>
<path d="M999.14 180.788C1003.57 181.286 1007.89 182.664 1012.01 184.539C1016.1 186.474 1020.02 188.995 1023.45 192.16C1025.23 193.684 1026.73 195.502 1028.26 197.26C1029.55 199.224 1031.05 201.1 1032.06 203.239C1034.48 207.372 1035.66 212.062 1036.67 216.693L1031.08 216.429C1032.03 213.264 1033.3 211.036 1034.85 208.691C1036.35 206.376 1038.08 204.295 1039.86 202.272C1043.52 198.315 1047.73 195.062 1052.13 192.219C1056.51 189.346 1061.26 187.148 1066.01 185.155C1068.43 184.276 1070.88 183.455 1073.3 182.664C1075.78 182.019 1078.25 181.374 1080.76 180.817C1078.48 182.019 1076.21 183.162 1073.93 184.276L1067.28 187.91C1062.96 190.519 1058.7 193.098 1054.81 196.176C1050.89 199.165 1047.18 202.419 1044.01 206.112C1042.45 207.959 1040.93 209.834 1039.69 211.886C1038.45 213.821 1037.24 216.165 1036.67 217.895V218.012C1036.12 219.536 1034.48 220.357 1032.95 219.829C1031.94 219.478 1031.25 218.628 1031.05 217.631C1030.21 213.528 1029.21 209.424 1027.36 205.672C1025.64 201.862 1023.27 198.345 1020.42 195.238C1017.57 192.131 1014.35 189.258 1010.75 186.884C1007.15 184.481 1003.29 182.4 999.14 180.758V180.788Z" fill="#535F57"/>
<path d="M1013.6 55.0176C1016.3 55.3107 1018.92 56.2193 1021.49 57.3038C1023.99 58.4763 1026.38 60.0297 1028.49 61.9642C1029.58 62.9021 1030.5 64.0159 1031.42 65.1004C1032.23 66.3022 1033.12 67.4453 1033.76 68.7643C1035.22 71.285 1035.97 74.1574 1036.58 77.0005L1033.15 76.854C1033.73 74.9195 1034.5 73.5419 1035.46 72.1057C1036.38 70.6988 1037.41 69.4091 1038.51 68.1781C1040.75 65.7453 1043.32 63.7522 1046.03 62.0228C1048.7 60.2642 1051.61 58.9159 1054.52 57.7142C1057.49 56.6297 1060.48 55.6917 1063.54 55.0469C1062.15 55.7797 1060.74 56.4831 1059.36 57.128L1055.3 59.3849C1052.65 60.9677 1050.03 62.5504 1047.67 64.4263C1045.25 66.2729 1043 68.266 1041.04 70.4936C1039.11 72.6626 1037.38 75.3591 1036.55 77.704V77.7919C1036.18 78.7299 1035.17 79.1988 1034.25 78.8471C1033.64 78.6126 1033.24 78.1143 1033.12 77.5281C1032.6 75.0074 1032 72.516 1030.85 70.2005C1029.78 67.885 1028.34 65.716 1026.61 63.8108C1023.16 59.9711 1018.64 56.9228 1013.6 54.9297V55.0176Z" fill="#535F57"/>
<path d="M1102.44 17.0293C1104.4 17.2345 1106.3 17.9086 1108.15 18.7C1109.96 19.55 1111.66 20.7224 1113.19 22.0707C1114.74 23.419 1116.07 25.0897 1117.02 26.9656C1118.08 28.7829 1118.6 30.8639 1119.06 32.9156L1116.59 32.7984C1117.42 30.1604 1118.89 28.3432 1120.47 26.5259C1122.09 24.7673 1123.96 23.3311 1125.92 22.0707C1127.87 20.8104 1129.98 19.8724 1132.05 18.9345C1134.21 18.1431 1136.37 17.469 1138.59 17C1137.58 17.5276 1136.57 18.0259 1135.56 18.5241L1132.63 20.1362C1130.7 21.25 1128.8 22.3931 1127.1 23.8C1125.37 25.1483 1123.73 26.5846 1122.32 28.1966C1120.93 29.7501 1119.67 31.7139 1119.06 33.4139V33.5018C1118.8 34.176 1118.05 34.5277 1117.39 34.2639C1116.96 34.1174 1116.67 33.7363 1116.59 33.2967C1116.21 31.4794 1115.78 29.6622 1114.94 28.0208C1114.17 26.3501 1113.13 24.7966 1111.89 23.3897C1109.39 20.6052 1106.1 18.4362 1102.44 17V17.0293Z" fill="#535F57"/>
<path d="M1075.4 107.95C1078.11 108.243 1080.73 109.151 1083.29 110.236C1085.8 111.408 1088.19 112.962 1090.29 114.896C1091.39 115.834 1092.31 116.948 1093.23 118.033C1094.03 119.234 1094.93 120.377 1095.56 121.696C1097.03 124.217 1097.78 127.09 1098.38 129.933L1094.96 129.786C1095.53 127.852 1096.31 126.474 1097.26 125.038C1098.18 123.631 1099.22 122.341 1100.31 121.11C1102.56 118.677 1105.12 116.684 1107.83 114.955C1110.51 113.196 1113.42 111.848 1116.33 110.646C1119.29 109.562 1122.29 108.624 1125.34 107.979C1123.96 108.712 1122.55 109.415 1121.16 110.06L1117.1 112.317C1114.45 113.9 1111.83 115.483 1109.47 117.358C1107.05 119.205 1104.81 121.198 1102.85 123.426C1100.92 125.595 1099.19 128.291 1098.35 130.636V130.724C1097.98 131.662 1096.97 132.131 1096.05 131.779C1095.45 131.545 1095.04 131.046 1094.93 130.46C1094.41 127.94 1093.8 125.448 1092.65 123.162C1091.59 120.846 1090.15 118.677 1088.42 116.772C1084.96 112.933 1080.44 109.884 1075.4 107.891V107.95Z" fill="#535F57"/>
<path d="M1153.31 56.7158C1156.01 57.0089 1158.63 57.9176 1161.2 59.0021C1163.7 60.1745 1166.12 61.7279 1168.2 63.6624C1169.29 64.6004 1170.21 65.7142 1171.13 66.7987C1171.94 68.0004 1172.83 69.1435 1173.47 70.4625C1174.93 72.9832 1175.68 75.8556 1176.29 78.6988L1172.86 78.5522C1173.44 76.6177 1174.21 75.2401 1175.16 73.8039C1176.09 72.397 1177.12 71.1073 1178.22 69.8763C1180.46 67.4435 1183.03 65.4504 1185.73 63.7211C1188.41 61.9624 1191.32 60.6141 1194.23 59.4124C1197.2 58.3279 1200.19 57.39 1203.24 56.7451C1201.86 57.4779 1200.45 58.1813 1199.07 58.8262L1195.01 61.0831C1192.36 62.6659 1189.74 64.2487 1187.38 66.1245C1184.96 67.9711 1182.71 69.9642 1180.75 72.1918C1178.82 74.3608 1177.09 77.0574 1176.26 79.4022V79.4901C1175.88 80.4281 1174.88 80.8971 1173.96 80.5746C1173.35 80.3402 1172.95 79.8419 1172.83 79.2556C1172.31 76.7349 1171.71 74.2435 1170.56 71.9573C1169.49 69.6418 1168.05 67.4728 1166.32 65.5676C1162.87 61.7279 1158.35 58.6796 1153.31 56.6865V56.7158Z" fill="#535F57"/>
</g>
</g>
</svg>
