<svg width="959" height="976" viewBox="0 0 959 976" fill="none" xmlns="http://www.w3.org/2000/svg">
<g style="mix-blend-mode:luminosity" opacity="0.1">
<g style="mix-blend-mode:luminosity">
<g opacity="0.21">
<path opacity="0.6" d="M479.03 975.045C743.592 975.045 958.061 756.774 958.061 487.523C958.061 218.271 743.592 0 479.03 0C214.469 0 0 218.271 0 487.523C0 756.774 214.469 975.045 479.03 975.045Z" fill="#535F57"/>
</g>
<g opacity="0.21">
<path opacity="0.5" d="M479.031 869.996C686.586 869.996 854.842 698.757 854.842 487.523C854.842 276.288 686.586 105.049 479.031 105.049C271.476 105.049 103.22 276.288 103.22 487.523C103.22 698.757 271.476 869.996 479.031 869.996Z" fill="#535F57"/>
</g>
<g style="mix-blend-mode:luminosity">
<path d="M479.031 750.408C621.69 750.408 737.338 632.71 737.338 487.522C737.338 342.334 621.69 224.636 479.031 224.636C336.372 224.636 220.724 342.334 220.724 487.522C220.724 632.71 336.372 750.408 479.031 750.408Z" fill="#535F57"/>
</g>
</g>
</g>
</svg>
