<svg width="96" height="96" viewBox="0 0 96 96" fill="none" xmlns="http://www.w3.org/2000/svg">
<rect width="96" height="96" rx="48" fill="#F7F1CE"/>
<path d="M47.8152 69.8706L34.4785 62.197L47.8152 80.6855L61.1519 62.197L47.8152 69.8706Z" fill="#022D22"/>
<path d="M61.1408 57.9885C61.1408 57.9688 61.1408 57.9491 61.1408 57.9294L47.8175 47.4255L34.4919 57.9184C34.4919 57.9776 34.4897 58.0345 34.4897 58.0937L47.9354 52.1331L61.1408 57.9885Z" fill="#022D22"/>
<path d="M34.6676 52.8999C34.6609 53.0095 34.6542 53.119 34.6498 53.2285L47.8196 38.0915L60.985 53.2614C60.9805 53.1672 60.9738 53.073 60.9694 52.9766L47.8196 32.7706L34.6676 52.8999Z" fill="#022D22"/>
<path d="M34.5431 55.708C34.5409 55.7781 34.5386 55.8482 34.5364 55.9183L47.8152 45.4604L61.0919 55.9293C61.0919 55.868 61.0874 55.8044 61.0852 55.7431L47.8152 40.4506L34.5431 55.708Z" fill="#022D22"/>
<path d="M47.9332 53.8159L34.5809 59.737L47.8153 67.4655L61.1519 59.6757L47.9332 53.8159Z" fill="#022D22"/>
<path d="M47.8196 29.9338L60.7402 49.7894C58.5018 23.7323 47.8151 15.2722 47.8151 15.2722C47.8151 15.2722 37.1485 23.7169 34.8945 49.7193L47.8196 29.9338Z" fill="#022D22"/>
</svg>
