<svg xmlns="http://www.w3.org/2000/svg" width="11" height="25" viewBox="0 0 11 25" fill="none">
<g clip-path="url(#clip0_703_1904)">
<path d="M5.3976 20.532L0.504395 17.7166L5.3976 24.5L10.2908 17.7166L5.3976 20.532Z" fill="#287561"/>
<path d="M10.2867 16.1725C10.2867 16.1653 10.2867 16.158 10.2867 16.1508L5.39844 12.2969L0.509312 16.1468C0.509312 16.1685 0.508496 16.1894 0.508496 16.2111L5.4417 14.0241L10.2867 16.1725Z" fill="#287561"/>
<path d="M0.573767 14.3055C0.571318 14.3457 0.568869 14.3859 0.567236 14.4261L5.39921 8.87232L10.2296 14.4381C10.2279 14.4035 10.2255 14.369 10.2238 14.3336L5.39921 6.92007L0.573767 14.3055Z" fill="#287561"/>
<path d="M0.528084 15.3358C0.527267 15.3615 0.526451 15.3872 0.525635 15.4129L5.39761 11.576L10.2688 15.417C10.2688 15.3945 10.2671 15.3711 10.2663 15.3486L5.39761 9.73785L0.528084 15.3358Z" fill="#287561"/>
<path d="M5.44089 14.6416L0.541968 16.814L5.39762 19.6496L10.2908 16.7915L5.44089 14.6416Z" fill="#287561"/>
<path d="M5.39921 5.87928L10.1398 13.1642C9.31851 3.60394 5.39758 0.499954 5.39758 0.499954C5.39758 0.499954 1.48399 3.59831 0.657031 13.1385L5.39921 5.87928Z" fill="#287561"/>
</g>
<defs>
<clipPath id="clip0_703_1904">
<rect width="10.8" height="24" fill="white" transform="translate(0 0.5)"/>
</clipPath>
</defs>
</svg>