<svg width="151" height="159" viewBox="0 0 151 159" fill="none" xmlns="http://www.w3.org/2000/svg">
<path d="M20.9377 29.1891L29.7709 32.6128L27.3505 35.3249L24.3204 34.1643L23.6386 34.9283L25.1431 37.7982L22.7227 40.5102L18.3212 32.1208L20.9377 29.1891ZM22.5841 33.9184L23.2062 33.2213L21.9647 32.7479L22.5841 33.9184Z" fill="#136953"/>
<path d="M30.819 27.3085L35.4927 23.5006L37.6754 26.1799L30.3226 32.1707L24.6475 25.2045L27.3267 23.0216L30.819 27.3085Z" fill="#136953"/>
<path d="M40.1206 14.0395C41.4314 13.2893 43.1192 13.7392 43.8757 15.0612L45.8209 18.4606C46.571 19.7715 46.11 21.4658 44.7992 22.216L40.911 24.4411C40.2778 24.8034 39.5206 24.8976 38.8109 24.7139C38.1059 24.5127 37.5071 24.059 37.1559 23.4194L35.2107 20.02C34.8373 19.3931 34.7431 18.6359 34.9332 17.9372C35.1344 17.2322 35.5881 16.6333 36.2324 16.2646L40.1206 14.0395ZM42.2034 19.3805L41.2499 17.7141C41.002 17.2809 40.4431 17.1288 40.0098 17.3767L39.1544 17.8663C38.7212 18.1142 38.5691 18.6731 38.817 19.1064L39.7706 20.7728C40.0185 21.2061 40.5774 21.3581 41.0106 21.1102L41.866 20.6207C42.2993 20.3727 42.4513 19.8138 42.2034 19.3805Z" fill="#136953"/>
<path d="M50.9445 9.61671L54.2136 8.41964L57.2984 16.8451L54.0292 18.0422L52.9291 15.0374L50.4772 15.9352L51.5773 18.94L48.3082 20.137L45.2234 11.7116L48.4926 10.5145L49.4695 13.1828L51.9214 12.285L50.9445 9.61671Z" fill="#136953"/>
<path d="M63.4733 6.56203L68.3886 14.6608L64.8166 15.3351L63.122 12.568L62.1158 12.7579L61.5591 15.9501L57.9872 16.6244L59.612 7.29096L63.4733 6.56203ZM61.8955 11.3146L62.8137 11.1413L62.118 10.0091L61.8955 11.3146Z" fill="#136953"/>
<path d="M74.378 11.124C74.0114 11.1181 73.6781 11.0233 73.378 10.8396C73.078 10.6529 72.8395 10.4066 72.6627 10.1006C72.4888 9.79476 72.4049 9.45852 72.4108 9.09192C72.4168 8.72229 72.5116 8.38895 72.6953 8.09191C72.882 7.79188 73.1283 7.55495 73.4341 7.38111C73.7401 7.20424 74.0763 7.11879 74.4429 7.12474C74.8126 7.13074 75.1459 7.22707 75.4429 7.41372C75.743 7.5974 75.9799 7.84217 76.1538 8.14805C76.3307 8.45095 76.4161 8.78721 76.4101 9.15685C76.4042 9.52345 76.3079 9.85676 76.1211 10.1568C75.9375 10.4569 75.6927 10.6953 75.3867 10.8722C75.0839 11.0461 74.7477 11.13 74.378 11.124Z" fill="#136953"/>
<path d="M92.419 7.51934L93.9118 16.8748L90.3497 16.1501L89.8256 12.9478L88.8222 12.7436L87.1012 15.4891L83.5392 14.7643L88.5685 6.73589L92.419 7.51934ZM89.1633 11.324L90.0789 11.5103L89.8623 10.1993L89.1633 11.324Z" fill="#136953"/>
<path d="M99.0448 15.1192L104.684 17.2513L103.462 20.4838L94.5903 17.1296L97.7676 8.72494L101 9.94713L99.0448 15.1192Z" fill="#136953"/>
<path d="M115.18 16.5141C116.486 17.2725 116.943 18.9586 116.178 20.2758L114.212 23.663C113.453 24.9691 111.756 25.4194 110.45 24.661L106.576 22.4115C105.945 22.0452 105.484 21.4371 105.287 20.7308C105.108 20.0199 105.201 19.2744 105.578 18.6499L107.545 15.2627C107.9 14.6253 108.508 14.1643 109.208 13.9787C109.919 13.7994 110.664 13.8919 111.306 14.2647L115.18 16.5141ZM111.603 20.9936L112.567 19.3332C112.817 18.9015 112.669 18.3416 112.237 18.091L111.385 17.5961C110.953 17.3454 110.393 17.494 110.143 17.9257L109.179 19.586C108.928 20.0177 109.076 20.5776 109.508 20.8283L110.36 21.3232C110.792 21.5738 111.352 21.4253 111.603 20.9936Z" fill="#136953"/>
<path d="M124.425 23.6521L127.101 25.8784L121.364 32.7769L118.687 30.5507L120.733 28.0904L118.726 26.4207L116.68 28.881L114.003 26.6547L119.74 19.7562L122.417 21.9824L120.6 24.1671L122.608 25.8368L124.425 23.6521Z" fill="#136953"/>
<path d="M133.365 32.9302L128.845 41.2565L126.463 38.5105L128 35.6525L127.329 34.879L124.291 36.0063L121.909 33.2603L130.79 29.9618L133.365 32.9302ZM128.465 33.9615L129.077 34.6674L129.705 33.496L128.465 33.9615Z" fill="#136953"/>
<path d="M134.339 46.5335C134.156 46.2154 134.067 45.8804 134.072 45.5286C134.079 45.1753 134.169 44.8444 134.341 44.536C134.515 44.2303 134.761 43.9863 135.08 43.804C135.4 43.6202 135.735 43.5313 136.084 43.5373C136.438 43.5444 136.767 43.635 137.073 43.809C137.381 43.9815 137.627 44.2269 137.809 44.545C137.993 44.8658 138.08 45.2015 138.072 45.5522C138.067 45.904 137.978 46.2328 137.804 46.5386C137.634 46.8455 137.389 47.0908 137.068 47.2746C136.75 47.4569 136.414 47.5445 136.061 47.5373C135.709 47.5329 135.379 47.4443 135.071 47.2718C134.766 47.1004 134.522 46.8543 134.339 46.5335Z" fill="#136953"/>
<path d="M147.104 58.4514L139.76 64.4361L138.6 60.9911L141.107 58.9313L140.78 57.9608L137.542 57.8494L136.382 54.4044L145.85 54.7274L147.104 58.4514ZM142.18 57.5437L142.478 58.4292L143.503 57.5841L142.18 57.5437Z" fill="#136953"/>
<path d="M143.849 67.9976L144.835 73.945L141.426 74.5101L139.875 65.1533L148.739 63.6842L149.304 67.0935L143.849 67.9976Z" fill="#136953"/>
<path d="M150.787 82.4C150.812 83.9101 149.603 85.1715 148.08 85.1962L144.164 85.2598C142.654 85.2843 141.393 84.063 141.368 82.5529L141.295 78.0737C141.284 77.3442 141.567 76.6356 142.07 76.1026C142.586 75.5821 143.273 75.2766 144.002 75.2775L147.918 75.2139C148.648 75.1893 149.356 75.4722 149.877 75.9758C150.397 76.4922 150.703 77.1785 150.715 77.9208L150.787 82.4ZM145.104 81.6474L147.024 81.6162C147.523 81.6081 147.926 81.1919 147.918 80.6928L147.902 79.7074C147.894 79.2083 147.477 78.8054 146.978 78.8135L145.059 78.8447C144.56 78.8528 144.157 79.269 144.165 79.7681L144.181 80.7535C144.189 81.2526 144.605 81.6555 145.104 81.6474Z" fill="#136953"/>
<path d="M149.251 94.2048L148.678 97.6387L139.828 96.1608L140.401 92.7269L143.557 93.254L143.987 90.6786L140.831 90.1515L141.405 86.7176L150.254 88.1955L149.681 91.6294L146.878 91.1614L146.448 93.7368L149.251 94.2048Z" fill="#136953"/>
<path d="M145.724 106.611L136.254 106.888L137.431 103.448L140.674 103.341L141.005 102.372L138.504 100.312L139.681 96.8726L146.996 102.893L145.724 106.611ZM142.369 102.893L142.067 103.777L143.395 103.731L142.369 102.893Z" fill="#136953"/>
<path d="M133.026 114.301C133.21 113.984 133.455 113.739 133.762 113.567C134.071 113.396 134.402 113.308 134.756 113.302C135.107 113.3 135.442 113.39 135.759 113.574C136.079 113.76 136.324 114.005 136.494 114.31C136.665 114.619 136.751 114.95 136.754 115.302C136.76 115.655 136.67 115.99 136.486 116.307C136.301 116.627 136.054 116.871 135.747 117.04C135.44 117.212 135.111 117.3 134.759 117.303C134.408 117.309 134.073 117.22 133.753 117.035C133.436 116.851 133.192 116.604 133.021 116.295C132.848 115.988 132.76 115.658 132.754 115.305C132.75 114.956 132.841 114.621 133.026 114.301Z" fill="#136953"/>
<path d="M130.548 131.3L121.684 127.958L124.079 125.224L127.119 126.356L127.794 125.586L126.263 122.73L128.658 119.996L133.137 128.344L130.548 131.3ZM128.858 126.586L128.242 127.289L129.488 127.751L128.858 126.586Z" fill="#136953"/>
<path d="M120.668 133.285L116.028 137.135L113.822 134.475L121.121 128.419L126.858 135.334L124.198 137.541L120.668 133.285Z" fill="#136953"/>
<path d="M111.503 146.632C110.199 147.394 108.507 146.96 107.738 145.645L105.762 142.264C104.999 140.96 105.445 139.262 106.749 138.499L110.616 136.238C111.246 135.87 112.002 135.769 112.713 135.946C113.42 136.141 114.023 136.589 114.38 137.225L116.357 140.607C116.736 141.23 116.837 141.986 116.654 142.687C116.459 143.394 116.011 143.997 115.37 144.371L111.503 146.632ZM109.37 141.311L110.339 142.968C110.591 143.399 111.152 143.546 111.582 143.294L112.433 142.797C112.864 142.545 113.011 141.984 112.759 141.553L111.79 139.896C111.538 139.465 110.978 139.318 110.547 139.57L109.696 140.067C109.265 140.319 109.119 140.88 109.37 141.311Z" fill="#136953"/>
<path d="M100.721 151.157L97.4632 152.384L94.3006 143.988L97.5586 142.76L98.6864 145.755L101.13 144.835L100.002 141.84L103.26 140.613L106.423 149.009L103.165 150.237L102.163 147.577L99.7196 148.498L100.721 151.157Z" fill="#136953"/>
<path d="M88.2192 154.326L83.2292 146.273L86.7947 145.565L88.5149 148.317L89.5192 148.117L90.0464 144.92L93.612 144.213L92.0735 153.561L88.2192 154.326ZM89.7529 149.559L88.8364 149.74L89.5425 150.866L89.7529 149.559Z" fill="#136953"/>
<path d="M74.3561 148.291C74.7227 148.285 75.0589 148.369 75.3648 148.543C75.6707 148.72 75.917 148.958 76.1037 149.258C76.2874 149.558 76.3822 149.891 76.3882 150.258C76.3942 150.628 76.3102 150.964 76.1363 151.267C75.9595 151.573 75.721 151.818 75.4209 152.001C75.1209 152.188 74.7876 152.284 74.421 152.29C74.0513 152.296 73.7151 152.211 73.4122 152.034C73.1063 151.86 72.8615 151.623 72.6778 151.323C72.4912 151.026 72.3949 150.693 72.3889 150.323C72.3829 149.956 72.4684 149.62 72.6452 149.314C72.8191 149.008 73.056 148.762 73.356 148.575C73.6531 148.392 73.9864 148.297 74.3561 148.291Z" fill="#136953"/>
<path d="M59.2515 153.63L57.6739 144.289L61.2424 144.981L61.7955 148.178L62.8007 148.373L64.4967 145.612L68.0652 146.305L63.109 154.379L59.2515 153.63ZM62.4725 149.796L61.5553 149.618L61.7837 150.927L62.4725 149.796Z" fill="#136953"/>
<path d="M52.5693 146.096L46.9108 144.016L48.1029 140.773L57.005 144.045L53.9056 152.478L50.6619 151.286L52.5693 146.096Z" fill="#136953"/>
<path d="M36.4143 144.85C35.1013 144.104 34.6293 142.422 35.3821 141.098L37.3177 137.693C38.0642 136.38 39.7571 135.914 41.07 136.661L44.9643 138.875C45.5986 139.235 46.065 139.839 46.2682 140.544C46.4539 141.253 46.3682 141.999 45.9965 142.627L44.0609 146.032C43.7114 146.673 43.1076 147.139 42.4095 147.331C41.7003 147.517 40.9539 147.431 40.3086 147.064L36.4143 144.85ZM39.9509 140.338L39.0021 142.007C38.7554 142.441 38.909 143 39.3429 143.247L40.1997 143.734C40.6336 143.981 41.1921 143.827 41.4388 143.393L42.3877 141.724C42.6344 141.29 42.4807 140.731 42.0468 140.485L41.1901 139.998C40.7561 139.751 40.1976 139.904 39.9509 140.338Z" fill="#136953"/>
<path d="M27.1104 137.802L24.4133 135.601L30.0864 128.649L32.7835 130.851L30.7603 133.33L32.7831 134.981L34.8063 132.502L37.5034 134.703L31.8303 141.655L29.1332 139.453L30.9298 137.252L28.907 135.601L27.1104 137.802Z" fill="#136953"/>
<path d="M18.096 128.611L22.5369 120.242L24.9445 122.965L23.4349 125.838L24.1131 126.605L27.1402 125.449L29.5478 128.173L20.6986 131.555L18.096 128.611ZM22.9861 127.533L22.3672 126.833L21.7508 128.01L22.9861 127.533Z" fill="#136953"/>
<path d="M16.5899 114.645C16.7751 114.961 16.8672 115.295 16.866 115.647C16.8622 116.001 16.7755 116.332 16.6059 116.642C16.4347 116.95 16.1909 117.196 15.8745 117.381C15.5555 117.568 15.2214 117.66 14.8722 117.657C14.5189 117.654 14.1885 117.566 13.8811 117.395C13.5711 117.225 13.3235 116.982 13.1383 116.666C12.9515 116.347 12.8607 116.012 12.8661 115.661C12.8672 115.309 12.9534 114.98 13.1246 114.672C13.2916 114.364 13.5346 114.116 13.8536 113.93C14.17 113.744 14.5049 113.654 14.8582 113.657C15.21 113.658 15.5409 113.744 15.8509 113.913C16.1568 114.082 16.4031 114.326 16.5899 114.645Z" fill="#136953"/>
<path d="M4.11671 103.206L11.4053 97.1536L12.597 100.588L10.109 102.671L10.4447 103.638L13.6839 103.719L14.8757 107.154L5.405 106.918L4.11671 103.206ZM9.04942 104.068L8.74308 103.185L7.72544 104.04L9.04942 104.068Z" fill="#136953"/>
<path d="M7.28357 93.6443L6.24197 87.7065L9.64583 87.1093L11.2845 96.451L2.43449 98.0037L1.83739 94.5998L7.28357 93.6443Z" fill="#136953"/>
<path d="M0.227974 79.1506C0.203461 77.6404 1.41189 76.3791 2.93483 76.3544L6.85094 76.2908C8.36107 76.2663 9.6226 77.4875 9.64711 78.9977L9.71982 83.4769C9.73166 84.2063 9.44874 84.915 8.94535 85.448C8.42895 85.9684 7.74265 86.274 7.01297 86.2731L3.09686 86.3366C2.36759 86.3613 1.65894 86.0783 1.13872 85.5748C0.618294 85.0584 0.312728 84.3721 0.30068 83.6298L0.227974 79.1506ZM5.91109 79.9032L3.99142 79.9344C3.49231 79.9425 3.08943 80.3586 3.09753 80.8577L3.11353 81.8432C3.12163 82.3423 3.5378 82.7452 4.03692 82.7371L5.95658 82.7059C6.45569 82.6978 6.85857 82.2816 6.85047 81.7825L6.83447 80.7971C6.82637 80.298 6.4102 79.8951 5.91109 79.9032Z" fill="#136953"/>
<path d="M1.63609 67.4626L2.17827 64.0237L11.0412 65.4211L10.499 68.8601L7.33818 68.3617L6.93154 70.9409L10.0923 71.4393L9.55016 74.8783L0.687265 73.4808L1.22945 70.0418L4.03624 70.4844L4.44288 67.9052L1.63609 67.4626Z" fill="#136953"/>
<path d="M5.04784 55.0356L14.5144 54.6712L13.3695 58.1212L10.1277 58.259L9.80515 59.2308L12.3254 61.2675L11.1805 64.7176L3.8102 58.765L5.04784 55.0356ZM8.43642 58.7226L8.73072 57.8358L7.40322 57.8942L8.43642 58.7226Z" fill="#136953"/>
<path d="M15.3773 45.5684C15.1963 45.8873 14.9534 46.1344 14.6483 46.3098C14.3407 46.4836 14.0102 46.5748 13.657 46.5834C13.3052 46.5893 12.9699 46.5018 12.651 46.3209C12.3294 46.1385 12.0823 45.8955 11.9096 45.5919C11.7358 45.2842 11.6459 44.9545 11.64 44.6027C11.6314 44.2495 11.7175 43.9134 11.8985 43.5945C12.0809 43.2729 12.3252 43.0266 12.6313 42.8554C12.9363 42.68 13.2647 42.5894 13.6165 42.5834C13.9671 42.5734 14.3032 42.6595 14.6247 42.842C14.9436 43.0229 15.19 43.2672 15.3638 43.5749C15.5391 43.88 15.6311 44.2091 15.6397 44.5624C15.6472 44.9115 15.5597 45.2469 15.3773 45.5684Z" fill="#136953"/>
</svg>
