<svg width="235" height="247" viewBox="0 0 235 247" fill="none" xmlns="http://www.w3.org/2000/svg">
<path d="M33.0002 44.0141L46.7924 49.3599L43.0132 53.5945L38.282 51.7824L37.2174 52.9752L39.5666 57.4563L35.7874 61.6909L28.9149 48.5916L33.0002 44.0141ZM35.5709 51.3985L36.5423 50.31L34.6038 49.5708L35.5709 51.3985Z" fill="#287561"/>
<path d="M48.3209 41.1813L55.6184 35.2356L59.0264 39.4191L47.5457 48.7732L38.6847 37.8961L42.868 34.4878L48.3209 41.1813Z" fill="#287561"/>
<path d="M62.7163 20.5504C64.7631 19.3791 67.3985 20.0815 68.5796 22.1457L71.6168 27.4536C72.788 29.5004 72.0683 32.1459 70.0215 33.3172L63.9506 36.7915C62.9619 37.3573 61.7796 37.5043 60.6714 37.2174C59.5706 36.9033 58.6357 36.1949 58.0873 35.1962L55.0501 29.8883C54.467 28.9095 54.32 27.7272 54.6168 26.6363C54.931 25.5354 55.6393 24.6005 56.6454 24.0247L62.7163 20.5504ZM65.9685 28.8899L64.4797 26.288C64.0926 25.6115 63.2199 25.3741 62.5435 25.7612L61.2078 26.5256C60.5314 26.9127 60.2939 27.7854 60.681 28.4619L62.1699 31.0638C62.557 31.7403 63.4296 31.9777 64.1061 31.5906L65.4417 30.8263C66.1182 30.4391 66.3556 29.5664 65.9685 28.8899Z" fill="#287561"/>
<path d="M79.4723 13.7121L84.5768 11.843L89.3934 24.9985L84.2889 26.8677L82.5711 22.176L78.7428 23.5778L80.4605 28.2695L75.356 30.1386L70.5395 16.9831L75.644 15.114L77.1693 19.2802L80.9977 17.8784L79.4723 13.7121Z" fill="#287561"/>
<path d="M98.8842 8.98367L106.559 21.6291L100.982 22.682L98.3358 18.3614L96.7647 18.658L95.8955 23.6422L90.3182 24.6951L92.8553 10.1218L98.8842 8.98367ZM96.4207 16.4044L97.8543 16.1337L96.7681 14.366L96.4207 16.4044Z" fill="#287561"/>
<path d="M117.024 16.7199C116.452 16.7106 115.931 16.5626 115.463 16.2758C114.994 15.9843 114.622 15.5997 114.346 15.122C114.074 14.6444 113.943 14.1194 113.952 13.547C113.962 12.9699 114.11 12.4494 114.396 11.9856C114.688 11.5171 115.073 11.1472 115.55 10.8757C116.028 10.5996 116.553 10.4661 117.125 10.4754C117.702 10.4848 118.223 10.6352 118.687 10.9266C119.155 11.2134 119.525 11.5956 119.797 12.0732C120.073 12.5462 120.206 13.0712 120.197 13.6484C120.188 14.2208 120.037 14.7412 119.746 15.2097C119.459 15.6782 119.077 16.0506 118.599 16.3267C118.126 16.5982 117.601 16.7293 117.024 16.7199Z" fill="#287561"/>
<path d="M143.716 10.4759L146.047 25.0836L140.485 23.952L139.667 18.952L138.1 18.6332L135.413 22.9199L129.851 21.7883L137.704 9.25265L143.716 10.4759ZM138.632 16.4166L140.062 16.7074L139.724 14.6604L138.632 16.4166Z" fill="#287561"/>
<path d="M153.915 22.3003L162.72 25.6293L160.812 30.6766L146.96 25.4393L151.921 12.3163L156.968 14.2246L153.915 22.3003Z" fill="#287561"/>
<path d="M178.969 24.4115C181.008 25.5957 181.721 28.2283 180.527 30.2851L177.457 35.5738C176.273 37.6132 173.623 38.3163 171.584 37.1321L165.535 33.6198C164.549 33.0478 163.83 32.0983 163.522 30.9955C163.243 29.8855 163.387 28.7214 163.976 27.7463L167.047 22.4575C167.601 21.4623 168.551 20.7426 169.643 20.4526C170.753 20.1728 171.917 20.3171 172.92 20.8992L178.969 24.4115ZM173.383 31.4058L174.888 28.8132C175.279 28.1392 175.047 27.265 174.373 26.8736L173.043 26.1009C172.369 25.7095 171.494 25.9415 171.103 26.6155L169.598 29.208C169.207 29.8821 169.439 30.7563 170.113 31.1477L171.443 31.9204C172.117 32.3117 172.992 32.0798 173.383 31.4058Z" fill="#287561"/>
<path d="M193.272 35.466L197.452 38.942L188.494 49.7134L184.315 46.2374L187.509 42.3959L184.375 39.7889L181.18 43.6303L177.001 40.1542L185.959 29.3828L190.138 32.8589L187.301 36.2701L190.436 38.8772L193.272 35.466Z" fill="#287561"/>
<path d="M207.123 49.8452L200.066 62.846L196.347 58.5584L198.746 54.0959L197.698 52.8882L192.955 54.6483L189.236 50.3607L203.102 45.2104L207.123 49.8452ZM199.472 51.4556L200.428 52.5577L201.407 50.7288L199.472 51.4556Z" fill="#287561"/>
<path d="M210.423 71.8762C210.138 71.3795 209.999 70.8565 210.006 70.3071C210.017 69.7555 210.158 69.2389 210.427 68.7573C210.699 68.2799 211.083 67.8989 211.58 67.6143C212.081 67.3273 212.604 67.1885 213.149 67.1979C213.7 67.209 214.215 67.3504 214.692 67.6221C215.174 67.8915 215.557 68.2746 215.841 68.7714C216.128 69.2722 216.265 69.7964 216.252 70.344C216.245 70.8933 216.105 71.4067 215.834 71.8841C215.568 72.3633 215.185 72.7463 214.684 73.0333C214.188 73.3179 213.663 73.4547 213.112 73.4436C212.563 73.4366 212.047 73.2984 211.566 73.029C211.091 72.7613 210.71 72.3771 210.423 71.8762Z" fill="#287561"/>
<path d="M228.392 89.3756L216.925 98.7201L215.114 93.341L219.029 90.1248L218.519 88.6096L213.462 88.4355L211.651 83.0565L226.435 83.5609L228.392 89.3756ZM220.703 87.9582L221.169 89.3409L222.77 88.0214L220.703 87.9582Z" fill="#287561"/>
<path d="M223.274 104.134L224.813 113.42L219.49 114.302L217.069 99.6926L230.909 97.3987L231.791 102.722L223.274 104.134Z" fill="#287561"/>
<path d="M234.094 126.482C234.133 128.84 232.246 130.809 229.868 130.848L223.753 130.947C221.395 130.986 219.426 129.079 219.387 126.721L219.274 119.727C219.255 118.588 219.697 117.482 220.483 116.649C221.289 115.837 222.361 115.36 223.5 115.361L229.615 115.262C230.754 115.223 231.86 115.665 232.672 116.451C233.485 117.258 233.962 118.329 233.981 119.488L234.094 126.482ZM225.221 125.307L228.218 125.258C228.997 125.246 229.626 124.596 229.614 123.817L229.589 122.278C229.576 121.499 228.926 120.87 228.147 120.882L225.15 120.931C224.37 120.943 223.741 121.593 223.754 122.373L223.779 123.911C223.792 124.691 224.441 125.32 225.221 125.307Z" fill="#287561"/>
<path d="M231.708 144.743L230.813 150.105L216.995 147.797L217.89 142.435L222.818 143.258L223.49 139.237L218.562 138.414L219.457 133.052L233.275 135.36L232.38 140.722L228.004 139.991L227.332 144.012L231.708 144.743Z" fill="#287561"/>
<path d="M226.239 163.963L211.453 164.395L213.291 159.025L218.354 158.857L218.872 157.344L214.966 154.128L216.804 148.757L228.225 158.158L226.239 163.963ZM221.002 158.157L220.529 159.538L222.603 159.466L221.002 158.157Z" fill="#287561"/>
<path d="M208.374 177.426C208.662 176.931 209.045 176.549 209.523 176.28C210.006 176.013 210.523 175.875 211.075 175.867C211.624 175.862 212.147 176.004 212.642 176.291C213.141 176.58 213.524 176.963 213.789 177.44C214.056 177.923 214.191 178.439 214.196 178.988C214.204 179.54 214.065 180.063 213.778 180.559C213.488 181.058 213.103 181.439 212.623 181.702C212.144 181.971 211.63 182.108 211.08 182.112C210.533 182.123 210.009 181.984 209.51 181.694C209.015 181.407 208.634 181.022 208.367 180.539C208.097 180.06 207.959 179.545 207.95 178.993C207.944 178.448 208.085 177.926 208.374 177.426Z" fill="#287561"/>
<path d="M202.727 202.195L188.886 196.977L192.626 192.708L197.374 194.476L198.427 193.273L196.037 188.814L199.777 184.545L206.77 197.58L202.727 202.195ZM200.088 194.835L199.127 195.932L201.072 196.653L200.088 194.835Z" fill="#287561"/>
<path d="M187.408 205.19L180.163 211.201L176.718 207.048L188.115 197.592L197.073 208.389L192.92 211.835L187.408 205.19Z" fill="#287561"/>
<path d="M173.224 225.941C171.189 227.131 168.547 226.454 167.347 224.4L164.26 219.121C163.07 217.085 163.766 214.433 165.801 213.243L171.84 209.712C172.823 209.137 174.004 208.98 175.115 209.256C176.219 209.56 177.16 210.26 177.718 211.253L180.804 216.533C181.396 217.506 181.554 218.687 181.267 219.781C180.963 220.884 180.264 221.826 179.263 222.411L173.224 225.941ZM169.895 217.632L171.408 220.22C171.801 220.893 172.676 221.123 173.349 220.729L174.678 219.952C175.35 219.559 175.58 218.684 175.186 218.011L173.674 215.423C173.28 214.75 172.405 214.521 171.733 214.914L170.404 215.691C169.731 216.084 169.502 216.959 169.895 217.632Z" fill="#287561"/>
<path d="M156.534 232.938L151.447 234.854L146.509 221.744L151.596 219.827L153.357 224.503L157.172 223.066L155.411 218.39L160.498 216.474L165.436 229.584L160.349 231.501L158.785 227.349L154.97 228.786L156.534 232.938Z" fill="#287561"/>
<path d="M137.163 237.842L129.371 225.268L134.939 224.164L137.624 228.46L139.193 228.149L140.016 223.157L145.583 222.052L143.181 236.648L137.163 237.842ZM139.558 230.399L138.126 230.683L139.229 232.441L139.558 230.399Z" fill="#287561"/>
<path d="M116.99 230.366C117.562 230.357 118.087 230.488 118.565 230.76C119.043 231.036 119.427 231.408 119.719 231.876C120.005 232.345 120.154 232.865 120.163 233.438C120.172 234.015 120.041 234.54 119.77 235.013C119.493 235.491 119.121 235.873 118.653 236.16C118.184 236.451 117.664 236.602 117.091 236.611C116.514 236.62 115.989 236.487 115.516 236.211C115.039 235.939 114.656 235.569 114.37 235.101C114.078 234.637 113.928 234.116 113.918 233.539C113.909 232.967 114.042 232.442 114.319 231.964C114.59 231.487 114.96 231.102 115.428 230.81C115.892 230.524 116.413 230.376 116.99 230.366Z" fill="#287561"/>
<path d="M92.2976 236.755L89.8343 222.169L95.4062 223.251L96.2698 228.243L97.8393 228.547L100.488 224.237L106.059 225.318L98.3207 237.924L92.2976 236.755ZM97.327 230.769L95.8948 230.491L96.2515 232.535L97.327 230.769Z" fill="#287561"/>
<path d="M82.0097 225.033L73.1747 221.785L75.036 216.721L88.9358 221.83L84.0963 234.998L79.0316 233.136L82.0097 225.033Z" fill="#287561"/>
<path d="M56.9268 223.153C54.8768 221.987 54.1398 219.361 55.3151 217.294L58.3375 211.978C59.503 209.927 62.1463 209.2 64.1963 210.366L70.2769 213.823C71.2672 214.386 71.9956 215.329 72.3128 216.429C72.6027 217.537 72.469 218.702 71.8886 219.682L68.8662 224.999C68.3206 225.999 67.3778 226.727 66.2878 227.027C65.1804 227.317 64.0151 227.183 63.0074 226.61L56.9268 223.153ZM62.449 216.108L60.9674 218.714C60.5822 219.392 60.8221 220.264 61.4996 220.649L62.8374 221.41C63.5149 221.795 64.3869 221.555 64.7721 220.878L66.2537 218.272C66.6389 217.594 66.399 216.722 65.7215 216.337L64.3837 215.576C63.7062 215.191 62.8342 215.431 62.449 216.108Z" fill="#287561"/>
<path d="M42.5308 212.238L38.3195 208.801L47.1774 197.947L51.3886 201.384L48.2296 205.255L51.3881 207.833L54.5471 203.962L58.7583 207.399L49.9004 218.253L45.6892 214.816L48.4944 211.379L45.336 208.801L42.5308 212.238Z" fill="#287561"/>
<path d="M28.566 197.993L35.5002 184.926L39.2594 189.178L36.9023 193.663L37.9613 194.861L42.6877 193.056L46.447 197.309L32.6297 202.589L28.566 197.993ZM36.2015 196.31L35.2352 195.217L34.2727 197.055L36.2015 196.31Z" fill="#287561"/>
<path d="M27.0247 177.961C27.3139 178.456 27.4576 178.977 27.4558 179.527C27.4499 180.078 27.3145 180.596 27.0497 181.08C26.7824 181.56 26.4018 181.945 25.9078 182.234C25.4096 182.526 24.888 182.67 24.3427 182.665C23.791 182.659 23.2752 182.523 22.7952 182.256C22.3112 181.991 21.9246 181.611 21.6353 181.117C21.3437 180.619 21.202 180.096 21.2103 179.549C21.2122 178.999 21.3467 178.485 21.6139 178.005C21.8747 177.523 22.2542 177.136 22.7523 176.845C23.2463 176.555 23.7692 176.414 24.3209 176.42C24.8702 176.421 25.3869 176.555 25.8709 176.82C26.3484 177.083 26.733 177.463 27.0247 177.961Z" fill="#287561"/>
<path d="M6.92398 158.643L18.3043 149.192L20.1652 154.554L16.2803 157.807L16.8045 159.317L21.8622 159.445L23.7231 164.807L8.93553 164.439L6.92398 158.643ZM14.6259 159.989L14.1476 158.61L12.5587 159.945L14.6259 159.989Z" fill="#287561"/>
<path d="M11.907 143.86L10.2807 134.588L15.5955 133.656L18.1541 148.242L4.33564 150.666L3.40334 145.352L11.907 143.86Z" fill="#287561"/>
<path d="M0.904664 121.378C0.86639 119.02 2.75324 117.05 5.13115 117.012L11.2458 116.913C13.6037 116.874 15.5735 118.781 15.6117 121.139L15.7253 128.133C15.7438 129.272 15.302 130.378 14.516 131.211C13.7097 132.023 12.6381 132.5 11.4988 132.499L5.38415 132.598C4.24547 132.637 3.13898 132.195 2.32671 131.408C1.51411 130.602 1.037 129.531 1.01819 128.372L0.904664 121.378ZM9.77829 122.553L6.78093 122.602C6.00161 122.614 5.37255 123.264 5.3852 124.043L5.41018 125.582C5.42283 126.361 6.07265 126.99 6.85196 126.978L9.84933 126.929C10.6286 126.916 11.2577 126.267 11.2451 125.487L11.2201 123.949C11.2074 123.169 10.5576 122.54 9.77829 122.553Z" fill="#287561"/>
<path d="M3.09238 103.291L3.93895 97.9216L17.7775 100.104L16.9309 105.473L11.9957 104.695L11.3607 108.722L16.296 109.5L15.4495 114.87L1.61089 112.688L2.45746 107.318L6.84 108.009L7.47492 103.982L3.09238 103.291Z" fill="#287561"/>
<path d="M8.38226 84.0381L23.1635 83.4692L21.3758 88.856L16.3139 89.0711L15.8103 90.5886L19.7454 93.7687L17.9578 99.1556L6.4498 89.8612L8.38226 84.0381ZM13.6732 89.795L14.1327 88.4104L12.06 88.5015L13.6732 89.795Z" fill="#287561"/>
<path d="M25.1331 70.3683C24.8506 70.8662 24.4712 71.252 23.995 71.5258C23.5146 71.7972 22.9986 71.9396 22.447 71.953C21.8978 71.9623 21.3742 71.8257 20.8763 71.5432C20.3743 71.2583 19.9884 70.8789 19.7188 70.405C19.4474 69.9246 19.307 69.4097 19.2977 68.8604C19.2843 68.3088 19.4188 67.7841 19.7013 67.2861C19.9861 66.7841 20.3676 66.3994 20.8456 66.1321C21.3219 65.8583 21.8346 65.7168 22.3839 65.7075C22.9313 65.6918 23.4561 65.8263 23.9581 66.1112C24.456 66.3937 24.8407 66.7752 25.1121 67.2556C25.3859 67.7319 25.5295 68.2458 25.5429 68.7974C25.5545 69.3426 25.418 69.8662 25.1331 70.3683Z" fill="#287561"/>
</svg>
