<svg width="63" height="67" viewBox="0 0 63 67" fill="none" xmlns="http://www.w3.org/2000/svg">
<g clip-path="url(#clip0_766_308)">
<path d="M28.7695 5.76879C29.4446 6.44381 31.1194 6.78496 32.6404 6.95599C34.6 7.17978 36.5896 7.09517 38.5054 6.63303C39.9419 6.28643 41.5458 5.72876 42.4155 4.85906M42.4155 4.85906C41.5458 5.72876 40.9872 7.33352 40.6415 8.76907C40.1803 10.6859 40.0957 12.6754 40.3176 14.6332C40.4896 16.1552 40.8325 17.8318 41.5057 18.505M42.4155 4.85906L20.582 26.6925" stroke="#F7F1CE" stroke-width="4.41103"/>
</g>
<path d="M3.65895 59.9296H0.0463158L5.76632 44.4138H10.8147L16.5347 59.9296H12.76L9.49474 50.9675L8.36 47.4706H8.12842L6.94737 50.9675L3.65895 59.9296ZM13.5011 56.479H3.21895V53.3759H13.5011V56.479ZM24.4075 60.1611C23.4812 60.1611 22.7247 59.9913 22.138 59.6517C21.5668 59.312 21.15 58.8952 20.8875 58.4011H20.1465L20.3317 55.0432H20.7717C20.7717 55.5682 20.8644 55.9927 21.0496 56.3169C21.2503 56.6257 21.5359 56.8496 21.9065 56.9885C22.2924 57.1275 22.7633 57.1969 23.3191 57.1969C23.8131 57.1969 24.2223 57.1352 24.5465 57.0117C24.8861 56.8882 25.1486 56.7029 25.3338 56.4559C25.5345 56.2089 25.6735 55.8924 25.7507 55.5064C25.8279 55.105 25.8665 54.6418 25.8665 54.1169C25.8665 53.592 25.8279 53.1366 25.7507 52.7506C25.6735 52.3492 25.5345 52.025 25.3338 51.778C25.1486 51.5155 24.8861 51.3225 24.5465 51.199C24.2223 51.0755 23.8131 51.0138 23.3191 51.0138C22.7633 51.0138 22.2924 51.091 21.9065 51.2454C21.5359 51.3843 21.2503 51.6082 21.0496 51.9169C20.8644 52.2257 20.7717 52.6425 20.7717 53.1675H20.3317L20.1465 49.9948H20.6328C20.957 49.3618 21.4356 48.8832 22.0686 48.559C22.717 48.2194 23.4735 48.0496 24.338 48.0496C25.99 48.0496 27.2328 48.5976 28.0665 49.6938C28.9156 50.7899 29.3402 52.2643 29.3402 54.1169C29.3402 55.9387 28.9156 57.4054 28.0665 58.5169C27.2173 59.6131 25.9977 60.1611 24.4075 60.1611ZM20.7717 63.8201H17.298V48.2811H20.517V50.759L20.7717 51.0601V63.8201ZM37.9992 60.1611C37.0729 60.1611 36.3164 59.9913 35.7297 59.6517C35.1585 59.312 34.7417 58.8952 34.4792 58.4011H33.7382L33.9234 55.0432H34.3634C34.3634 55.5682 34.4561 55.9927 34.6413 56.3169C34.842 56.6257 35.1276 56.8496 35.4982 56.9885C35.8841 57.1275 36.355 57.1969 36.9108 57.1969C37.4048 57.1969 37.814 57.1352 38.1382 57.0117C38.4778 56.8882 38.7403 56.7029 38.9255 56.4559C39.1262 56.2089 39.2652 55.8924 39.3424 55.5064C39.4196 55.105 39.4582 54.6418 39.4582 54.1169C39.4582 53.592 39.4196 53.1366 39.3424 52.7506C39.2652 52.3492 39.1262 52.025 38.9255 51.778C38.7403 51.5155 38.4778 51.3225 38.1382 51.199C37.814 51.0755 37.4048 51.0138 36.9108 51.0138C36.355 51.0138 35.8841 51.091 35.4982 51.2454C35.1276 51.3843 34.842 51.6082 34.6413 51.9169C34.4561 52.2257 34.3634 52.6425 34.3634 53.1675H33.9234L33.7382 49.9948H34.2245C34.5487 49.3618 35.0273 48.8832 35.6603 48.559C36.3087 48.2194 37.0652 48.0496 37.9297 48.0496C39.5817 48.0496 40.8245 48.5976 41.6582 49.6938C42.5073 50.7899 42.9318 52.2643 42.9318 54.1169C42.9318 55.9387 42.5073 57.4054 41.6582 58.5169C40.809 59.6131 39.5894 60.1611 37.9992 60.1611ZM34.3634 63.8201H30.8897V48.2811H34.1087V50.759L34.3634 51.0601V63.8201ZM48.163 59.9296H44.7125V44.4138H48.163V59.9296ZM52.5038 63.8664C52.1179 63.8664 51.7242 63.8355 51.3228 63.7738C50.9214 63.7275 50.6049 63.6734 50.3733 63.6117V60.7401H52.3186C52.7663 60.7401 53.0905 60.6861 53.2912 60.578C53.5073 60.4854 53.7003 60.2538 53.8702 59.8832L54.4028 58.7485L54.1712 59.6748L49.1923 48.2811H53.0596L54.9586 53.1443L55.7923 55.3906H56.047L56.7649 53.1443L58.4091 48.2811H62.2765L57.0891 60.7401C56.7649 61.5275 56.3866 62.1527 55.9544 62.6159C55.5375 63.079 55.0512 63.4033 54.4954 63.5885C53.9396 63.7738 53.2758 63.8664 52.5038 63.8664Z" fill="#F7F1CE"/>
<defs>
<clipPath id="clip0_766_308">
<rect width="30.8772" height="30.8772" fill="white" transform="translate(16.0615 0.33313)"/>
</clipPath>
</defs>
</svg>
