<svg width="18" height="40" viewBox="0 0 18 40" fill="none" xmlns="http://www.w3.org/2000/svg">
<g clip-path="url(#clip0_370_1874)">
<path d="M9.15534 33.3867L1 28.6943L9.15534 40.0001L17.3107 28.6943L9.15534 33.3867Z" fill="#022D22"/>
<path d="M17.3039 26.1209C17.3039 26.1088 17.3039 26.0968 17.3039 26.0847L9.15673 19.6616L1.0082 26.078C1.0082 26.1142 1.00684 26.149 1.00684 26.1852L9.22885 22.5403L17.3039 26.1209Z" fill="#022D22"/>
<path d="M1.11562 23.0092C1.11154 23.0762 1.10746 23.1432 1.10474 23.2102L9.15803 13.9539L17.2086 23.2303C17.2059 23.1727 17.2018 23.1151 17.1991 23.0561L9.15803 10.7002L1.11562 23.0092Z" fill="#022D22"/>
<path d="M1.03948 24.7264C1.03812 24.7692 1.03676 24.8121 1.0354 24.855L9.15536 18.46L17.274 24.8617C17.274 24.8242 17.2712 24.7853 17.2699 24.7478L9.15536 15.3965L1.03948 24.7264Z" fill="#022D22"/>
<path d="M9.22761 23.5693L1.06274 27.1901L9.1555 31.916L17.3108 27.1526L9.22761 23.5693Z" fill="#022D22"/>
<path d="M9.15803 8.96554L17.0589 21.1071C15.6902 5.17331 9.15531 0 9.15531 0C9.15531 0 2.63267 5.16393 1.25439 21.0643L9.15803 8.96554Z" fill="#022D22"/>
</g>
<defs>
<clipPath id="clip0_370_1874">
<rect width="16.3107" height="40" fill="white" transform="translate(1)"/>
</clipPath>
</defs>
</svg>
