<svg width="171" height="20" viewBox="0 0 171 20" fill="none" xmlns="http://www.w3.org/2000/svg">
<path d="M20.4585 7.07476H6.89947V8.57654H15.0238V11.4262H6.89947V12.928H20.4585V19.2551H0.652344V0.741455H20.4585V7.06861V7.07476Z" fill="#022D22"/>
<path d="M22.3291 0.747314H40.5904V7.09293H34.5833V19.2549H28.3362V7.09293H22.3291V0.747314Z" fill="#022D22"/>
<path d="M54.8998 0.747314H62.0086V19.261H54.8998V12.6569H49.5697V19.261H42.4609V0.747314H49.5697V6.6067H54.8998V0.747314Z" fill="#022D22"/>
<path d="M81.9206 0.747192H89.0294V19.2609H81.9206V12.6568H76.5905V19.2609H69.4817V0.747192H76.5905V6.60658H81.9206V0.747192Z" fill="#022D22"/>
<path d="M105.414 0.747314L112.208 19.261H104.786L102.435 12.9277H100.342L98.0155 19.261H90.5928L97.3877 0.747314H105.407H105.414ZM100.447 9.88107H102.355L101.388 7.28989L100.447 9.88107Z" fill="#022D22"/>
<path d="M129.652 0.747192H136.274L129.652 19.2609H123.331L121.97 15.4264L120.635 19.2609H114.314L107.71 0.747192H114.314L117.477 10.0841L119.644 0.747192H124.322L126.488 10.0841L129.652 0.747192Z" fill="#022D22"/>
<path d="M146.515 0.747314L153.31 19.261H145.887L143.536 12.9277H141.444L139.117 19.261H131.694L138.489 0.747314H146.509H146.515ZM141.554 9.88107H143.462L142.496 7.28989L141.554 9.88107Z" fill="#022D22"/>
<path d="M161.82 19.2609H154.712V0.747192H161.82V19.2609Z" fill="#022D22"/>
<path d="M170.8 19.261H163.691V0.747314H170.8V19.261Z" fill="#022D22"/>
</svg>
