<svg width="24" height="56" viewBox="0 0 24 56" fill="none" xmlns="http://www.w3.org/2000/svg">
<g clip-path="url(#clip0_373_21777)">
<path d="M12.4176 46.7415L1.00012 40.1721L12.4176 56.0001L23.8351 40.1721L12.4176 46.7415Z" fill="#F7F1CE"/>
<path d="M23.8255 36.5691C23.8255 36.5522 23.8255 36.5353 23.8255 36.5185L12.4195 27.5261L1.01155 36.5091C1.01155 36.5597 1.00964 36.6085 1.00964 36.6591L12.5205 31.5563L23.8255 36.5691Z" fill="#F7F1CE"/>
<path d="M1.16197 32.2129C1.15625 32.3066 1.15054 32.4004 1.14673 32.4942L12.4213 19.5355L23.6921 32.5223C23.6883 32.4417 23.6826 32.361 23.6788 32.2785L12.4213 14.9802L1.16197 32.2129Z" fill="#F7F1CE"/>
<path d="M1.05527 34.6168C1.05337 34.6768 1.05147 34.7368 1.04956 34.7968L12.4175 25.8439L23.7836 34.8062C23.7836 34.7537 23.7797 34.6993 23.7778 34.6468L12.4175 21.5549L1.05527 34.6168Z" fill="#F7F1CE"/>
<path d="M12.5186 32.9971L1.08777 38.0662L12.4176 44.6824L23.8351 38.0136L12.5186 32.9971Z" fill="#F7F1CE"/>
<path d="M12.4213 12.5518L23.4826 29.55C21.5663 7.24263 12.4175 0 12.4175 0C12.4175 0 3.28578 7.2295 1.3562 29.49L12.4213 12.5518Z" fill="#F7F1CE"/>
</g>
<defs>
<clipPath id="clip0_373_21777">
<rect width="24" height="56" fill="white"/>
</clipPath>
</defs>
</svg>
