<svg width="163" height="260" viewBox="0 0 163 260" fill="none" xmlns="http://www.w3.org/2000/svg">
<path d="M216.434 111.823C212.662 110.871 208.447 112.052 205.704 114.822C203.719 111.545 201.748 108.266 199.777 104.987C201.399 107.672 201.636 113.005 202.281 116.096C199.682 111.456 194.364 111.345 189.495 111.912C188.961 111.977 188.339 112.116 188.128 112.634C186.189 107.499 184.116 104.704 179.362 102.498C181.151 105.722 182.849 108.918 184.03 112.439C183.225 110.075 173.988 109.242 171.977 109.16C169.792 109.065 167.577 109.207 165.421 109.602C164.975 109.681 163.507 110.231 162.11 110.696C162.201 113.171 162.389 115.701 162.671 118.361C162.681 118.417 162.691 118.474 162.701 118.53C162.751 119.06 162.816 119.588 162.883 120.13C163.243 123.314 163.684 126.63 164.203 130.064C164.311 130.671 164.39 131.284 164.499 131.905C164.996 134.964 165.581 138.124 166.254 141.37C166.424 142.17 166.599 142.999 166.771 143.813C166.921 144.5 167.074 145.202 167.24 145.901C168.316 150.62 169.572 155.54 170.969 160.698C171.207 161.559 171.448 162.434 171.691 163.324C173.007 168.102 174.433 173.095 175.946 178.334C176.242 179.36 176.54 180.4 176.841 181.454C177.035 182.148 177.245 182.853 177.456 183.559C178.891 188.521 180.521 193.608 182.28 198.862C182.707 200.142 183.147 201.419 183.59 202.71C185.502 208.258 187.556 214.042 189.718 220.114C190.351 220.527 190.981 221.086 191.558 221.756C193.273 223.74 194.678 226.581 195.967 229.572C196.593 231.006 197.235 232.772 197.022 234.252C196.797 235.908 195.668 236.267 194.677 236.428C193.34 236.663 191.984 236.873 190.623 237.055C192.25 238.953 193.819 241.094 195.36 243.313C196.746 245.312 198.264 247.812 198.405 250.161C198.564 252.77 196.944 253.682 195.492 254.244C189.749 256.451 183.978 258.663 177.774 259.393C173.636 259.875 160.579 258.958 160.638 246.26C160.658 242.63 161.512 240.469 162.848 239.33C160.003 233.787 157.265 228.356 154.638 223.066C153.923 221.619 153.211 220.186 152.515 218.764C147.135 207.798 142.216 197.333 137.745 187.371C137.227 186.224 136.709 185.078 136.205 183.928C135.4 182.133 134.626 180.347 133.856 178.589C130.983 171.987 128.177 165.767 125.539 159.765C125.131 158.832 124.722 157.899 124.316 156.98C121.318 150.08 118.54 143.447 116.144 136.863C115.695 135.617 115.248 134.385 114.815 133.15C114.507 132.301 114.211 131.436 113.92 130.598C111.951 124.973 110.182 119.503 108.56 114.21C108.523 114.245 108.489 114.295 108.466 114.328C108.399 113.947 108.331 113.566 108.264 113.184C108.03 112.424 107.793 111.65 107.572 110.888C107.328 110.072 107.083 109.256 106.853 108.437C106.494 107.218 106.166 106.009 105.824 104.802C105.558 109.481 104.593 114.108 101.248 117.13C99.5264 118.687 97.3588 119.506 95.535 120.891C94.4975 121.686 91.4627 123.94 91.0556 125.133C93.6602 117.507 95.8164 109.13 100.077 102.261C101.173 100.495 102.43 98.8309 103.827 97.3028C103.371 95.5333 102.948 93.7871 102.53 92.0691C102.333 91.2737 102.149 90.4758 101.982 89.6896C101.629 88.1786 101.309 86.691 100.992 85.2175C99.7987 85.2094 98.5948 85.3052 97.4324 85.5539C98.565 85.1357 99.6712 84.6493 100.775 84.1488C100.191 81.324 99.6467 78.565 99.1709 75.8667C99.0488 75.1745 98.9407 74.4798 98.8629 73.7943C91.9881 75.2833 84.997 78.9632 79.2773 82.3606C71.3631 87.0771 64.1469 93.3894 59.5034 101.506C56.0248 107.596 54.203 114.53 54.1387 121.577C54.1499 120.745 52.2715 118.644 51.841 117.831C51.0138 116.316 50.2767 114.742 49.646 113.12C48.4235 110.014 47.5645 106.772 47.0841 103.477C46.2972 98.0371 45.7223 92.8218 48.4455 87.9864C51.39 82.7769 55.5853 78.3082 60.5291 74.9894C61.9276 74.0436 63.3904 73.2176 64.8934 72.4573C63.9788 69.2247 62.8438 66.0455 61.4984 62.9762C59.6183 65.915 58.2283 69.1899 57.391 72.5858C50.935 70.0972 43.4421 72.6419 38.2102 77.1769C32.9782 81.7118 29.5435 87.9691 26.2118 94.0771C23.5038 87.2715 20.7795 80.4543 18.0716 73.6487C19.9136 82.7919 21.5191 93.2003 16.0258 100.651C13.8711 103.58 10.7955 105.521 8.44274 108.222C7.10452 109.755 3.14353 114.167 2.88737 116.135C4.54404 103.622 5.28861 90.0901 9.68589 78.2154C13.68 67.475 21.1148 57.7594 31.3266 52.7979C41.5269 47.853 53.5781 48.0295 64.547 50.9459C75.516 53.8623 85.64 59.3166 95.6565 64.7315C96.752 65.3249 97.8605 65.8286 98.9246 66.3256C94.9679 62.5369 90.7586 59.0258 86.332 55.8298C83.2542 53.6049 80.7402 52.0526 77.1678 51.0948C76.2788 50.8583 68.3644 48.9765 68.1677 48.2683C66.8317 43.2163 65.5122 38.176 64.1762 33.1241C60.2156 38.7604 58.5483 43.3951 52.4304 45.7557C45.2494 48.5222 35.0342 47.5995 27.2651 49.7997C27.7426 45.6661 28.2315 41.516 28.7089 37.3824C24.5494 41.7282 21.204 46.8627 18.8848 52.4426C12.8941 50.5566 6.25029 50.9124 0.5154 53.4094C9.81213 47.575 17.6493 39.653 26.4748 33.1006C35.2838 26.5366 45.7004 21.1894 56.6508 21.7202C68.9185 22.3101 79.94 30.33 87.2517 40.3586C90.8117 45.2369 93.5819 50.604 96.5257 55.8968C97.9774 58.5104 99.2826 61.9218 100.733 65.1766C100.75 63.8917 100.839 62.5214 100.804 61.1001C100.546 51.4153 100.288 41.6432 102.253 32.1784C104.217 22.7137 108.631 13.4579 116.177 7.55343C123.722 1.63484 133.793 -0.374171 143.307 0.643002C153.83 1.75913 164.211 6.30867 174.169 9.76735C172.609 9.22673 167.822 10.5807 166.161 11.0192C163.253 11.7941 160.651 13.4037 157.645 13.9483C150.017 15.3224 142.849 10.1773 136.721 5.31482C140.785 9.9585 144.833 14.5905 148.898 19.2342C143.078 19.4592 137.122 19.7229 131.752 22.0099C126.393 24.2802 121.673 29.0308 121.086 34.9025C118.229 34.2556 115.271 34.0926 112.353 34.4032C114.826 37.4339 117.57 40.2127 120.579 42.6974C114.563 47.0209 109.868 53.1363 107.034 60.0306C112.735 53.4319 120.685 46.8009 122.478 45.7274C128.892 41.8725 135.942 38.8523 143.363 38.0973C160.46 36.3499 176.329 46.5302 190.627 56.2738C184.562 56.0031 178.465 59.1321 175.131 64.25C171.095 59.8489 167.073 55.4454 163.037 51.0443C166.345 54.6561 168.347 62.7515 170.284 67.3041C164.882 61.0173 156.713 62.5013 149.428 64.922C148.629 65.194 147.713 65.6177 147.557 66.4463C143.032 59.1891 139.001 55.5448 131.042 53.6561C134.773 58.0382 138.343 62.4048 141.24 67.4292C139.295 64.0577 124.907 65.6917 121.791 66.1829C118.41 66.7207 115.069 67.6448 111.893 68.9332C111.235 69.1948 109.166 70.4919 107.172 71.6446C107.813 74.2992 108.516 76.9864 109.318 79.7437C111.611 78.4945 113.907 77.2595 116.255 76.1609C122.61 73.1904 129.806 71.164 136.619 72.9052C144.243 74.8527 150.162 81.2961 153.488 88.517C155.114 92.0322 156.171 95.7495 157.368 99.4422C157.95 101.277 158.34 103.568 158.847 105.794C159.021 104.992 159.247 104.151 159.403 103.249C160.453 97.1502 161.521 90.9897 163.939 85.3195C166.358 79.6494 170.288 74.4117 175.767 71.6832C181.245 68.9546 187.815 68.9907 193.656 70.8448C200.121 72.8948 206.071 77.0749 211.88 80.537C210.967 79.9989 207.789 80.2241 206.697 80.3002C204.777 80.4057 202.945 81.0929 200.984 81.0454C196.021 80.9155 192.174 76.7724 188.928 72.9456C190.897 76.3712 192.865 79.7968 194.822 83.2389C191.14 82.6355 187.371 82.0327 183.723 82.7634C180.075 83.494 176.516 85.8695 175.414 89.4724C173.697 88.6971 171.861 88.2198 169.991 88.0397C171.157 90.2521 172.547 92.3522 174.109 94.2908C169.798 96.2307 166.072 99.4513 163.439 103.412C167.837 100.014 173.66 96.8753 174.918 96.435C179.419 94.8402 184.23 93.8609 188.983 94.3483C199.935 95.4613 208.626 103.863 216.376 111.819L216.434 111.823ZM156.63 110.977C152.13 111.028 147.278 112.423 143.261 113.83C137.701 115.772 132.388 118.792 128.456 123.287C127.774 124.062 127.144 124.887 126.563 125.747C129.455 132.127 132.614 138.722 136.034 145.577C136.658 146.836 137.296 148.093 137.925 149.38C141.4 156.298 145.113 163.509 149.03 171.063C149.794 172.545 150.574 174.039 151.359 175.561C151.88 176.562 152.404 177.576 152.928 178.591C156.647 185.757 160.689 193.041 164.998 200.54C166.05 202.351 167.106 204.189 168.177 206.025C170.111 209.34 172.1 212.718 174.14 216.146C173.729 214.63 173.324 213.143 172.918 211.656C172.655 210.654 172.381 209.668 172.123 208.694C170.115 201.138 168.345 193.949 166.784 187.131C166.603 186.347 166.421 185.563 166.254 184.777C165.979 183.544 165.709 182.339 165.453 181.131C164.472 176.628 163.492 172.373 162.595 168.263C162.453 167.618 162.313 166.987 162.173 166.357C161.155 161.642 160.244 157.127 159.564 152.702C159.431 151.866 159.312 151.028 159.195 150.203C159.11 149.636 159.035 149.052 158.95 148.484C158.315 143.906 157.801 139.525 157.433 135.322C157.38 134.777 157.341 134.231 157.288 133.687C156.97 129.926 156.751 126.324 156.632 122.878C156.612 122.357 156.592 121.836 156.586 121.313C156.493 118.183 156.479 115.17 156.546 112.289C156.552 111.836 156.575 111.395 156.611 110.952L156.63 110.977ZM134.528 99.4055C132.985 101.003 131.693 102.877 130.742 104.894C127.002 102.495 121.987 103.132 118.132 105.297C118.104 105.302 118.082 105.335 118.056 105.354C119.285 108.575 120.598 111.869 121.993 115.221C122.325 114.579 122.721 113.971 123.207 113.39C125.699 110.503 128.906 108.248 132.427 106.797C133.418 106.389 134.435 106.049 135.479 105.778C135.317 103.636 134.999 101.507 134.542 99.4031L134.528 99.4055ZM114.69 86.7497C115.507 84.2168 116.324 81.6838 117.155 79.1484C114.824 80.7538 112.726 82.697 110.927 84.8785C111.031 85.2243 111.147 85.5536 111.251 85.8994C111.753 87.4423 112.262 89.0276 112.799 90.608C114.113 89.9976 115.461 89.4977 116.879 89.1458C123.901 87.3541 131.434 89.0265 137.964 92.2595C144.48 95.495 150.152 100.219 155.759 104.897C156.368 105.416 157.008 105.871 157.618 106.317C155.616 103.436 153.41 100.694 151.033 98.1267C149.381 96.3349 148.003 95.034 145.878 93.9811C145.343 93.7114 140.621 91.5288 140.58 91.0552C140.381 87.7256 140.179 84.3819 139.966 81.0547C136.78 84.0782 135.143 86.7702 131.013 87.4547C126.159 88.267 119.865 86.376 114.717 86.7448L114.69 86.7497Z" fill="#E2DCB9"/>
</svg>
