<svg width="105" height="14" viewBox="0 0 105 14" fill="none" xmlns="http://www.w3.org/2000/svg">
<path d="M0.960693 10.9321L2.58247 10.173C3.01955 11.3117 3.80743 11.881 4.94613 11.881C5.49823 11.881 5.9353 11.7372 6.25736 11.4497C6.59092 11.1621 6.75769 10.7653 6.75769 10.2592C6.75769 9.79917 6.56791 9.40235 6.18835 9.06879C5.82028 8.72373 5.36595 8.43043 4.82536 8.18889C4.29627 7.94735 3.76718 7.68856 3.23809 7.41251C2.70899 7.13646 2.25467 6.7454 1.8751 6.23931C1.50704 5.72172 1.32301 5.10637 1.32301 4.39325C1.32301 3.43859 1.65081 2.65645 2.30643 2.04685C2.97354 1.43725 3.85344 1.13244 4.94613 1.13244C5.48672 1.13244 5.97556 1.21871 6.41263 1.39124C6.86121 1.56377 7.22352 1.78806 7.49957 2.0641C7.77562 2.34015 7.98841 2.60469 8.13793 2.85774C8.29896 3.09928 8.42548 3.34657 8.5175 3.59961L6.93022 4.30698C6.48165 3.36382 5.80878 2.89224 4.91163 2.89224C4.39404 2.89224 3.98572 3.03602 3.68666 3.32357C3.38761 3.59961 3.23809 3.95042 3.23809 4.376C3.23809 4.74406 3.37036 5.07761 3.6349 5.37667C3.91095 5.66421 4.25026 5.9 4.65283 6.08404C5.0554 6.26807 5.49248 6.48085 5.96406 6.72239C6.44714 6.96393 6.88997 7.21698 7.29254 7.48152C7.69511 7.73457 8.02866 8.09113 8.29321 8.5512C8.56926 8.99978 8.70728 9.52312 8.70728 10.1212C8.70728 11.1564 8.35647 12.0075 7.65485 12.6747C6.96473 13.3303 6.03307 13.6581 4.85987 13.6581C4.27327 13.6581 3.74417 13.5718 3.27259 13.3993C2.80101 13.2152 2.40994 12.9795 2.09939 12.6919C1.80034 12.3929 1.5588 12.1053 1.37476 11.8293C1.20224 11.5417 1.06421 11.2427 0.960693 10.9321Z" fill="#022D22"/>
<path d="M14.7919 4.20347C15.8731 4.20347 16.6667 4.56578 17.1728 5.2904C17.6789 6.01502 17.932 6.92368 17.932 8.01636V13.4338H16.0686V7.86109C16.0686 7.25148 15.8961 6.77415 15.5511 6.42909C15.2175 6.07253 14.7862 5.89425 14.2571 5.89425C13.6705 5.89425 13.1931 6.08979 12.8251 6.48085C12.457 6.87192 12.273 7.37801 12.273 7.99911V13.4338H10.3924V0.959915H12.273V5.60095C12.4915 5.20989 12.8251 4.88208 13.2737 4.61754C13.7222 4.34149 14.2283 4.20347 14.7919 4.20347Z" fill="#022D22"/>
<path d="M20.7216 12.3468C19.8589 11.4727 19.4276 10.3455 19.4276 8.96527C19.4276 7.58504 19.8474 6.44635 20.687 5.54919C21.5267 4.65204 22.5676 4.20347 23.8098 4.20347C25.1556 4.20347 26.2138 4.63479 26.9844 5.49744C27.755 6.34858 28.1403 7.48727 28.1403 8.91352C28.1403 9.12055 28.1346 9.27583 28.1231 9.37935H21.3427C21.3542 10.173 21.6187 10.8113 22.1363 11.2944C22.6654 11.7775 23.3325 12.019 24.1376 12.019C25.2188 12.019 26.047 11.5992 26.6221 10.7596L27.8643 11.6912C27.5767 12.1858 27.1167 12.6401 26.484 13.0542C25.8514 13.4568 25.0578 13.6581 24.1031 13.6581C22.7114 13.6581 21.5842 13.221 20.7216 12.3468ZM21.4117 8.08538H26.2253C26.1907 7.36075 25.9492 6.79716 25.5006 6.39459C25.052 5.98052 24.4942 5.77348 23.8271 5.77348C23.1715 5.77348 22.6194 5.98627 22.1708 6.41184C21.7222 6.82591 21.4692 7.38376 21.4117 8.08538Z" fill="#022D22"/>
<path d="M29.6504 13.4338V0.959915H31.5309V13.4338H29.6504Z" fill="#022D22"/>
<path d="M33.6435 13.4338V0.959915H35.5241V13.4338H33.6435Z" fill="#022D22"/>
<path d="M42.1737 13.4338V1.35673H45.6761C46.8148 1.35673 47.7407 1.69029 48.4538 2.3574C49.1785 3.02452 49.5408 3.89866 49.5408 4.97985C49.5408 6.04953 49.1727 6.92943 48.4366 7.61955C47.712 8.30966 46.7975 8.65472 45.6933 8.65472H44.0888V13.4338H42.1737ZM44.0888 6.98119H45.4518C46.0844 6.98119 46.5963 6.79716 46.9873 6.42909C47.3784 6.06103 47.5739 5.57795 47.5739 4.97985C47.5739 4.39325 47.3784 3.92167 46.9873 3.56511C46.5963 3.20855 46.0902 3.03027 45.4691 3.03027H44.0888V6.98119Z" fill="#022D22"/>
<path d="M55.448 4.20347V6.10129C53.7572 6.10129 52.9118 7.25148 52.9118 9.55187V13.4338H51.0313V4.42775H52.8773V5.84249C53.0614 5.37091 53.3834 4.97985 53.8435 4.6693C54.3036 4.35874 54.8384 4.20347 55.448 4.20347Z" fill="#022D22"/>
<path d="M58.8149 6.7569C58.2858 7.332 58.0213 8.06237 58.0213 8.94802C58.0213 9.83367 58.2858 10.564 58.8149 11.1391C59.3555 11.7027 60.0456 11.9845 60.8853 11.9845C61.7249 11.9845 62.415 11.697 62.9556 11.1219C63.5077 10.5468 63.7838 9.81642 63.7838 8.93077C63.7838 8.04512 63.5077 7.31474 62.9556 6.73965C62.415 6.16455 61.7249 5.877 60.8853 5.877C60.0456 5.877 59.3555 6.1703 58.8149 6.7569ZM56.1235 8.94802C56.1235 7.59079 56.5778 6.4636 57.4864 5.56645C58.3951 4.65779 59.528 4.20347 60.8853 4.20347C62.2655 4.20347 63.4042 4.65204 64.3014 5.54919C65.21 6.44635 65.6643 7.57354 65.6643 8.93077C65.6643 10.288 65.21 11.4152 64.3014 12.3123C63.3927 13.2095 62.254 13.6581 60.8853 13.6581C59.505 13.6581 58.3663 13.2152 57.4692 12.3296C56.572 11.4439 56.1235 10.3168 56.1235 8.94802Z" fill="#022D22"/>
<path d="M67.3781 4.42775V2.54718H69.2414V4.42775H71.0702V5.98052H69.2414V10.173C69.2414 10.8401 69.3621 11.2944 69.6037 11.536C69.8452 11.766 70.2363 11.881 70.7769 11.881L71.1392 11.8638V13.4855C70.9207 13.5316 70.6159 13.5546 70.2248 13.5546C69.1896 13.5546 68.4535 13.2382 68.0164 12.6056C67.5908 11.973 67.3781 11.0644 67.3781 9.87968V5.98052H66.3774V4.42775H67.3781Z" fill="#022D22"/>
<path d="M74.7874 6.7569C74.2583 7.332 73.9938 8.06237 73.9938 8.94802C73.9938 9.83367 74.2583 10.564 74.7874 11.1391C75.328 11.7027 76.0181 11.9845 76.8578 11.9845C77.6974 11.9845 78.3875 11.697 78.9281 11.1219C79.4802 10.5468 79.7563 9.81642 79.7563 8.93077C79.7563 8.04512 79.4802 7.31474 78.9281 6.73965C78.3875 6.16455 77.6974 5.877 76.8578 5.877C76.0181 5.877 75.328 6.1703 74.7874 6.7569ZM72.0959 8.94802C72.0959 7.59079 72.5503 6.4636 73.4589 5.56645C74.3676 4.65779 75.5005 4.20347 76.8578 4.20347C78.238 4.20347 79.3767 4.65204 80.2738 5.54919C81.1825 6.44635 81.6368 7.57354 81.6368 8.93077C81.6368 10.288 81.1825 11.4152 80.2738 12.3123C79.3652 13.2095 78.2265 13.6581 76.8578 13.6581C75.4775 13.6581 74.3388 13.2152 73.4417 12.3296C72.5445 11.4439 72.0959 10.3168 72.0959 8.94802Z" fill="#022D22"/>
<path d="M90.338 5.30765L89.7686 6.89492C89.09 6.23931 88.2964 5.91151 87.3877 5.91151C86.5481 5.91151 85.8637 6.19906 85.3346 6.77415C84.8055 7.34925 84.541 8.06812 84.541 8.93077C84.541 9.79342 84.817 10.518 85.3691 11.1046C85.9327 11.6912 86.6286 11.9845 87.4567 11.9845C88.2849 11.9845 89.067 11.651 89.8032 10.9839L90.338 12.5366C89.4983 13.2843 88.5034 13.6581 87.3532 13.6581C85.9845 13.6581 84.8573 13.2095 83.9716 12.3123C83.086 11.4152 82.6432 10.288 82.6432 8.93077C82.6432 7.58504 83.0917 6.4636 83.9889 5.56645C84.8861 4.65779 86.0017 4.20347 87.336 4.20347C88.4862 4.20347 89.4868 4.57153 90.338 5.30765Z" fill="#022D22"/>
<path d="M93.978 6.7569C93.4489 7.332 93.1843 8.06237 93.1843 8.94802C93.1843 9.83367 93.4489 10.564 93.978 11.1391C94.5186 11.7027 95.2087 11.9845 96.0483 11.9845C96.888 11.9845 97.5781 11.697 98.1187 11.1219C98.6708 10.5468 98.9468 9.81642 98.9468 8.93077C98.9468 8.04512 98.6708 7.31474 98.1187 6.73965C97.5781 6.16455 96.888 5.877 96.0483 5.877C95.2087 5.877 94.5186 6.1703 93.978 6.7569ZM91.2865 8.94802C91.2865 7.59079 91.7408 6.4636 92.6495 5.56645C93.5581 4.65779 94.6911 4.20347 96.0483 4.20347C97.4286 4.20347 98.5673 4.65204 99.4644 5.54919C100.373 6.44635 100.827 7.57354 100.827 8.93077C100.827 10.288 100.373 11.4152 99.4644 12.3123C98.5558 13.2095 97.4171 13.6581 96.0483 13.6581C94.6681 13.6581 93.5294 13.2152 92.6322 12.3296C91.7351 11.4439 91.2865 10.3168 91.2865 8.94802Z" fill="#022D22"/>
<path d="M102.386 13.4338V0.959915H104.266V13.4338H102.386Z" fill="#022D22"/>
</svg>
