<svg xmlns="http://www.w3.org/2000/svg" width="162" height="21" viewBox="0 0 162 21" fill="none">
<path d="M0.44751 16.4203L2.97976 15.235C3.66221 17.013 4.89242 17.902 6.67039 17.902C7.53243 17.902 8.21488 17.6775 8.71774 17.2285C9.23856 16.7795 9.49897 16.1599 9.49897 15.3697C9.49897 14.6514 9.20264 14.0318 8.60999 13.5109C8.03529 12.9722 7.3259 12.5142 6.48181 12.1371C5.65569 11.7599 4.82956 11.3558 4.00344 10.9248C3.17731 10.4938 2.46792 9.88319 1.87527 9.09298C1.30057 8.28482 1.01323 7.324 1.01323 6.21053C1.01323 4.71992 1.52506 3.4987 2.54874 2.54686C3.59038 1.59502 4.96426 1.1191 6.67039 1.1191C7.51447 1.1191 8.27774 1.2538 8.96019 1.52319C9.6606 1.79257 10.2263 2.14278 10.6573 2.5738C11.0884 3.00482 11.4206 3.41788 11.6541 3.81298C11.9055 4.19013 12.1031 4.57625 12.2467 4.97135L9.76836 6.07584C9.06795 4.60319 8.01733 3.86686 6.61651 3.86686C5.80834 3.86686 5.17079 4.09135 4.70385 4.54033C4.23691 4.97135 4.00344 5.51911 4.00344 6.1836C4.00344 6.75829 4.20997 7.27911 4.62303 7.74605C5.05406 8.19503 5.58385 8.56319 6.21243 8.85054C6.841 9.13788 7.52345 9.47013 8.25978 9.84727C9.01407 10.2244 9.7055 10.6195 10.3341 11.0326C10.9626 11.4277 11.4835 11.9844 11.8965 12.7028C12.3275 13.4032 12.5431 14.2203 12.5431 15.1542C12.5431 16.7705 11.9953 18.0995 10.8998 19.1412C9.82223 20.1648 8.36754 20.6767 6.53569 20.6767C5.61977 20.6767 4.79365 20.542 4.05732 20.2726C3.32099 19.9852 2.71037 19.6171 2.22547 19.1681C1.75853 18.7012 1.38139 18.2522 1.09404 17.8212C0.824654 17.3722 0.609143 16.9052 0.44751 16.4203Z" fill="#022D22"/>
<path d="M22.0436 5.91421C23.7318 5.91421 24.971 6.47992 25.7612 7.61135C26.5514 8.74278 26.9465 10.1616 26.9465 11.8677V20.3265H24.0371V11.6252C24.0371 10.6734 23.7677 9.92809 23.2289 9.38931C22.7081 8.83258 22.0347 8.55421 21.2085 8.55421C20.2926 8.55421 19.5473 8.85952 18.9726 9.47013C18.3979 10.0807 18.1106 10.8709 18.1106 11.8407V20.3265H15.1742V0.849716H18.1106V8.09625C18.4518 7.48564 18.9726 6.9738 19.673 6.56074C20.3734 6.12972 21.1636 5.91421 22.0436 5.91421Z" fill="#022D22"/>
<path d="M31.3022 18.6293C29.9552 17.2644 29.2818 15.5044 29.2818 13.3493C29.2818 11.1942 29.9373 9.41625 31.2483 8.01543C32.5593 6.61462 34.1846 5.91421 36.1242 5.91421C38.2255 5.91421 39.8777 6.58768 41.081 7.93462C42.2843 9.2636 42.8859 11.0416 42.8859 13.2685C42.8859 13.5918 42.8769 13.8342 42.859 13.9958H32.272C32.2899 15.235 32.703 16.2318 33.5112 16.986C34.3373 17.7403 35.3789 18.1175 36.6361 18.1175C38.3242 18.1175 39.6173 17.462 40.5153 16.1509L42.4549 17.6056C42.0059 18.3779 41.2875 19.0873 40.2998 19.7338C39.312 20.3624 38.0728 20.6767 36.5822 20.6767C34.4091 20.6767 32.6491 19.9942 31.3022 18.6293ZM32.3797 11.9754H39.8957C39.8418 10.844 39.4647 9.96401 38.7643 9.33543C38.0638 8.6889 37.1928 8.36564 36.1512 8.36564C35.1275 8.36564 34.2655 8.69788 33.5651 9.36237C32.8646 10.0089 32.4695 10.8799 32.3797 11.9754Z" fill="#022D22"/>
<path d="M45.2437 20.3265V0.849716H48.18V20.3265H45.2437Z" fill="#022D22"/>
<path d="M51.4786 20.3265V0.849716H54.4149V20.3265H51.4786Z" fill="#022D22"/>
<path d="M64.7977 20.3265V1.46931H70.2663C72.0443 1.46931 73.49 1.99012 74.6035 3.03176C75.7349 4.07339 76.3006 5.43829 76.3006 7.12645C76.3006 8.79666 75.7259 10.1705 74.5765 11.2481C73.4451 12.3256 72.0173 12.8644 70.2932 12.8644H67.7879V20.3265H64.7977ZM67.7879 10.2514H69.9161C70.9039 10.2514 71.703 9.96401 72.3137 9.38931C72.9243 8.81462 73.2296 8.06033 73.2296 7.12645C73.2296 6.21054 72.9243 5.47421 72.3137 4.91747C71.703 4.36074 70.9128 4.08237 69.943 4.08237H67.7879V10.2514Z" fill="#022D22"/>
<path d="M85.5242 5.91421V8.87747C82.8842 8.87747 81.5642 10.6734 81.5642 14.2652V20.3265H78.6279V6.26441H81.5103V8.47339C81.7977 7.73707 82.3005 7.12645 83.0189 6.64156C83.7373 6.15666 84.5724 5.91421 85.5242 5.91421Z" fill="#022D22"/>
<path d="M90.7813 9.90115C89.9552 10.7991 89.5421 11.9395 89.5421 13.3224C89.5421 14.7052 89.9552 15.8456 90.7813 16.7436C91.6254 17.6236 92.7029 18.0636 94.014 18.0636C95.325 18.0636 96.4025 17.6146 97.2466 16.7167C98.1087 15.8187 98.5397 14.6783 98.5397 13.2954C98.5397 11.9126 98.1087 10.7722 97.2466 9.87421C96.4025 8.97625 95.325 8.52727 94.014 8.52727C92.7029 8.52727 91.6254 8.98523 90.7813 9.90115ZM86.5788 13.3224C86.5788 11.2032 87.2882 9.44319 88.707 8.04237C90.1258 6.6236 91.8948 5.91421 94.014 5.91421C96.1691 5.91421 97.947 6.61462 99.3479 8.01543C100.767 9.41625 101.476 11.1763 101.476 13.2954C101.476 15.4146 100.767 17.1746 99.3479 18.5754C97.9291 19.9763 96.1511 20.6767 94.014 20.6767C91.8589 20.6767 90.0809 19.9852 88.6801 18.6024C87.2793 17.2195 86.5788 15.4595 86.5788 13.3224Z" fill="#022D22"/>
<path d="M104.152 6.26441V3.32808H107.061V6.26441H109.917V8.6889H107.061V15.235C107.061 16.2767 107.25 16.986 107.627 17.3632C108.004 17.7224 108.615 17.902 109.459 17.902L110.024 17.875V20.4073C109.683 20.4791 109.207 20.515 108.597 20.515C106.98 20.515 105.831 20.0212 105.149 19.0334C104.484 18.0456 104.152 16.6269 104.152 14.7771V8.6889H102.589V6.26441H104.152Z" fill="#022D22"/>
<path d="M115.721 9.90115C114.895 10.7991 114.482 11.9395 114.482 13.3224C114.482 14.7052 114.895 15.8456 115.721 16.7436C116.565 17.6236 117.642 18.0636 118.953 18.0636C120.264 18.0636 121.342 17.6146 122.186 16.7167C123.048 15.8187 123.479 14.6783 123.479 13.2954C123.479 11.9126 123.048 10.7722 122.186 9.87421C121.342 8.97625 120.264 8.52727 118.953 8.52727C117.642 8.52727 116.565 8.98523 115.721 9.90115ZM111.518 13.3224C111.518 11.2032 112.228 9.44319 113.646 8.04237C115.065 6.6236 116.834 5.91421 118.953 5.91421C121.109 5.91421 122.887 6.61462 124.287 8.01543C125.706 9.41625 126.416 11.1763 126.416 13.2954C126.416 15.4146 125.706 17.1746 124.287 18.5754C122.869 19.9763 121.091 20.6767 118.953 20.6767C116.798 20.6767 115.02 19.9852 113.62 18.6024C112.219 17.2195 111.518 15.4595 111.518 13.3224Z" fill="#022D22"/>
<path d="M140.002 7.63829L139.113 10.1167C138.053 9.09299 136.814 8.58115 135.395 8.58115C134.084 8.58115 133.015 9.03013 132.189 9.92809C131.363 10.826 130.95 11.9485 130.95 13.2954C130.95 14.6424 131.381 15.7738 132.243 16.6897C133.123 17.6056 134.21 18.0636 135.503 18.0636C136.796 18.0636 138.017 17.5428 139.166 16.5012L140.002 18.9256C138.691 20.093 137.137 20.6767 135.341 20.6767C133.204 20.6767 131.444 19.9763 130.061 18.5754C128.678 17.1746 127.987 15.4146 127.987 13.2954C127.987 11.1942 128.687 9.44319 130.088 8.04237C131.489 6.6236 133.231 5.91421 135.314 5.91421C137.11 5.91421 138.673 6.4889 140.002 7.63829Z" fill="#022D22"/>
<path d="M145.685 9.90115C144.859 10.7991 144.446 11.9395 144.446 13.3224C144.446 14.7052 144.859 15.8456 145.685 16.7436C146.529 17.6236 147.607 18.0636 148.918 18.0636C150.229 18.0636 151.306 17.6146 152.15 16.7167C153.012 15.8187 153.443 14.6783 153.443 13.2954C153.443 11.9126 153.012 10.7722 152.15 9.87421C151.306 8.97625 150.229 8.52727 148.918 8.52727C147.607 8.52727 146.529 8.98523 145.685 9.90115ZM141.483 13.3224C141.483 11.2032 142.192 9.44319 143.611 8.04237C145.03 6.6236 146.798 5.91421 148.918 5.91421C151.073 5.91421 152.851 6.61462 154.252 8.01543C155.67 9.41625 156.38 11.1763 156.38 13.2954C156.38 15.4146 155.67 17.1746 154.252 18.5754C152.833 19.9763 151.055 20.6767 148.918 20.6767C146.763 20.6767 144.985 19.9852 143.584 18.6024C142.183 17.2195 141.483 15.4595 141.483 13.3224Z" fill="#022D22"/>
<path d="M158.813 20.3265V0.849716H161.749V20.3265H158.813Z" fill="#022D22"/>
</svg>