<svg width="114" height="24" viewBox="0 0 114 24" fill="none" xmlns="http://www.w3.org/2000/svg">
<g clip-path="url(#clip0_766_285)">
<path d="M7.13571 23.9989C5.35886 23.9989 3.75742 23.3566 2.5024 22.1417C0.887879 20.5787 0 18.2305 0 15.5299C0 12.3753 1.6374 9.6514 2.83358 7.66297L3.01661 7.35714C3.1408 7.14972 3.3783 7.03226 3.62342 7.05871C3.86853 7.08411 4.07553 7.24708 4.15178 7.47566C4.93944 9.83447 6.14542 11.6556 7.2087 13.2621C8.40598 15.0706 9.43984 16.6325 9.43984 18.3606C9.43984 19.7628 8.40053 20.7798 6.96902 20.7798C6.13671 20.7798 5.37084 20.4327 4.75097 19.7766C3.54716 18.5003 3.04166 16.2094 3.17784 14.7014C3.20835 14.3669 3.51229 14.1193 3.85546 14.1489C4.19972 14.1785 4.45355 14.4727 4.42414 14.8072C4.31192 16.0474 4.75859 17.986 5.6737 18.9554C6.06045 19.3649 6.48424 19.5649 6.97011 19.5649C7.72291 19.5649 8.19027 19.1035 8.19027 18.3606C8.19027 16.9892 7.29258 15.6346 6.1574 13.9192C5.24229 12.5372 4.22587 11.0017 3.42731 9.09053C2.39237 10.8588 1.24957 13.0949 1.24957 15.5299C1.24957 17.9056 2.0078 19.948 3.38483 21.2814C4.40018 22.2645 5.69659 22.7841 7.13571 22.7841C7.14225 22.7841 7.14769 22.7841 7.15314 22.7841C9.59235 22.7767 11.4324 20.9502 11.4324 18.5353C11.4324 16.0738 10.038 13.9647 8.69031 11.9244C7.35686 9.90643 5.97765 7.82065 5.97003 5.40469C5.97003 3.34218 6.99081 1.46698 8.84392 0.120903C9.10429 -0.0674643 9.46924 -0.0325426 9.68495 0.203445C11.1491 1.79821 18.4537 10.0504 18.4722 15.9024C18.482 18.9152 17.3055 21.5311 15.2443 23.0793C15.0384 23.2338 14.7551 23.2487 14.5329 23.1164C14.3117 22.983 14.1973 22.7313 14.2475 22.4825C14.5983 20.7386 14.6604 20.2062 14.6604 18.9205C14.6604 15.1881 12.5556 11.8112 10.6992 8.83338C10.1654 7.97727 9.66208 7.16983 9.22195 6.37933C9.05744 6.08408 9.17074 5.71581 9.47469 5.55602C9.77755 5.39622 10.1578 5.50628 10.3222 5.80153C10.7483 6.56558 11.2439 7.36137 11.769 8.20479C13.7104 11.3191 15.911 14.8494 15.911 18.9215C15.911 19.639 15.8925 20.1459 15.8217 20.729C16.7313 19.4411 17.2281 17.7659 17.2216 15.9066C17.2085 11.8504 12.9522 5.69041 9.14678 1.44899C8.28287 2.19611 7.22068 3.50198 7.22068 5.40469C7.22722 7.46402 8.44955 9.31276 9.74269 11.2694C11.1884 13.4568 12.6831 15.7182 12.6831 18.5363C12.6831 21.5904 10.2558 23.9905 7.1575 24C7.15095 23.999 7.14333 23.9989 7.13571 23.9989Z" fill="#022D22"/>
</g>
<path d="M25.8813 15.5019L27.2626 14.8553C27.6348 15.8251 28.3058 16.31 29.2756 16.31C29.7458 16.31 30.1181 16.1876 30.3924 15.9427C30.6764 15.6978 30.8185 15.3598 30.8185 14.9288C30.8185 14.537 30.6569 14.199 30.3336 13.9149C30.0201 13.621 29.6332 13.3712 29.1728 13.1655C28.7222 12.9598 28.2715 12.7394 27.8209 12.5043C27.3703 12.2692 26.9834 11.9361 26.6601 11.5051C26.3467 11.0643 26.1899 10.5402 26.1899 9.93287C26.1899 9.11981 26.4691 8.45369 27.0275 7.9345C27.5956 7.41532 28.345 7.15573 29.2756 7.15573C29.736 7.15573 30.1524 7.2292 30.5246 7.37614C30.9066 7.52308 31.2152 7.7141 31.4503 7.9492C31.6854 8.1843 31.8666 8.40961 31.994 8.62512C32.1311 8.83083 32.2389 9.04144 32.3173 9.25695L30.9654 9.8594C30.5834 9.05614 30.0103 8.6545 29.2462 8.6545C28.8054 8.6545 28.4577 8.77695 28.203 9.02185C27.9483 9.25695 27.8209 9.55573 27.8209 9.91818C27.8209 10.2316 27.9336 10.5157 28.1589 10.7704C28.394 11.0153 28.683 11.2161 29.0258 11.3729C29.3687 11.5296 29.7409 11.7108 30.1426 11.9165C30.554 12.1223 30.9311 12.3378 31.274 12.5631C31.6169 12.7786 31.9009 13.0823 32.1262 13.4741C32.3613 13.8561 32.4789 14.3019 32.4789 14.8112C32.4789 15.6929 32.1801 16.4178 31.5826 16.9859C30.9948 17.5443 30.2013 17.8235 29.2022 17.8235C28.7026 17.8235 28.252 17.75 27.8503 17.6031C27.4487 17.4463 27.1156 17.2455 26.8511 17.0006C26.5964 16.7459 26.3907 16.501 26.234 16.2659C26.0871 16.021 25.9695 15.7663 25.8813 15.5019Z" fill="#022D22"/>
<path d="M37.661 9.77124C38.5818 9.77124 39.2577 10.0798 39.6888 10.697C40.1198 11.3141 40.3353 12.088 40.3353 13.0186V17.6325H38.7483V12.8863C38.7483 12.3672 38.6014 11.9606 38.3075 11.6667C38.0235 11.3631 37.6561 11.2112 37.2055 11.2112C36.7059 11.2112 36.2994 11.3778 35.9859 11.7108C35.6724 12.0439 35.5157 12.4749 35.5157 13.0039V17.6325H33.9141V7.00879H35.5157V10.9614C35.7018 10.6284 35.9859 10.3492 36.3679 10.1239C36.75 9.88879 37.181 9.77124 37.661 9.77124Z" fill="#022D22"/>
<path d="M42.7111 16.7067C41.9764 15.9623 41.6091 15.0023 41.6091 13.8267C41.6091 12.6512 41.9666 11.6814 42.6817 10.9174C43.3968 10.1533 44.2833 9.77124 45.3413 9.77124C46.4874 9.77124 47.3886 10.1386 48.045 10.8733C48.7013 11.5982 49.0295 12.568 49.0295 13.7827C49.0295 13.959 49.0246 14.0912 49.0148 14.1794H43.2401C43.2499 14.8553 43.4752 15.399 43.916 15.8104C44.3666 16.2219 44.9348 16.4276 45.6205 16.4276C46.5413 16.4276 47.2466 16.07 47.7364 15.3549L48.7944 16.1484C48.5495 16.5696 48.1576 16.9565 47.6188 17.3092C47.0801 17.6521 46.4042 17.8235 45.5911 17.8235C44.4058 17.8235 43.4458 17.4512 42.7111 16.7067ZM43.2989 13.0774H47.3984C47.3691 12.4602 47.1633 11.9802 46.7813 11.6374C46.3993 11.2847 45.9242 11.1084 45.356 11.1084C44.7976 11.1084 44.3274 11.2896 43.9454 11.6521C43.5633 12.0047 43.3478 12.4798 43.2989 13.0774Z" fill="#022D22"/>
<path d="M50.3155 17.6325V7.00879H51.9171V17.6325H50.3155Z" fill="#022D22"/>
<path d="M53.7163 17.6325V7.00879H55.318V17.6325H53.7163Z" fill="#022D22"/>
<path d="M60.9813 17.6325V7.34675H63.9642C64.934 7.34675 65.7225 7.63083 66.3299 8.19899C66.947 8.76716 67.2556 9.51165 67.2556 10.4325C67.2556 11.3435 66.9421 12.0929 66.3152 12.6806C65.698 13.2684 64.9193 13.5623 63.9789 13.5623H62.6123V17.6325H60.9813ZM62.6123 12.137H63.7731C64.3119 12.137 64.7478 11.9802 65.0809 11.6667C65.414 11.3533 65.5805 10.9419 65.5805 10.4325C65.5805 9.93287 65.414 9.53124 65.0809 9.22756C64.7478 8.92389 64.3168 8.77205 63.7878 8.77205H62.6123V12.137Z" fill="#022D22"/>
<path d="M72.2866 9.77124V11.3876C70.8466 11.3876 70.1266 12.3672 70.1266 14.3263V17.6325H68.525V9.96226H70.0972V11.1672C70.254 10.7655 70.5283 10.4325 70.9201 10.168C71.3119 9.90348 71.7674 9.77124 72.2866 9.77124Z" fill="#022D22"/>
<path d="M75.1541 11.9459C74.7035 12.4357 74.4782 13.0578 74.4782 13.8121C74.4782 14.5663 74.7035 15.1884 75.1541 15.6782C75.6145 16.1582 76.2023 16.3982 76.9174 16.3982C77.6325 16.3982 78.2202 16.1533 78.6806 15.6635C79.1508 15.1737 79.3859 14.5516 79.3859 13.7974C79.3859 13.0431 79.1508 12.421 78.6806 11.9312C78.2202 11.4414 77.6325 11.1965 76.9174 11.1965C76.2023 11.1965 75.6145 11.4463 75.1541 11.9459ZM72.8619 13.8121C72.8619 12.6561 73.2488 11.6961 74.0227 10.9321C74.7966 10.1582 75.7615 9.77124 76.9174 9.77124C78.0929 9.77124 79.0627 10.1533 79.8268 10.9174C80.6006 11.6814 80.9876 12.6414 80.9876 13.7974C80.9876 14.9533 80.6006 15.9133 79.8268 16.6774C79.0529 17.4414 78.0831 17.8235 76.9174 17.8235C75.7419 17.8235 74.7721 17.4463 74.008 16.6921C73.2439 15.9378 72.8619 14.9778 72.8619 13.8121Z" fill="#022D22"/>
<path d="M82.4471 9.96226V8.36063H84.034V9.96226H85.5916V11.2847H84.034V14.8553C84.034 15.4235 84.1369 15.8104 84.3426 16.0161C84.5483 16.2121 84.8814 16.31 85.3418 16.31L85.6503 16.2953V17.6765C85.4642 17.7157 85.2046 17.7353 84.8716 17.7353C83.9899 17.7353 83.363 17.4659 82.9908 16.9272C82.6283 16.3884 82.4471 15.6145 82.4471 14.6055V11.2847H81.5948V9.96226H82.4471Z" fill="#022D22"/>
<path d="M88.7574 11.9459C88.3068 12.4357 88.0815 13.0578 88.0815 13.8121C88.0815 14.5663 88.3068 15.1884 88.7574 15.6782C89.2178 16.1582 89.8056 16.3982 90.5207 16.3982C91.2358 16.3982 91.8235 16.1533 92.2839 15.6635C92.7541 15.1737 92.9892 14.5516 92.9892 13.7974C92.9892 13.0431 92.7541 12.421 92.2839 11.9312C91.8235 11.4414 91.2358 11.1965 90.5207 11.1965C89.8056 11.1965 89.2178 11.4463 88.7574 11.9459ZM86.4652 13.8121C86.4652 12.6561 86.8521 11.6961 87.626 10.9321C88.3999 10.1582 89.3648 9.77124 90.5207 9.77124C91.6962 9.77124 92.666 10.1533 93.4301 10.9174C94.2039 11.6814 94.5909 12.6414 94.5909 13.7974C94.5909 14.9533 94.2039 15.9133 93.4301 16.6774C92.6562 17.4414 91.6864 17.8235 90.5207 17.8235C89.3452 17.8235 88.3754 17.4463 87.6113 16.6921C86.8472 15.9378 86.4652 14.9778 86.4652 13.8121Z" fill="#022D22"/>
<path d="M102.001 10.7116L101.517 12.0635C100.939 11.5051 100.263 11.2259 99.4887 11.2259C98.7737 11.2259 98.1908 11.4708 97.7402 11.9606C97.2896 12.4504 97.0643 13.0627 97.0643 13.7974C97.0643 14.5321 97.2994 15.1492 97.7696 15.6488C98.2496 16.1484 98.8422 16.3982 99.5475 16.3982C100.253 16.3982 100.919 16.1141 101.546 15.5459L102.001 16.8684C101.286 17.5051 100.439 17.8235 99.4594 17.8235C98.2936 17.8235 97.3336 17.4414 96.5794 16.6774C95.8251 15.9133 95.4479 14.9533 95.4479 13.7974C95.4479 12.6512 95.83 11.6961 96.5941 10.9321C97.3581 10.1582 98.3083 9.77124 99.4447 9.77124C100.424 9.77124 101.277 10.0847 102.001 10.7116Z" fill="#022D22"/>
<path d="M105.101 11.9459C104.651 12.4357 104.426 13.0578 104.426 13.8121C104.426 14.5663 104.651 15.1884 105.101 15.6782C105.562 16.1582 106.15 16.3982 106.865 16.3982C107.58 16.3982 108.168 16.1533 108.628 15.6635C109.098 15.1737 109.333 14.5516 109.333 13.7974C109.333 13.0431 109.098 12.421 108.628 11.9312C108.168 11.4414 107.58 11.1965 106.865 11.1965C106.15 11.1965 105.562 11.4463 105.101 11.9459ZM102.809 13.8121C102.809 12.6561 103.196 11.6961 103.97 10.9321C104.744 10.1582 105.709 9.77124 106.865 9.77124C108.04 9.77124 109.01 10.1533 109.774 10.9174C110.548 11.6814 110.935 12.6414 110.935 13.7974C110.935 14.9533 110.548 15.9133 109.774 16.6774C109 17.4414 108.03 17.8235 106.865 17.8235C105.689 17.8235 104.719 17.4463 103.955 16.6921C103.191 15.9378 102.809 14.9778 102.809 13.8121Z" fill="#022D22"/>
<path d="M112.262 17.6325V7.00879H113.864V17.6325H112.262Z" fill="#022D22"/>
<defs>
<clipPath id="clip0_766_285">
<rect width="18.6122" height="24" fill="white"/>
</clipPath>
</defs>
</svg>
