<svg xmlns="http://www.w3.org/2000/svg" width="35" height="44" viewBox="0 0 35 44" fill="none">
<path d="M13.0822 43.998C9.82462 43.998 6.88862 42.8204 4.58776 40.5931C1.62778 37.7276 0 33.4226 0 28.4715C0 22.688 3.0019 17.6942 5.19493 14.0488L5.53048 13.4881C5.75816 13.1078 6.19357 12.8925 6.64296 12.941C7.09234 12.9875 7.47183 13.2863 7.61163 13.7054C9.05568 18.0299 11.2667 21.3686 13.216 24.3139C15.411 27.6294 17.3064 30.4929 17.3064 33.6611C17.3064 36.2318 15.401 38.0963 12.7766 38.0963C11.2507 38.0963 9.84658 37.4599 8.71014 36.2571C6.50315 33.9172 5.5764 29.7172 5.82607 26.9526C5.88199 26.3393 6.43923 25.8854 7.06838 25.9397C7.69952 25.9939 8.16488 26.5333 8.11095 27.1465C7.90523 29.4202 8.72411 32.9743 10.4018 34.7516C11.1109 35.5023 11.8878 35.869 12.7786 35.869C14.1587 35.869 15.0156 35.0231 15.0156 33.6611C15.0156 31.1469 13.3698 28.6634 11.2886 25.5185C9.6109 22.9849 7.74745 20.1698 6.28343 16.666C4.38602 19.9078 2.29088 24.0073 2.29088 28.4715C2.29088 32.8269 3.68098 36.5713 6.20555 39.0159C8.06702 40.8183 10.4438 41.7709 13.0822 41.7709C13.0942 41.7709 13.1042 41.7709 13.1141 41.7709C17.586 41.7573 20.9595 38.4087 20.9595 33.9814C20.9595 29.4686 18.403 25.602 15.9323 21.8614C13.4876 18.1618 10.9591 14.3379 10.9451 9.9086C10.9451 6.12733 12.8165 2.68946 16.2139 0.221655C16.6913 -0.123684 17.3604 -0.0596614 17.7558 0.372982C20.4401 3.29672 33.832 18.4257 33.8659 29.1544C33.8839 34.6779 31.7268 39.4737 27.948 42.312C27.5705 42.5953 27.0511 42.6226 26.6438 42.3801C26.2383 42.1355 26.0285 41.674 26.1205 41.2179C26.7636 38.0208 26.8774 37.0447 26.8774 34.6876C26.8774 27.8449 23.0187 21.6539 19.6153 16.1945C18.6367 14.625 17.7139 13.1447 16.907 11.6954C16.6054 11.1541 16.8131 10.479 17.3703 10.186C17.9256 9.89307 18.6227 10.0948 18.9242 10.6361C19.7052 12.0369 20.614 13.4958 21.5766 15.0421C25.1357 20.7517 29.1703 27.2239 29.1703 34.6894C29.1703 36.0048 29.1364 36.9342 29.0065 38.0032C30.6742 35.642 31.5849 32.5708 31.5731 29.1621C31.549 21.7257 23.7457 10.4324 16.7692 2.65648C15.1853 4.0262 13.238 6.4203 13.238 9.9086C13.2499 13.684 15.4909 17.0734 17.8617 20.6606C20.5121 24.6708 23.2524 28.8167 23.2524 33.9832C23.2524 39.5824 18.8024 43.9826 13.1221 44C13.1101 43.9982 13.0962 43.998 13.0822 43.998Z" fill="#022D22"/>
</svg>