<svg width="114" height="24" viewBox="0 0 114 24" fill="none" xmlns="http://www.w3.org/2000/svg">
<g clip-path="url(#clip0_370_4246)">
<path d="M7.13571 23.9989C5.35886 23.9989 3.75742 23.3566 2.5024 22.1417C0.887879 20.5787 0 18.2305 0 15.5299C0 12.3753 1.6374 9.6514 2.83358 7.66297L3.01661 7.35714C3.1408 7.14972 3.3783 7.03226 3.62342 7.05871C3.86853 7.08411 4.07553 7.24708 4.15178 7.47566C4.93944 9.83447 6.14542 11.6556 7.2087 13.2621C8.40598 15.0706 9.43984 16.6325 9.43984 18.3606C9.43984 19.7628 8.40053 20.7798 6.96902 20.7798C6.13671 20.7798 5.37084 20.4327 4.75097 19.7766C3.54716 18.5003 3.04166 16.2094 3.17784 14.7014C3.20835 14.3669 3.51229 14.1193 3.85546 14.1489C4.19972 14.1785 4.45355 14.4727 4.42414 14.8072C4.31192 16.0474 4.75859 17.986 5.6737 18.9554C6.06045 19.3649 6.48424 19.5649 6.97011 19.5649C7.72291 19.5649 8.19027 19.1035 8.19027 18.3606C8.19027 16.9892 7.29258 15.6346 6.1574 13.9192C5.24229 12.5372 4.22587 11.0017 3.42731 9.09053C2.39237 10.8588 1.24957 13.0949 1.24957 15.5299C1.24957 17.9056 2.0078 19.948 3.38483 21.2814C4.40018 22.2645 5.69659 22.7841 7.13571 22.7841C7.14225 22.7841 7.14769 22.7841 7.15314 22.7841C9.59235 22.7767 11.4324 20.9502 11.4324 18.5353C11.4324 16.0738 10.038 13.9647 8.69031 11.9244C7.35686 9.90643 5.97765 7.82065 5.97003 5.40469C5.97003 3.34218 6.99081 1.46698 8.84392 0.120903C9.10429 -0.0674643 9.46924 -0.0325426 9.68495 0.203445C11.1491 1.79821 18.4537 10.0504 18.4722 15.9024C18.482 18.9152 17.3055 21.5311 15.2443 23.0793C15.0384 23.2338 14.7551 23.2487 14.5329 23.1164C14.3117 22.983 14.1973 22.7313 14.2475 22.4825C14.5983 20.7386 14.6604 20.2062 14.6604 18.9205C14.6604 15.1881 12.5556 11.8112 10.6992 8.83338C10.1654 7.97727 9.66208 7.16983 9.22195 6.37933C9.05744 6.08408 9.17074 5.71581 9.47469 5.55602C9.77755 5.39622 10.1578 5.50628 10.3222 5.80153C10.7483 6.56558 11.2439 7.36137 11.769 8.20479C13.7104 11.3191 15.911 14.8494 15.911 18.9215C15.911 19.639 15.8925 20.1459 15.8217 20.729C16.7313 19.4411 17.2281 17.7659 17.2216 15.9066C17.2085 11.8504 12.9522 5.69041 9.14678 1.44899C8.28287 2.19611 7.22068 3.50198 7.22068 5.40469C7.22722 7.46402 8.44955 9.31276 9.74269 11.2694C11.1884 13.4568 12.6831 15.7182 12.6831 18.5363C12.6831 21.5904 10.2558 23.9905 7.1575 24C7.15095 23.999 7.14333 23.9989 7.13571 23.9989Z" fill="#E7E1BD"/>
</g>
<path d="M25.8812 15.5019L27.2624 14.8553C27.6347 15.8251 28.3057 16.31 29.2755 16.31C29.7457 16.31 30.118 16.1876 30.3922 15.9427C30.6763 15.6978 30.8184 15.3598 30.8184 14.9288C30.8184 14.537 30.6567 14.199 30.3335 13.9149C30.02 13.621 29.6331 13.3712 29.1727 13.1655C28.722 12.9598 28.2714 12.7394 27.8208 12.5043C27.3702 12.2692 26.9833 11.9361 26.66 11.5051C26.3465 11.0643 26.1898 10.5402 26.1898 9.93287C26.1898 9.11981 26.469 8.45369 27.0273 7.9345C27.5955 7.41532 28.3449 7.15573 29.2755 7.15573C29.7359 7.15573 30.1522 7.2292 30.5245 7.37614C30.9065 7.52308 31.2151 7.7141 31.4502 7.9492C31.6853 8.1843 31.8665 8.40961 31.9939 8.62512C32.131 8.83083 32.2388 9.04144 32.3171 9.25695L30.9653 9.8594C30.5833 9.05614 30.0102 8.6545 29.2461 8.6545C28.8053 8.6545 28.4575 8.77695 28.2029 9.02185C27.9482 9.25695 27.8208 9.55573 27.8208 9.91818C27.8208 10.2316 27.9335 10.5157 28.1588 10.7704C28.3939 11.0153 28.6829 11.2161 29.0257 11.3729C29.3686 11.5296 29.7408 11.7108 30.1424 11.9165C30.5539 12.1223 30.931 12.3378 31.2739 12.5631C31.6167 12.7786 31.9008 13.0823 32.1261 13.4741C32.3612 13.8561 32.4788 14.3019 32.4788 14.8112C32.4788 15.6929 32.18 16.4178 31.5824 16.9859C30.9947 17.5443 30.2012 17.8235 29.202 17.8235C28.7024 17.8235 28.2518 17.75 27.8502 17.6031C27.4486 17.4463 27.1155 17.2455 26.851 17.0006C26.5963 16.7459 26.3906 16.501 26.2339 16.2659C26.0869 16.021 25.9694 15.7663 25.8812 15.5019Z" fill="#E7E1BD"/>
<path d="M37.6609 9.77124C38.5817 9.77124 39.2576 10.0798 39.6886 10.697C40.1197 11.3141 40.3352 12.088 40.3352 13.0186V17.6325H38.7482V12.8863C38.7482 12.3672 38.6013 11.9606 38.3074 11.6667C38.0233 11.3631 37.656 11.2112 37.2054 11.2112C36.7058 11.2112 36.2992 11.3778 35.9858 11.7108C35.6723 12.0439 35.5156 12.4749 35.5156 13.0039V17.6325H33.9139V7.00879H35.5156V10.9614C35.7017 10.6284 35.9858 10.3492 36.3678 10.1239C36.7499 9.88879 37.1809 9.77124 37.6609 9.77124Z" fill="#E7E1BD"/>
<path d="M42.711 16.7067C41.9763 15.9623 41.6089 15.0023 41.6089 13.8267C41.6089 12.6512 41.9665 11.6814 42.6816 10.9174C43.3967 10.1533 44.2832 9.77124 45.3412 9.77124C46.4873 9.77124 47.3885 10.1386 48.0448 10.8733C48.7012 11.5982 49.0293 12.568 49.0293 13.7827C49.0293 13.959 49.0244 14.0912 49.0146 14.1794H43.24C43.2498 14.8553 43.4751 15.399 43.9159 15.8104C44.3665 16.2219 44.9346 16.4276 45.6204 16.4276C46.5412 16.4276 47.2465 16.07 47.7363 15.3549L48.7942 16.1484C48.5493 16.5696 48.1575 16.9565 47.6187 17.3092C47.08 17.6521 46.404 17.8235 45.591 17.8235C44.4057 17.8235 43.4457 17.4512 42.711 16.7067ZM43.2987 13.0774H47.3983C47.3689 12.4602 47.1632 11.9802 46.7812 11.6374C46.3991 11.2847 45.924 11.1084 45.3559 11.1084C44.7975 11.1084 44.3273 11.2896 43.9453 11.6521C43.5632 12.0047 43.3477 12.4798 43.2987 13.0774Z" fill="#E7E1BD"/>
<path d="M50.3154 17.6325V7.00879H51.917V17.6325H50.3154Z" fill="#E7E1BD"/>
<path d="M53.7162 17.6325V7.00879H55.3179V17.6325H53.7162Z" fill="#E7E1BD"/>
<path d="M60.9812 17.6325V7.34675H63.964C64.9338 7.34675 65.7224 7.63083 66.3298 8.19899C66.9469 8.76716 67.2555 9.51165 67.2555 10.4325C67.2555 11.3435 66.942 12.0929 66.3151 12.6806C65.6979 13.2684 64.9191 13.5623 63.9787 13.5623H62.6122V17.6325H60.9812ZM62.6122 12.137H63.773C64.3118 12.137 64.7477 11.9802 65.0808 11.6667C65.4138 11.3533 65.5804 10.9419 65.5804 10.4325C65.5804 9.93287 65.4138 9.53124 65.0808 9.22756C64.7477 8.92389 64.3167 8.77205 63.7877 8.77205H62.6122V12.137Z" fill="#E7E1BD"/>
<path d="M72.2865 9.77124V11.3876C70.8465 11.3876 70.1265 12.3672 70.1265 14.3263V17.6325H68.5249V9.96226H70.0971V11.1672C70.2539 10.7655 70.5281 10.4325 70.92 10.168C71.3118 9.90348 71.7673 9.77124 72.2865 9.77124Z" fill="#E7E1BD"/>
<path d="M75.154 11.9459C74.7034 12.4357 74.4781 13.0578 74.4781 13.8121C74.4781 14.5663 74.7034 15.1884 75.154 15.6782C75.6144 16.1582 76.2022 16.3982 76.9173 16.3982C77.6324 16.3982 78.2201 16.1533 78.6805 15.6635C79.1507 15.1737 79.3858 14.5516 79.3858 13.7974C79.3858 13.0431 79.1507 12.421 78.6805 11.9312C78.2201 11.4414 77.6324 11.1965 76.9173 11.1965C76.2022 11.1965 75.6144 11.4463 75.154 11.9459ZM72.8617 13.8121C72.8617 12.6561 73.2487 11.6961 74.0226 10.9321C74.7964 10.1582 75.7613 9.77124 76.9173 9.77124C78.0928 9.77124 79.0626 10.1533 79.8266 10.9174C80.6005 11.6814 80.9875 12.6414 80.9875 13.7974C80.9875 14.9533 80.6005 15.9133 79.8266 16.6774C79.0528 17.4414 78.083 17.8235 76.9173 17.8235C75.7417 17.8235 74.7719 17.4463 74.0079 16.6921C73.2438 15.9378 72.8617 14.9778 72.8617 13.8121Z" fill="#E7E1BD"/>
<path d="M82.447 9.96226V8.36063H84.0339V9.96226H85.5914V11.2847H84.0339V14.8553C84.0339 15.4235 84.1368 15.8104 84.3425 16.0161C84.5482 16.2121 84.8812 16.31 85.3417 16.31L85.6502 16.2953V17.6765C85.4641 17.7157 85.2045 17.7353 84.8715 17.7353C83.9898 17.7353 83.3629 17.4659 82.9906 16.9272C82.6282 16.3884 82.447 15.6145 82.447 14.6055V11.2847H81.5947V9.96226H82.447Z" fill="#E7E1BD"/>
<path d="M88.7573 11.9459C88.3067 12.4357 88.0814 13.0578 88.0814 13.8121C88.0814 14.5663 88.3067 15.1884 88.7573 15.6782C89.2177 16.1582 89.8055 16.3982 90.5206 16.3982C91.2356 16.3982 91.8234 16.1533 92.2838 15.6635C92.754 15.1737 92.9891 14.5516 92.9891 13.7974C92.9891 13.0431 92.754 12.421 92.2838 11.9312C91.8234 11.4414 91.2356 11.1965 90.5206 11.1965C89.8055 11.1965 89.2177 11.4463 88.7573 11.9459ZM86.465 13.8121C86.465 12.6561 86.852 11.6961 87.6259 10.9321C88.3997 10.1582 89.3646 9.77124 90.5206 9.77124C91.6961 9.77124 92.6659 10.1533 93.4299 10.9174C94.2038 11.6814 94.5908 12.6414 94.5908 13.7974C94.5908 14.9533 94.2038 15.9133 93.4299 16.6774C92.6561 17.4414 91.6863 17.8235 90.5206 17.8235C89.345 17.8235 88.3752 17.4463 87.6112 16.6921C86.8471 15.9378 86.465 14.9778 86.465 13.8121Z" fill="#E7E1BD"/>
<path d="M102.001 10.7116L101.516 12.0635C100.938 11.5051 100.263 11.2259 99.4886 11.2259C98.7735 11.2259 98.1907 11.4708 97.7401 11.9606C97.2895 12.4504 97.0641 13.0627 97.0641 13.7974C97.0641 14.5321 97.2992 15.1492 97.7694 15.6488C98.2495 16.1484 98.8421 16.3982 99.5474 16.3982C100.253 16.3982 100.919 16.1141 101.546 15.5459L102.001 16.8684C101.286 17.5051 100.439 17.8235 99.4592 17.8235C98.2935 17.8235 97.3335 17.4414 96.5792 16.6774C95.825 15.9133 95.4478 14.9533 95.4478 13.7974C95.4478 12.6512 95.8299 11.6961 96.5939 10.9321C97.358 10.1582 98.3082 9.77124 99.4445 9.77124C100.424 9.77124 101.276 10.0847 102.001 10.7116Z" fill="#E7E1BD"/>
<path d="M105.101 11.9459C104.651 12.4357 104.425 13.0578 104.425 13.8121C104.425 14.5663 104.651 15.1884 105.101 15.6782C105.562 16.1582 106.149 16.3982 106.865 16.3982C107.58 16.3982 108.167 16.1533 108.628 15.6635C109.098 15.1737 109.333 14.5516 109.333 13.7974C109.333 13.0431 109.098 12.421 108.628 11.9312C108.167 11.4414 107.58 11.1965 106.865 11.1965C106.149 11.1965 105.562 11.4463 105.101 11.9459ZM102.809 13.8121C102.809 12.6561 103.196 11.6961 103.97 10.9321C104.744 10.1582 105.709 9.77124 106.865 9.77124C108.04 9.77124 109.01 10.1533 109.774 10.9174C110.548 11.6814 110.935 12.6414 110.935 13.7974C110.935 14.9533 110.548 15.9133 109.774 16.6774C109 17.4414 108.03 17.8235 106.865 17.8235C105.689 17.8235 104.719 17.4463 103.955 16.6921C103.191 15.9378 102.809 14.9778 102.809 13.8121Z" fill="#E7E1BD"/>
<path d="M112.262 17.6325V7.00879H113.864V17.6325H112.262Z" fill="#E7E1BD"/>
<defs>
<clipPath id="clip0_370_4246">
<rect width="18.6122" height="24" fill="white"/>
</clipPath>
</defs>
</svg>
