<svg width="23" height="29" viewBox="0 0 23 29" fill="none" xmlns="http://www.w3.org/2000/svg">
<g clip-path="url(#clip0_914_3686)">
<path d="M8.95136 28.9088C6.86505 28.9088 4.98469 28.1546 3.5111 26.7282C1.61539 24.8929 0.572876 22.1358 0.572876 18.9649C0.572876 15.2609 2.49544 12.0626 3.89996 9.72785L4.11487 9.36876C4.26069 9.12521 4.53954 8.9873 4.82736 9.01835C5.11516 9.04818 5.35821 9.23953 5.44774 9.50792C6.37258 12.2775 7.7886 14.4158 9.03706 16.3021C10.4429 18.4256 11.6568 20.2595 11.6568 22.2885C11.6568 23.935 10.4365 25.1291 8.75564 25.1291C7.77836 25.1291 6.87911 24.7215 6.15128 23.9512C4.73781 22.4526 4.14428 19.7627 4.30418 17.9921C4.33999 17.5993 4.69688 17.3086 5.09982 17.3433C5.50403 17.3781 5.80207 17.7235 5.76753 18.1163C5.63577 19.5725 6.16023 21.8487 7.23472 22.9869C7.68883 23.4678 8.18642 23.7026 8.75692 23.7026C9.64082 23.7026 10.1896 23.1608 10.1896 22.2885C10.1896 20.6783 9.13555 19.0878 7.80267 17.0736C6.72817 15.451 5.53473 13.648 4.5971 11.404C3.3819 13.4803 2.04007 16.1058 2.04007 18.9649C2.04007 21.7543 2.93036 24.1524 4.54721 25.718C5.73939 26.8723 7.26159 27.4824 8.95136 27.4824C8.95903 27.4824 8.96542 27.4824 8.97182 27.4824C11.8358 27.4737 13.9964 25.3291 13.9964 22.4937C13.9964 19.6035 12.3591 17.1271 10.7767 14.7314C9.21103 12.362 7.5916 9.91299 7.58266 7.07627C7.58266 4.65456 8.78122 2.45278 10.9571 0.872275C11.2628 0.651102 11.6913 0.692106 11.9446 0.969193C13.6637 2.8417 22.2405 12.5311 22.2623 19.4022C22.2738 22.9397 20.8923 26.0112 18.4721 27.829C18.2304 28.0105 17.8977 28.0279 17.6369 27.8726C17.3772 27.716 17.2428 27.4204 17.3017 27.1283C17.7136 25.0807 17.7865 24.4556 17.7865 22.946C17.7865 18.5635 15.3152 14.5985 13.1355 11.1021C12.5087 10.0969 11.9177 9.14882 11.4009 8.22065C11.2078 7.87398 11.3408 7.44158 11.6977 7.25396C12.0533 7.06633 12.4997 7.19555 12.6929 7.54222C13.1931 8.43934 13.7751 9.37372 14.3916 10.364C16.6711 14.0207 19.255 18.1658 19.255 22.9471C19.255 23.7896 19.2332 24.3848 19.1501 25.0694C20.2181 23.5572 20.8014 21.5903 20.7938 19.4072C20.7784 14.6445 15.7808 7.41175 11.3127 2.43166C10.2983 3.30889 9.05113 4.84219 9.05113 7.07627C9.0588 9.49425 10.494 11.665 12.0124 13.9624C13.7099 16.5307 15.4648 19.186 15.4648 22.4948C15.4648 26.0808 12.6149 28.8989 8.97694 28.9101C8.96925 28.9089 8.96031 28.9088 8.95136 28.9088Z" fill="#022D22"/>
</g>
<defs>
<clipPath id="clip0_914_3686">
<rect width="21.8538" height="28.1798" fill="white" transform="translate(0.572876 0.730316)"/>
</clipPath>
</defs>
</svg>
