<svg width="26" height="26" viewBox="0 0 26 26" fill="none" xmlns="http://www.w3.org/2000/svg">
<rect x="1" y="1" width="24" height="24" rx="12" stroke="#022D22" stroke-width="1.8" stroke-linecap="round" stroke-dasharray="7.4 4.8"/>
<g clip-path="url(#clip0_681_3774)">
<path fill-rule="evenodd" clip-rule="evenodd" d="M18.185 7.81324C18.543 8.17058 18.5277 8.78858 18.5064 9.25658C18.481 9.81258 18.3744 10.5226 18.1644 11.3026C17.745 12.8592 16.893 14.7619 15.357 16.2986C13.6357 18.0199 11.5617 19.0226 9.91704 19.4166C9.70026 19.4675 9.47403 19.4618 9.26006 19.4002C9.04608 19.3386 8.85153 19.223 8.69504 19.0646L6.9337 17.3032C6.77528 17.1469 6.65965 16.9525 6.5979 16.7386C6.53615 16.5248 6.53034 16.2987 6.58104 16.0819C6.9757 14.4366 7.97837 12.3632 9.6997 10.6419C11.2364 9.10458 13.1397 8.25324 14.6957 7.83391C15.4757 7.62324 16.1857 7.51724 16.7424 7.49191C17.2097 7.47058 17.8277 7.45524 18.185 7.81324Z" fill="#022D22"/>
</g>
<defs>
<clipPath id="clip0_681_3774">
<rect width="16" height="16" fill="white" transform="translate(5 5)"/>
</clipPath>
</defs>
</svg>
